<svg width="649" height="314" viewBox="0 0 649 314" fill="none" xmlns="http://www.w3.org/2000/svg">
<path d="M353.839 7.78266C343.574 1.84683 331.47 -0.811359 319.7 0.215846C300.023 1.61943 280.827 12.7305 271.245 30.4204C265.131 41.7353 262.803 55.0498 264.58 67.7996C266.396 79.1381 272.114 89.3788 278.732 98.5452C285.188 107.359 293.994 115.082 304.764 117.686C317.225 120.948 330.531 117.835 341.634 111.687C355.414 104.112 366.564 91.9037 373.198 77.562C378.187 66.8116 380.274 54.5322 378.21 42.7703C375.991 28.1072 366.409 15.177 353.839 7.78266Z" fill="#DACDC0"/>
<path d="M0.519592 305.652C110.929 303.137 344.811 298.185 343.6 301.416C342.013 305.646 99.3234 313.048 97.737 311.726C96.1506 310.404 97.9428 286.229 92.5382 266.138C87.1337 246.046 83.139 238.526 107.108 231.828C131.077 225.13 130.256 212.441 145.412 218.198C160.569 223.956 178.429 235.588 187.006 230.77C195.584 225.952 198.639 166.617 196.641 162.974C194.643 159.331 145.764 161.329 147.762 163.797C149.76 166.265 194.996 165.09 195.819 164.032C196.642 162.974 191.706 101.523 186.067 98.9386C180.427 96.3538 161.039 105.988 145.647 99.9966C130.256 94.004 128.258 91.1842 128.023 93.4171C127.788 95.65 148.114 105.754 146.117 108.809C144.119 111.864 129.76 119.971 133.827 121.146C137.893 122.321 156.575 106.929 155.282 113.039C153.989 119.148 151.169 127.256 153.754 125.729C156.338 124.201 163.388 110.454 179.368 103.051C195.348 95.6488 266.904 80.727 273.718 80.257C280.532 79.787 285.468 83.7817 281.237 83.3117C277.006 82.8418 279.357 57.4627 281.59 56.5227C283.823 55.5828 300.567 54.9948 302.093 51.0001C303.621 47.0054 307.909 38.2515 305.207 37.5465C302.504 36.8416 300.33 47.3573 301.27 44.5375C302.21 41.7178 307.205 28.2642 303.209 28.8523C299.214 29.4403 297.274 43.8922 297.804 41.1309C298.332 38.3696 302.034 25.856 298.744 27.149C295.454 28.442 289.403 47.0651 290.225 50.0614C291.047 53.0577 300.154 55.4075 308.672 42.6005C317.191 29.7934 319.54 21.7444 321.42 20.5695C323.3 19.3946 314.781 43.6573 315.076 40.0157C315.369 36.3729 324.005 21.8625 325.298 22.3909C326.591 22.9193 317.426 44.2453 318.777 41.014C320.128 37.7827 327.119 25.5041 327.296 29.6753C327.473 33.8465 319.893 53.468 311.669 59.1087C303.445 64.7483 283.705 75.5002 283.117 73.4438C282.529 71.3874 283.176 55.819 280.474 55.1725C277.771 54.526 237.94 56.1709 213.971 63.2215C190.002 70.2709 177.576 71.6808 164.534 64.0141C151.492 56.3474 151.344 48.5334 140.359 50.8844C129.373 53.2342 127.552 59.8137 131.018 55.9956C134.484 52.1774 126.965 24.5654 137.304 11.2884C147.643 -1.98863 167.883 3.1225 178.193 8.3213C188.503 13.5201 193.173 12.0225 192.821 13.2559C192.468 14.4892 188.503 17.0886 189.825 17.8386C191.147 18.5886 195.729 15.0627 194.055 18.4997C192.381 21.9368 189.648 25.9022 185.727 25.7695C181.805 25.6368 171.098 17.7948 165.547 20.0411C159.995 22.2886 166.384 24.3146 162.419 28.2362C158.453 32.1578 153.914 33.8757 154.311 36.2109C154.708 38.5461 148.628 27.1782 142.856 29.0288C137.083 30.8794 137.568 43.7011 143.561 44.8906C149.553 46.0801 141.974 43.1727 137.348 42.9073C132.721 42.6418 131.664 24.4899 139.639 18.0566C147.614 11.6232 148.451 22.9911 154.752 19.951C161.053 16.9109 180.087 14.0473 183.26 18.8492C186.433 23.6523 186.98 60.0852 177.664 63.0425C168.349 66.0011 146.116 50.5289 138.068 54.8767C130.019 59.2244 108.753 72.9129 103.819 101.817C98.8839 130.721 103.29 161.564 97.121 190.644C90.9518 219.725 83.374 243.517 83.7258 239.993C84.0789 236.468 91.216 233.648 110.515 223.249C129.814 212.851 135.366 166.145 136.422 178.395C137.479 190.644 131.399 207.299 135.541 207.828C139.683 208.357 183.392 199.809 172.2 207.475C161.009 215.142 141.093 213.204 149.993 216.728C158.893 220.253 172.552 220.958 171.583 226.598C170.614 232.237 157.395 300.797 151.873 302.56C146.35 304.322 128.02 304.909 132.016 301.62C136.011 298.33 188.65 296.45 185.595 297.507C182.541 298.564 183.127 276.827 187.358 257.911C191.588 238.994 195.348 234.763 197.932 233.707C200.517 232.65 239.761 238.054 243.404 236.291C247.047 234.528 247.869 220.781 248.339 221.37C248.809 221.958 251.042 236.644 252.922 237.349C254.801 238.054 261.616 237.702 262.909 235.586C264.202 233.472 257.739 159.566 255.859 164.619C253.98 169.671 254.215 173.901 254.92 173.078C255.624 172.255 273.594 153.354 281.827 136.889C290.639 119.264 298.746 69.4747 299.98 71.0611C301.213 72.6475 302.359 82.9136 300.067 82.4729C297.776 82.0321 285.042 81.371 285.439 78.6401C285.836 75.908 287.113 74.4105 287.554 75.6C287.995 76.7895 287.421 83.9278 281.297 94.6346C275.173 105.341 259.443 135.744 251.599 139.005C243.756 142.265 238.352 142.236 237.882 142.999C237.412 143.763 245.754 150.167 245.108 151.988C244.461 153.81 240.231 155.866 240.231 157.452C240.231 159.039 248.162 162.094 246.752 164.972C245.343 167.85 239.996 169.554 240.231 179.659C240.466 189.763 243.756 210.09 242.464 208.916C241.171 207.741 226.368 183.418 216.262 174.019C206.158 164.62 202.397 161.917 203.69 161.094C204.983 160.271 209.683 160.59 209.095 159.139C208.507 157.687 197.315 142.882 197.404 142.442C197.492 142.001 202.162 141.252 203 142.001C203.837 142.75 218.641 164.34 224.854 165.573C231.067 166.807 224.898 149.755 225.207 147.023C225.515 144.291 234.768 142.309 233.932 144.555C233.094 146.803 223.842 150.173 222.872 148.586C221.903 147 222.233 142.33 222.034 141.537C221.836 140.744 216.615 136.426 216.417 137.351C216.218 138.276 219.391 145.81 227.719 141.36C236.047 136.91 235.943 115.328 232.067 107.397C228.189 99.4657 216.675 97.8209 219.436 96.881C222.198 95.941 214.443 108.983 212.034 120.498C209.625 132.014 210.565 149.167 209.391 143.646C208.216 138.123 199.521 142.118 196.877 135.773C194.234 129.429 192.236 106.399 196.23 100.759C200.225 95.1192 221.668 90.1834 230.598 100.23C239.528 110.276 237.531 134.245 235.356 148.169C233.183 162.092 229.892 163.091 231.42 173.724C232.948 184.358 239.116 195.99 236.825 194.521C234.533 193.053 219.963 164.324 211.622 162.621C203.28 160.917 199.872 161.739 200.753 167.555C201.635 173.371 217.584 184.475 214.853 187.118C212.123 189.762 196.613 177.424 199.432 177.16C202.252 176.896 194.498 232.942 191.414 234.969C188.33 236.996 185.077 223.515 206.924 229.77C228.771 236.025 259.181 240.08 259.092 242.812C259.004 245.544 261.207 292.161 258.034 295.685C254.861 299.21 238.294 298.858 241.467 297.624C244.64 296.39 408.49 296.566 406.962 300.443C405.434 304.321 396.623 306.436 393.567 301.148C390.512 295.861 384.049 263.667 391.099 250.272C398.148 236.877 408.547 217.96 412.512 215.846C416.478 213.731 437.363 214.876 437.891 215.889C438.42 216.902 439.081 223.028 438.42 223.556C437.759 224.085 409.516 225.186 409.471 223.423C409.426 221.66 429.049 184.238 429.167 163.558C429.285 142.879 423.762 107.336 422.469 107.864C421.176 108.393 412.952 112.035 412.952 112.622C412.952 113.209 417.065 113.621 415.83 115.325C414.597 117.028 409.779 117.616 410.837 119.908C411.895 122.199 427.404 156.185 425.994 167.553C424.584 178.921 379.994 257.879 376.205 260.082C372.416 262.284 359.285 254.266 360.52 252.591C361.753 250.917 385.811 208.618 385.811 178.657C385.811 148.695 385.458 128.779 387.133 133.89C388.807 139.001 386.252 144.905 382.286 143.495C378.321 142.085 363.605 140.498 352.06 128.074C340.516 115.649 324.037 82.6019 322.803 87.6254C321.57 92.6489 325.976 96.5254 333.907 93.0896C341.838 89.6526 348.623 79.4303 345.892 74.408C343.161 69.3858 340.428 68.592 342.279 65.2438C344.129 61.8956 351.268 53.8759 351.268 47.8833C351.268 41.8906 350.871 39.8196 348.624 41.6703C346.377 43.5209 342.808 54.2716 342.941 50.0857C343.074 45.8999 343.029 22.9437 340.693 21.3134C338.358 19.6832 337.169 49.7327 337.653 43.3882C338.138 37.0437 332.278 15.8942 330.868 18.9344C329.458 21.9745 331.706 46.6487 331.045 42.7271C330.384 38.8055 328.005 35.5449 327.3 38.5851C326.595 41.6252 322.893 51.7598 320.822 58.545C318.751 65.3303 327.608 90.5779 331.045 89.2118C334.482 87.8458 346.114 71.8963 350.74 76.9624C355.367 82.0297 361.58 94.6748 371.978 102.254C382.376 109.833 390.836 110.493 391.541 112.432C392.246 114.371 394.14 121.288 391.144 116.398C388.147 111.507 388.368 103.84 394.933 103.003C401.497 102.165 440.625 106.866 439.978 111.977C439.332 117.088 436.512 120.261 435.161 120.319C433.809 120.378 428.933 119.791 432.693 119.086C436.452 118.381 438.466 122.611 439.986 136.711C441.505 150.811 442.915 171.96 438.421 180.596C433.927 189.232 432.605 200.776 431.107 195.401C429.61 190.026 435.954 172.842 432.43 149.754C428.905 126.666 427.231 111.861 429.036 110.716C430.843 109.57 473.758 119.264 473.758 123.934C473.758 128.605 466.884 128.253 467.501 129.75C468.119 131.248 471.908 132.218 470.585 135.038C469.263 137.858 444.148 179.364 444.237 173.723C444.325 168.084 455.957 118.47 456.838 121.026C457.72 123.581 448.467 165.703 442.915 183.416C437.363 201.128 447.409 287.4 448.114 288.371C448.819 289.34 501.428 281.762 496.846 286.578C492.263 291.396 478.751 189.995 472.642 174.722C466.532 159.447 468.558 149.401 470.674 143.673C472.789 137.944 479.266 123.448 480.368 123.492C481.47 123.536 489.357 128.075 493.587 132.656C497.816 137.239 504.647 139.045 500.548 135.829C496.45 132.613 488.255 127.81 484.466 131.864C480.677 135.917 491.736 139.046 487.903 141.469C484.071 143.892 481.206 142.086 480.677 144.157C480.149 146.228 472.35 168.875 472.173 163.676C471.997 158.478 477.813 154.159 480.457 171.607C483.1 189.055 487.066 232.323 492.882 235.143C498.698 237.963 562.294 211.38 557.123 217.254C551.953 223.129 532.33 203.272 527.984 183.885C523.636 164.498 532.684 118.409 526.809 106.307C520.935 94.2049 500.842 96.937 478.636 94.4691C456.428 92.0012 415.951 81.2505 413.894 75.4344C411.838 69.6183 416.127 53.6969 421.943 51.6417C427.759 49.5853 428.993 57.3994 436.395 60.6891C443.798 63.9788 445.149 63.9204 444.679 67.3866C444.209 70.8529 441.976 72.1447 444.973 71.3813C447.969 70.6179 454.49 66.4467 456.193 71.9097C457.896 77.3739 454.43 86.9497 455.665 87.595C456.899 88.2403 465.769 69.3237 460.893 58.3381C456.017 47.3524 451.024 45.4726 451.024 46.236C451.024 46.9993 452.787 50.3487 452.317 50.1722C451.847 49.9956 446.559 43.5927 432.519 42.3582C418.478 41.1248 414.072 51.4055 415.892 52.052C417.714 52.6985 426.643 42.7112 434.633 50.994C442.623 59.278 443.034 61.9212 449.555 63.7426C456.076 65.564 460.717 65.7406 459.894 71.2036C459.071 76.6678 457.473 88.0649 445.089 86.2435C434.336 84.662 384.159 62.1318 367.642 55.5974C366.513 55.1506 356.908 66.342 360.697 67.0482C364.486 67.7531 367.131 55.5037 366.227 54.3142C364.599 52.1713 363.761 53.2464 363.311 52.5816C359.903 47.529 358.964 26.8495 358.788 20.9165C358.612 14.9823 354.529 17.3918 353.736 28.2301C352.942 39.0684 352.193 53.7858 355.145 58.9846C358.098 64.1834 424.703 103.516 446.441 110.213C468.178 116.91 510.241 135.298 515.705 127.103C521.169 118.908 525.003 103.93 514.781 101.903C504.559 99.876 488.254 96.7008 486.403 93.7921C484.553 90.8835 485.434 82.468 483.363 80.8816C481.292 79.2952 472.48 81.0143 471.247 73.0822C470.013 65.1513 472.995 41.1236 481.571 33.603C490.148 26.0836 494.026 30.6067 495.788 38.9783C497.55 47.35 495.318 55.8689 497.081 56.1039C498.844 56.3389 505.247 54.106 505.952 59.5117C506.657 64.9163 501.899 73.0822 498.491 71.0855C495.083 69.0875 499.314 67.7373 499.314 68.9706C499.314 70.204 508.42 78.8995 509.183 78.7229C509.946 78.5464 516.174 67.8542 518.817 54.4006C521.46 40.9471 518.524 40.8886 518.464 42.475C518.406 44.0615 524.339 53.1673 524.104 65.2109C523.869 77.2546 519.756 81.5427 521.166 86.1254C522.576 90.7082 537.086 92.7049 535.736 93.4695C534.384 94.2329 528.098 82.1308 534.678 61.6862C541.257 41.2417 533.444 26.2017 525.572 24.5569C517.7 22.912 516.995 30.726 518.463 29.4915C519.931 28.2569 516.525 15.6264 499.076 17.5062C481.628 19.3861 476.576 32.6046 478.162 32.5462C479.748 32.4878 487.033 20.6206 496.609 27.7882C506.184 34.9557 500.897 47.2928 502.601 49.9956C504.304 52.6985 509.534 50.4656 510.121 57.985C510.709 65.5044 509.886 76.1966 510.002 83.5406C510.121 90.8847 512.526 91.8575 513.88 92.7938C521.694 98.1983 530.565 100.93 525.042 129.834C519.52 158.738 499.545 173.073 507.418 180.711C515.29 188.348 519.755 186.115 517.052 191.168C514.349 196.22 499.427 203.27 501.425 207.03C503.423 210.789 537.026 210.554 545.017 217.252C553.006 223.949 560.644 239.547 562.23 269.156C563.817 298.765 574.156 298.56 568.986 294.682C563.817 290.804 483.565 295.857 485.093 292.332C486.621 288.808 487.091 285.753 488.853 288.573C490.616 291.392 494.141 305.374 489.676 306.902C485.211 308.43 420.823 309.84 425.523 307.137C430.222 304.435 564.287 311.367 564.757 308.9C565.227 306.432 562.524 296.445 561.467 298.678C560.409 300.911 559.822 313.718 569.221 312.19C574.873 311.272 616.602 311.99 648.979 312.71" stroke="#231F20" stroke-width="1.70452" stroke-miterlimit="10"/>
</svg>
