<svg width="303" height="457" viewBox="0 0 303 457" fill="none" xmlns="http://www.w3.org/2000/svg">
<path d="M136.412 199.695C133.707 188.733 139.945 176.819 133.253 166.324C122.211 148.697 120.972 134.08 107.799 130C99.3805 127.404 92.047 128.801 87.1415 133.803C82.9035 138.467 77.2313 146.41 76.5273 154.892C75.8989 163.131 69.0291 183.959 73.5275 194.5C78.6179 206.762 80.0776 209.11 88.7637 217.638C99.5188 228.237 97.9195 225.241 108 227.511C115.565 229.228 128.953 256.258 133.254 251.255C138.802 245.341 139.665 213.151 136.412 199.695Z" fill="#EFE6E3"/>
<path d="M119.59 119.666C119.364 119.685 119.056 119.714 118.675 119.756C117.806 119.851 116.556 120.014 115.029 120.285C111.974 120.827 107.814 121.8 103.368 123.525C94.4709 126.977 84.4731 133.423 79.8541 145.411C74.6539 158.914 70.668 176.502 72.942 192.198L72.942 192.198C74.6754 204.186 80.0346 215.051 91.2025 222.245L91.013 222.539L91.2026 222.245C103.821 230.374 112.167 236.471 118.235 241.87C124.26 247.231 128.031 251.906 131.526 257.205C131.526 257.205 131.526 257.205 131.526 257.205L131.234 257.398C134.666 262.594 136.083 265.779 136.43 267.805L119.59 119.666ZM119.59 119.666L120.041 119.638C120.584 119.603 121.056 120.016 121.092 120.566M119.59 119.666L121.092 120.566M121.092 120.566C121.126 121.109 120.713 121.578 120.166 121.611L120.154 121.611L120.143 121.613C120.151 121.612 118.264 121.722 115.354 122.234C112.438 122.748 108.464 123.669 104.217 125.301C95.7289 128.563 86.104 134.686 81.6966 146.123L81.6965 146.124C76.609 159.339 72.6749 176.567 74.8975 191.926L74.8975 191.926C76.5536 203.34 81.6429 213.739 92.2692 220.582C105.01 228.788 113.426 234.944 119.554 240.394C125.725 245.886 129.585 250.674 133.178 256.115C136.838 261.659 138.339 265.136 138.73 267.414C138.95 268.704 138.851 269.651 138.585 270.376C138.32 271.101 137.88 271.635 137.369 272.084L137.188 272.244L137.273 272.47C137.375 272.742 137.572 273.031 137.836 273.323L137.837 273.324C138.201 273.725 138.693 274.118 139.294 274.449C141.123 275.467 143.893 275.854 147.036 274.166L147.036 274.166C148.273 273.502 149.031 272.884 149.449 272.309C149.878 271.72 149.954 271.168 149.808 270.69C149.669 270.234 149.345 269.903 149.085 269.696C148.951 269.59 148.826 269.51 148.734 269.455C148.64 269.4 148.577 269.37 148.577 269.37L148.573 269.369C148.083 269.13 147.878 268.536 148.117 268.043C148.355 267.552 148.949 267.348 149.442 267.587L149.442 267.586C149.444 267.587 149.446 267.588 149.448 267.589C149.56 267.646 149.991 267.862 150.513 268.238C151.104 268.663 151.764 269.261 152.14 269.987C152.505 270.692 152.608 271.525 152.084 272.49C151.547 273.48 150.333 274.638 147.975 275.906L121.092 120.566Z" fill="black" stroke="#E5DCD2" stroke-width="0.7"/>
<path d="M145.969 266.234C145.97 266.235 145.97 266.235 145.97 266.236C146.139 266.749 145.866 267.304 145.358 267.481C144.844 267.66 144.281 267.386 144.101 266.874L144.101 266.874L144.097 266.862C144.098 266.865 144.008 266.609 143.844 266.13C143.683 265.657 143.454 264.979 143.181 264.15C142.634 262.491 141.913 260.23 141.206 257.809C140.499 255.386 139.808 252.808 139.323 250.512C138.834 248.204 138.562 246.222 138.67 244.975L138.67 244.974C138.776 243.737 139.175 242.225 139.621 240.541L139.621 240.541C139.916 239.424 140.227 238.236 140.473 237.011L140.473 237.011C140.828 235.237 141.012 233.421 140.566 231.933C140.341 231.181 139.954 230.507 139.346 229.968C138.739 229.43 137.931 229.043 136.889 228.836C135.796 228.617 135.01 228.093 134.437 227.301C133.857 226.498 133.481 225.399 133.259 224.015C132.813 221.24 133 217.46 133.224 212.961C133.224 212.961 133.224 212.961 133.224 212.961L133.225 212.924C133.8 201.488 134.618 185.207 125.515 171.677C110.014 148.639 90.9812 146.374 90.5453 146.326C90 146.258 89.6151 145.765 89.678 145.227L89.6781 145.226C89.7414 144.681 90.2335 144.293 90.7754 144.359L90.7753 144.359L90.7873 144.36C90.7873 144.36 90.7875 144.36 90.7879 144.361C90.911 144.374 111.035 146.618 127.155 170.58C136.612 184.642 135.792 201.222 135.201 213.05C135.009 216.848 134.844 220.124 135.037 222.51C135.134 223.701 135.322 224.705 135.66 225.452C136.002 226.209 136.518 226.742 137.275 226.894L137.275 226.894C140.28 227.494 141.766 228.93 142.418 230.758C143.085 232.626 142.906 234.964 142.42 237.397C142.179 238.592 141.85 239.847 141.531 241.042L141.53 241.044L141.502 241.152C141.111 242.644 140.741 244.058 140.645 245.142L140.645 245.142C140.539 246.368 140.831 248.305 141.307 250.48C141.786 252.669 142.462 255.145 143.149 257.471C143.838 259.798 144.539 261.98 145.069 263.582C145.334 264.384 145.557 265.041 145.714 265.499C145.792 265.728 145.854 265.907 145.897 266.03C145.919 266.091 145.935 266.139 145.947 266.172L145.961 266.21L145.965 266.222L145.967 266.228L145.969 266.234Z" fill="black" stroke="#E5DCD2" stroke-width="0.7"/>
<path d="M223.898 256.12C206.314 252.978 185.579 251.57 165.416 252.114C131.709 252.857 98.826 258.74 82.4111 268.105C71.9375 274.095 67.9501 281.144 70.9938 287.894C74.104 293.897 83.8997 299.318 95.2373 304.171C106.296 308.837 121.382 312.926 139.83 314.304C161.176 316.031 183.971 314.383 202.991 311.128C226.597 307.118 245.696 300.655 257.06 293.062C265.607 287.371 269.182 280.87 265.647 274.643C261.845 266.88 245.431 260.035 223.898 256.12Z" fill="#EFE6E3"/>
<mask id="path-5-inside-1_925_2053" fill="white">
<path d="M147.892 235.976C147.625 236.666 146.851 237.008 146.166 236.741C145.477 236.474 145.135 235.7 145.401 235.015C145.417 234.972 151.168 220.091 156.669 213.269C159.289 210.016 163.435 204.088 166.135 195.673C168.84 187.248 170.095 176.318 166.938 163.053C164.119 151.22 158.757 142.511 152.172 136.219C144.023 128.432 133.986 124.325 124.587 122.584C123.864 122.451 123.38 121.752 123.512 121.024C123.645 120.296 124.344 119.816 125.072 119.949C134.919 121.774 145.448 126.091 154.016 134.279C160.953 140.907 166.595 150.053 169.548 162.434C172.834 176.246 171.512 187.669 168.683 196.49C165.85 205.319 161.504 211.538 158.755 214.946C153.511 221.45 147.911 235.936 147.892 235.975V235.976Z"/>
</mask>
<path d="M147.892 235.976C147.625 236.666 146.851 237.008 146.166 236.741C145.477 236.474 145.135 235.7 145.401 235.015C145.417 234.972 151.168 220.091 156.669 213.269C159.289 210.016 163.435 204.088 166.135 195.673C168.84 187.248 170.095 176.318 166.938 163.053C164.119 151.22 158.757 142.511 152.172 136.219C144.023 128.432 133.986 124.325 124.587 122.584C123.864 122.451 123.38 121.752 123.512 121.024C123.645 120.296 124.344 119.816 125.072 119.949C134.919 121.774 145.448 126.091 154.016 134.279C160.953 140.907 166.595 150.053 169.548 162.434C172.834 176.246 171.512 187.669 168.683 196.49C165.85 205.319 161.504 211.538 158.755 214.946C153.511 221.45 147.911 235.936 147.892 235.975V235.976Z" fill="black"/>
<path d="M147.892 235.976L148.545 236.229L148.592 236.107V235.976H147.892ZM146.166 236.741L146.42 236.089L146.419 236.088L146.166 236.741ZM145.401 235.015L146.054 235.269L146.059 235.257L146.063 235.244L145.401 235.015ZM156.669 213.269L157.214 213.708L157.214 213.708L156.669 213.269ZM166.135 195.673L165.469 195.459L165.469 195.459L166.135 195.673ZM166.938 163.053L167.619 162.891L167.619 162.891L166.938 163.053ZM152.172 136.219L151.689 136.725L151.689 136.725L152.172 136.219ZM124.587 122.584L124.715 121.895L124.714 121.895L124.587 122.584ZM125.072 119.949L125.2 119.26L125.197 119.26L125.072 119.949ZM154.016 134.279L153.532 134.785L153.532 134.785L154.016 134.279ZM169.548 162.434L170.229 162.272L170.229 162.272L169.548 162.434ZM168.683 196.49L169.349 196.704L169.349 196.704L168.683 196.49ZM158.755 214.946L158.211 214.506L158.21 214.506L158.755 214.946ZM147.892 235.975L147.261 235.673L147.192 235.816V235.975H147.892ZM147.239 235.724C147.112 236.054 146.742 236.214 146.42 236.089L145.912 237.393C146.959 237.801 148.139 237.277 148.545 236.229L147.239 235.724ZM146.419 236.088C146.089 235.96 145.928 235.591 146.054 235.269L144.749 234.761C144.341 235.808 144.865 236.988 145.914 237.394L146.419 236.088ZM146.063 235.244C146.06 235.253 147.491 231.545 149.613 226.979C151.739 222.403 154.522 217.047 157.214 213.708L156.124 212.829C153.315 216.313 150.472 221.808 148.343 226.389C146.21 230.98 144.758 234.734 144.74 234.786L146.063 235.244ZM157.214 213.708C159.868 210.413 164.067 204.408 166.802 195.887L165.469 195.459C162.803 203.767 158.709 209.62 156.124 212.829L157.214 213.708ZM166.802 195.887C169.543 187.349 170.807 176.288 167.619 162.891L166.258 163.215C169.383 176.348 168.138 187.148 165.469 195.459L166.802 195.887ZM167.619 162.891C164.77 150.932 159.342 142.101 152.656 135.713L151.689 136.725C158.172 142.92 163.468 151.508 166.258 163.215L167.619 162.891ZM152.656 135.713C144.386 127.811 134.215 123.655 124.715 121.895L124.46 123.272C133.758 124.994 143.659 129.053 151.689 136.725L152.656 135.713ZM124.714 121.895C124.371 121.832 124.137 121.498 124.201 121.149L122.824 120.898C122.622 122.006 123.358 123.07 124.461 123.272L124.714 121.895ZM124.201 121.149C124.264 120.805 124.596 120.574 124.947 120.637L125.197 119.26C124.092 119.059 123.026 119.787 122.824 120.898L124.201 121.149ZM124.944 120.637C134.689 122.443 145.084 126.711 153.532 134.785L154.499 133.773C145.813 125.47 135.148 121.104 125.2 119.26L124.944 120.637ZM153.532 134.785C160.368 141.317 165.944 150.342 168.867 162.597L170.229 162.272C167.245 149.764 161.537 140.497 154.499 133.773L153.532 134.785ZM168.867 162.596C172.121 176.275 170.81 187.568 168.016 196.276L169.349 196.704C172.215 187.771 173.547 176.217 170.229 162.272L168.867 162.596ZM168.016 196.276C165.218 204.998 160.925 211.141 158.211 214.506L159.3 215.385C162.084 211.934 166.482 205.639 169.349 196.704L168.016 196.276ZM158.21 214.506C155.529 217.832 152.787 223.15 150.729 227.59C149.695 229.821 148.826 231.847 148.213 233.318C147.907 234.054 147.665 234.652 147.499 235.067C147.416 235.274 147.352 235.436 147.308 235.547C147.287 235.602 147.27 235.645 147.259 235.673C147.236 235.73 147.247 235.701 147.261 235.673L148.524 236.277C148.539 236.245 148.561 236.186 148.562 236.185C148.573 236.157 148.589 236.115 148.611 236.06C148.654 235.951 148.717 235.792 148.799 235.587C148.963 235.177 149.203 234.585 149.506 233.856C150.113 232.397 150.975 230.388 151.999 228.179C154.056 223.741 156.737 218.564 159.3 215.385L158.21 214.506ZM147.192 235.975V235.976H148.592V235.975H147.192Z" fill="#E5DCD2" mask="url(#path-5-inside-1_925_2053)"/>
<path d="M120.62 248.994L120.606 248.988L120.591 248.984C120.622 248.993 112.72 246.048 105.822 246.153C99.827 246.241 95.6356 242.006 94.1106 240.174L93.9586 239.991L93.7327 240.065C91.3936 240.83 84.7574 242.811 76.4425 243.675C68.124 244.539 58.155 244.281 49.1322 240.597C39.0231 236.463 28.2834 230.926 19.5017 222.282C10.6846 213.602 3.85544 201.815 1.67552 185.227C0.059031 172.919 3.98298 161.575 9.92086 152.055C14.9721 143.964 21.5157 137.186 27.2967 132.29C30.1865 129.843 32.8824 127.869 35.101 126.439C37.3309 125.001 39.05 124.132 39.9939 123.867L39.9943 123.867C41.9274 123.321 43.1177 122.32 43.8272 121.207L43.8273 121.207C44.4598 120.213 44.7266 119.155 44.8223 118.286C44.9176 117.422 44.8458 116.723 44.7812 116.432L44.7809 116.431C44.6629 115.904 44.9967 115.377 45.5334 115.256C46.0618 115.14 46.5881 115.473 46.7091 116.008C46.781 116.337 46.8878 117.264 46.7673 118.435C46.6469 119.605 46.3023 120.994 45.4911 122.266L45.4911 122.266C44.5571 123.731 43.0312 125.07 40.5328 125.769L40.5327 125.769C39.5426 126.046 37.8524 126.923 35.7456 128.298C33.6272 129.681 31.0575 131.586 28.3009 133.949C22.7887 138.672 16.5154 145.232 11.6047 153.101C5.89665 162.249 2.07959 173.171 3.63316 184.973L3.98017 184.927L3.63317 184.973C5.75023 201.046 12.3519 212.47 20.8874 220.876L21.133 220.627L20.8874 220.876C29.4633 229.319 40.0009 234.735 49.8736 238.774L49.8737 238.774C59.7081 242.792 70.7255 242.57 79.2689 241.351C86.9073 240.262 92.6027 238.371 93.7691 237.965L93.7747 237.971L93.9831 237.896C94.393 237.749 94.8642 237.888 95.1247 238.262C95.1254 238.263 95.1261 238.264 95.1268 238.265L95.1286 238.268L95.1398 238.284C95.1489 238.297 95.1618 238.316 95.1784 238.339C95.2116 238.385 95.2601 238.452 95.3235 238.535C95.4502 238.702 95.6366 238.937 95.8796 239.217C96.3654 239.778 97.0795 240.523 97.9973 241.264C99.8297 242.744 102.5 244.23 105.799 244.179C112.995 244.072 121.09 247.061 121.298 247.138L121.302 247.139L121.352 247.157C121.831 247.365 122.07 247.912 121.891 248.408C121.701 248.921 121.133 249.183 120.62 248.994Z" fill="black" stroke="#E5DCD2" stroke-width="0.7"/>
<path d="M61.2977 113.446C61.2124 113.872 60.9809 115.186 61.0752 116.565C61.1322 117.398 61.307 118.224 61.6822 118.881C62.0504 119.525 62.6133 120.013 63.485 120.195C64.8841 120.486 66.6083 120.301 68.0117 120.03C69.4058 119.761 70.4393 119.416 70.4394 119.415L70.442 119.415L70.442 119.415C70.9606 119.246 71.2456 118.688 71.0779 118.169C70.9042 117.648 70.3505 117.365 69.8322 117.532C69.7868 117.548 68.8978 117.841 67.7387 118.077C66.5705 118.314 65.0737 118.506 63.8892 118.26L61.2977 113.446ZM61.2977 113.446L61.3266 113.316C61.4451 112.784 61.9742 112.449 62.5104 112.568C63.038 112.687 63.3722 113.216 63.2532 113.747L63.2447 113.785V113.788L63.2427 113.797C63.2365 113.827 63.2275 113.87 63.2166 113.924C63.1947 114.033 63.1648 114.188 63.133 114.375C63.0696 114.746 62.9973 115.246 62.9647 115.758C62.9325 116.263 62.9369 116.806 63.0409 117.251C63.1406 117.678 63.3688 118.152 63.8892 118.26L61.2977 113.446Z" fill="black" stroke="#E5DCD2" stroke-width="0.7"/>
<path d="M80.2121 33.5235L80.2127 33.5229V33.378C80.2127 32.8327 80.652 32.3879 81.1994 32.3879L81.2018 32.3879C81.7425 32.3842 82.1871 32.8248 82.1895 33.3712C82.1896 33.374 82.1896 33.3801 82.1896 33.3894C82.1921 33.8353 82.2358 41.6741 81.9275 50.1243C81.7692 54.463 81.5184 58.9569 81.1223 62.6912C80.9243 64.5587 80.6905 66.2305 80.4152 67.5953C80.1379 68.9702 79.8248 69.9989 79.4826 70.604L79.4825 70.6042C79.0702 71.3341 78.5779 72.7584 78.0471 74.6481C77.5127 76.5507 76.9299 78.96 76.3433 81.6863C75.17 87.1391 73.9788 93.8724 73.1272 100.379C72.5134 105.054 72.0771 109.593 71.9541 113.416C71.8318 117.221 72.0171 120.369 72.6782 122.226L72.6783 122.227C73.411 124.279 74.4352 125.906 75.6543 127.087L75.6544 127.087C76.8447 128.239 78.2253 128.97 79.6964 129.27C81.1735 129.574 82.7498 129.436 84.3153 128.881L84.3162 128.881C86.0328 128.266 87.7375 127.145 89.3038 125.524C92.2755 122.46 95.9111 115.831 99.346 108.146L99.0265 108.004L99.346 108.146C103.247 99.4169 106.89 89.296 109.044 81.2606L109.044 81.2604C113.076 66.1777 114.995 46.961 115.03 46.6032C115.086 46.057 115.568 45.6605 116.111 45.7132C116.657 45.7696 117.053 46.2526 117 46.795L117 46.7951C116.997 46.8233 116.992 46.8733 116.985 46.9442C116.775 48.9273 114.841 67.2411 110.954 81.7688L110.954 81.769C108.787 89.8781 105.099 100.112 101.151 108.949C97.5944 116.9 93.8251 123.697 90.7213 126.905C88.9184 128.764 86.9569 130.045 84.9835 130.745L84.9829 130.746C83.0665 131.43 81.1338 131.579 79.3035 131.207C77.4694 130.832 75.7515 129.932 74.2767 128.498L74.2757 128.497C72.8507 127.122 71.6567 125.255 70.8118 122.894C70.1203 120.955 69.8827 117.705 69.9867 113.688C70.0902 109.686 70.5306 104.97 71.1662 100.128L71.1662 100.128C72.0345 93.5037 73.2714 86.6043 74.5008 80.991C75.1156 78.1842 75.7278 75.7022 76.2903 73.7387C76.8562 71.7634 77.363 70.3452 77.7606 69.642C78.1191 69.0084 78.4103 67.961 78.6556 66.658C78.9033 65.3425 79.1112 63.7255 79.286 61.9236C79.6358 58.3192 79.8553 53.9525 79.9926 49.7335C80.2449 41.9802 80.2204 34.6949 80.2121 33.5235Z" fill="black" stroke="#E5DCD2" stroke-width="0.7"/>
<path d="M94.152 122.518L94.3353 122.22C93.8722 121.935 93.7243 121.328 94.008 120.861C94.2929 120.394 94.8981 120.246 95.3649 120.53C95.4388 120.576 95.5103 120.583 95.5298 120.585L95.53 120.585C95.5624 120.588 95.5916 120.587 95.612 120.586C95.6539 120.584 95.6991 120.577 95.7417 120.57C95.8291 120.555 95.9432 120.529 96.0765 120.496C96.3451 120.43 96.7164 120.327 97.1607 120.197C98.0505 119.936 99.2467 119.56 100.528 119.134L100.528 119.134C102.11 118.608 103.747 117.968 105.045 117.285C105.527 117.035 105.952 116.79 106.29 116.563C106.617 116.343 106.898 116.114 107.051 115.888L107.15 115.741L107.091 115.575C106.814 114.797 106.663 113.449 106.605 111.822C106.547 110.208 106.58 108.361 106.651 106.612C106.722 104.864 106.83 103.218 106.921 102.007C107.007 100.856 107.077 100.108 107.084 100.03C107.085 100.026 107.085 100.023 107.085 100.024L107.1 99.9035C107.199 99.4157 107.651 99.0711 108.155 99.1159C108.7 99.1656 109.1 99.6465 109.051 100.19L109.051 100.19C109.024 100.463 108.753 103.417 108.603 106.626C108.525 108.304 108.48 110.06 108.52 111.55C108.54 112.294 108.581 112.977 108.652 113.553C108.722 114.12 108.823 114.612 108.975 114.958C109.18 115.422 109.184 115.882 109.017 116.354L109.017 116.354C108.86 116.799 108.508 117.258 107.975 117.718C107.445 118.177 106.756 118.619 105.957 119.036L105.957 119.037C104.572 119.761 102.832 120.443 101.144 121.007C99.5571 121.532 97.9659 121.923 96.6943 122.132C96.0576 122.237 95.509 122.295 95.0851 122.304C94.873 122.308 94.6995 122.299 94.5657 122.281C94.4254 122.261 94.3571 122.233 94.3336 122.219L94.152 122.518ZM94.152 122.518C94.8178 122.922 98.0498 122.399 101.255 121.339L95.5491 120.232C94.9168 119.846 94.0949 120.046 93.7092 120.678C93.3251 121.311 93.5247 122.132 94.152 122.518Z" fill="black" stroke="#E5DCD2" stroke-width="0.7"/>
<path d="M28.7054 29.4703C28.7724 28.2962 31.248 25.98 34.3391 23.6034C38.8608 20.1181 44.5281 16.7671 46.3915 16.2958C48.1492 15.8597 49.704 14.1657 51.668 12.0223L51.68 12.0092C54.3369 9.11431 57.8279 5.3105 63.0831 3.35446C68.6002 1.30271 77.0226 4.29716 83.7169 6.67722L83.7446 6.68707L83.7561 6.69118C87.6222 8.06809 90.9403 9.24984 93.1302 9.24984C96.1341 9.24984 103.95 13.8655 110.573 20.6884L28.7054 29.4703ZM28.7054 29.4703C28.5963 31.4863 25.4432 33.6868 21.3978 36.5061L28.7054 29.4703ZM110.824 20.4446C115.552 25.3109 119.62 31.3006 120.744 37.5224C122.762 48.6979 127.304 59.4729 132.195 71.0665L131.872 71.2025L132.195 71.0666C134.115 75.6213 136.086 80.2985 137.985 85.1964C139.976 90.3302 140.832 94.3857 140.895 97.5394L140.895 97.5406C140.938 100.104 140.459 102.051 139.624 103.472L139.322 103.294L139.624 103.472C138.836 104.812 137.728 105.676 136.497 106.155L136.497 106.155C135.683 106.47 134.815 106.62 133.952 106.635C131.276 106.687 128.247 107.861 125.444 109.474C121.84 111.559 118.617 114.369 117.169 116.264L117.169 116.264C116.091 117.671 114.386 118.153 113.01 118.298C112.315 118.371 111.687 118.361 111.231 118.332C111.003 118.318 110.818 118.299 110.688 118.283C110.649 118.278 110.615 118.274 110.586 118.27C110.567 118.268 110.551 118.265 110.537 118.263L110.509 118.259H110.506L110.486 118.256L110.486 118.256L110.478 118.255C109.937 118.167 109.433 118.534 109.349 119.071L109.349 119.072C109.264 119.596 109.605 120.085 110.118 120.192L110.16 120.185L110.216 120.206C110.225 120.208 110.234 120.209 110.246 120.211C110.287 120.217 110.35 120.225 110.431 120.235C110.594 120.254 110.83 120.278 111.124 120.294C111.712 120.326 112.525 120.329 113.425 120.215C115.234 119.985 117.347 119.289 118.747 117.462C120.099 115.695 123.082 113.117 126.432 111.181L126.433 111.181C128.929 109.746 131.64 108.65 133.984 108.61M110.824 20.4446L133.99 108.96M110.824 20.4446C107.494 17.0135 103.863 14.1365 100.682 12.1152C99.0921 11.1045 97.6097 10.3045 96.3294 9.75594C95.0588 9.21148 93.9538 8.89984 93.1302 8.89984C92.0869 8.89984 90.7483 8.61629 89.166 8.14974C87.5899 7.68505 85.803 7.04863 83.8665 6.35896L83.862 6.35736L83.8618 6.35729L83.8239 6.34381C80.4879 5.15776 76.6973 3.81005 73.048 3.0152C69.3936 2.21923 65.8205 1.96301 62.9611 3.02641L62.961 3.02645C57.6268 5.01188 54.0878 8.86798 51.4362 11.7572L51.4101 11.7856L51.4099 11.7858C50.4241 12.8617 49.5584 13.8052 48.7221 14.5357C47.8863 15.2659 47.108 15.7574 46.3072 15.9561L46.3057 15.9565C45.8001 16.0843 45.0676 16.3974 44.2007 16.8337C43.3268 17.2736 42.2945 17.8501 41.1818 18.5194C38.9566 19.8579 36.3983 21.5744 34.1258 23.3259C32.5746 24.5185 31.1691 25.7026 30.1396 26.7414C29.6253 27.2604 29.1974 27.7506 28.8913 28.1935C28.5927 28.6256 28.3784 29.0569 28.3559 29.4503L28.3559 29.4514C28.3334 29.8673 28.1521 30.3202 27.7998 30.8228C27.4479 31.3249 26.9397 31.8563 26.2961 32.4246C25.0069 33.5629 23.2262 34.8052 21.1976 36.219L21.1974 36.2191L21.196 36.2202C17.8944 38.5245 13.8961 41.3151 10.7248 44.4578C7.56149 47.5927 5.15455 51.1418 5.15455 54.9722C5.15455 60.6422 6.87181 69.8779 9.06768 78.7419C10.3576 83.9551 11.8099 89.0351 13.1793 93.1927C14.5442 97.3362 15.8383 100.6 16.818 102.154C18.537 104.884 21.7689 106.481 24.5115 107.396C25.8912 107.856 27.1657 108.149 28.0967 108.328C28.5625 108.417 28.9431 108.478 29.2089 108.516C29.3417 108.536 29.446 108.549 29.518 108.558C29.554 108.563 29.582 108.566 29.6016 108.568L29.6254 108.571L29.6294 108.571C29.6308 108.571 29.6323 108.572 29.6337 108.572C30.177 108.637 30.5639 109.129 30.5012 109.666L30.5009 109.668C30.4416 110.21 29.951 110.601 29.4066 110.538L29.3864 110.535H29.3841L29.3727 110.534C29.3534 110.532 29.3242 110.528 29.2857 110.524C29.2088 110.514 29.0952 110.499 28.9491 110.478C28.6568 110.435 28.2347 110.366 27.7159 110.264C26.6777 110.06 25.2553 109.723 23.7112 109.19C20.6094 108.119 17.0801 106.28 15.1427 103.207C14.1484 101.623 12.8097 98.3006 11.3838 94.0116C9.96209 89.7349 8.46471 84.5318 7.14747 79.2142L6.80834 79.2983L7.14746 79.2142C4.90389 70.1595 3.16934 60.7577 3.16934 54.9705C3.16934 50.7287 5.58199 46.887 8.93407 43.461C12.2828 40.0385 16.517 37.0826 20.0684 34.6044L20.0686 34.6043L20.138 34.5558C21.8279 33.3749 23.3421 32.3167 24.4424 31.463C24.9993 31.0309 25.4607 30.6432 25.788 30.3126C25.9514 30.1475 26.0897 29.9886 26.1907 29.8386C26.2866 29.6961 26.3747 29.5244 26.3847 29.3402C26.4092 28.8958 26.5873 28.375 26.92 27.7868C27.2513 27.2013 27.7247 26.5684 28.3144 25.9042C29.494 24.5756 31.1142 23.1492 32.9191 21.759L32.9191 21.7589C35.2907 19.9312 38.0067 18.1252 40.394 16.7112C41.5875 16.0043 42.6958 15.3971 43.6354 14.9349C44.5813 14.4696 45.3362 14.1614 45.8298 14.0392L45.8316 14.0388C46.4147 13.8913 47.0452 13.4117 47.7032 12.7969C48.3737 12.1704 49.128 11.3482 49.9552 10.4458C52.7999 7.34435 56.4866 3.33121 62.271 1.1767C65.4028 0.0125311 69.1737 0.19415 73.0805 1.00132C76.9828 1.80755 80.9714 3.2265 84.5244 4.49257L84.5245 4.49261C86.3386 5.13834 88.035 5.74154 89.496 6.18289C90.948 6.62151 92.2065 6.91296 93.1336 6.91296C93.9503 6.91296 95.1091 7.2023 96.5218 7.77486C97.9265 8.34417 99.5537 9.1816 101.297 10.2496C104.785 12.3856 108.719 15.4317 112.248 19.0639M110.824 20.4446L112.248 19.0639M133.984 108.61C133.984 108.61 133.984 108.61 133.984 108.61L133.99 108.96M133.984 108.61C133.984 108.61 133.983 108.61 133.983 108.61L133.99 108.96M133.984 108.61C135.088 108.587 136.183 108.394 137.216 107.996M133.99 108.96C135.131 108.936 136.266 108.737 137.341 108.322M137.216 107.996C137.215 107.996 137.215 107.996 137.215 107.996L137.341 108.322M137.216 107.996C138.838 107.367 140.297 106.233 141.333 104.47L141.333 104.47C142.325 102.785 142.93 100.507 142.873 97.5092C142.812 94.1632 141.927 89.883 139.834 84.4885C137.943 79.6115 135.959 74.8946 134.018 70.3023L134.018 70.3021C129.191 58.863 124.671 48.1476 122.69 37.1771L123.035 37.115M137.216 107.996L137.341 108.322M137.341 108.322L123.035 37.115M123.035 37.115C125.007 48.0403 129.511 58.7191 134.341 70.166C136.281 74.7582 138.267 79.4795 140.161 84.3619C142.262 89.781 143.161 94.1031 143.223 97.5028C143.28 100.55 142.667 102.895 141.635 104.648L123.035 37.115ZM123.035 37.115C121.822 30.3927 117.524 23.9975 112.499 18.82C105.399 11.5124 96.6708 6.56296 93.1336 6.56296C91.3927 6.56296 88.2747 5.456 84.6419 4.16287L123.035 37.115ZM123.035 37.115L122.69 37.1771C121.495 30.5518 117.249 24.2173 112.248 19.0639M123.035 37.115L112.248 19.0639" fill="black" stroke="#E5DCD2" stroke-width="0.7"/>
<path d="M28.0602 56.8517C28.0404 56.9928 28.0141 57.1819 27.9825 57.415C27.9076 57.9671 27.8024 58.766 27.6804 59.7588C27.4365 61.7446 27.1257 64.5054 26.8561 67.6182C26.316 73.8515 25.9434 81.4685 26.5932 87.1023C26.8204 89.0588 27.1427 91.2646 27.6017 93.5493L27.6017 93.5496C28.6783 98.9326 30.5064 104.816 33.5605 109.213C36.7517 113.797 41.2115 116.748 47.4774 116.025L47.4779 116.025C47.9664 115.969 48.455 115.891 48.9424 115.796C56.7414 114.235 61.9358 112.348 65.1755 110.856C66.7954 110.11 67.9268 109.463 68.6509 109.004C69.0129 108.774 69.2731 108.592 69.4417 108.467C69.526 108.405 69.5873 108.358 69.627 108.326C69.6392 108.317 69.6493 108.308 69.6574 108.302C69.6624 108.298 69.6667 108.294 69.6701 108.291C69.671 108.291 69.6719 108.29 69.6726 108.289L69.6744 108.288L69.6874 108.277C70.1085 107.93 70.1691 107.304 69.8213 106.883L69.8209 106.883C69.4757 106.464 68.8499 106.405 68.4272 106.754L68.4208 106.759L68.4142 106.764C68.4178 106.761 68.1045 107.026 67.4096 107.461C66.7166 107.895 65.6426 108.499 64.1014 109.195C61.019 110.587 56.0679 112.347 48.558 113.85C48.5578 113.85 48.5575 113.85 48.5573 113.85L48.4886 113.507C48.0408 113.597 47.6182 113.664 47.2139 113.711L28.0602 56.8517ZM28.0602 56.8517H28.0639L28.1066 56.5508C28.1833 56.0102 28.686 55.6345 29.2262 55.7126L29.2286 55.7129C29.768 55.787 30.1433 56.2872 30.0653 56.8273L30.0654 56.8273L28.0602 56.8517Z" fill="black" stroke="#E5DCD2" stroke-width="0.7"/>
<path d="M50.0272 36.1372C49.5305 37.1841 47.1661 42.2426 44.889 48.6603C42.333 55.8642 39.9127 64.7135 40.3471 71.4749C40.819 78.7586 43.5421 86.4205 48.4793 92.6854L48.4794 92.6855C52.8246 98.2035 58.8867 102.646 66.6457 104.817L66.6462 104.817C67.1683 104.964 67.7172 104.655 67.8648 104.132C68.0119 103.606 67.7019 103.058 67.18 102.91C67.1798 102.91 67.1795 102.91 67.1793 102.91L67.2742 102.573C60.0337 100.548 54.3715 96.3974 50.311 91.2483L50.0272 36.1372ZM50.0272 36.1372L50.1175 35.9512C50.3564 35.46 50.9454 35.2558 51.4386 35.4912M50.0272 36.1372L51.4386 35.4912M51.4386 35.4912C51.9316 35.7315 52.1364 36.3208 51.8981 36.8108L51.8981 36.8108L51.8949 36.8177C51.8955 36.8164 51.8876 36.8328 51.865 36.8799C51.8444 36.9229 51.8144 36.9857 51.7756 37.0676C51.6981 37.2313 51.5854 37.471 51.4429 37.7793C51.158 38.3959 50.7537 39.2872 50.2721 40.3954C49.3091 42.6114 48.0363 45.6961 46.7905 49.186C44.3045 56.1495 41.9036 64.7849 42.327 71.3505L51.4386 35.4912Z" fill="black" stroke="#E5DCD2" stroke-width="0.7"/>
<path d="M85.0726 115.874L85.0725 115.874C83.0018 115.639 80.5779 115.687 78.8197 115.935C77.9684 116.057 77.2616 116.232 76.7839 116.438L85.0726 115.874ZM85.0726 115.874C86.2701 116.009 87.3637 116.255 88.2197 116.624C89.0827 116.995 89.6536 117.467 89.8925 118.022C89.9557 118.17 90.001 118.33 90.0252 118.499L90.0252 118.499M85.0726 115.874L90.0252 118.499M90.0252 118.499C90.2201 119.862 90.1476 120.744 90.0363 121.274C89.9807 121.538 89.9152 121.716 89.8678 121.821C89.8441 121.874 89.8247 121.91 89.8128 121.93C89.807 121.94 89.8027 121.947 89.8002 121.951L89.7975 121.955C89.4746 122.394 88.8635 122.495 88.4205 122.181C87.9774 121.867 87.8731 121.251 88.1882 120.803C88.2006 120.786 88.21 120.77 88.2171 120.756C88.2317 120.727 88.2399 120.701 88.2448 120.683C88.2541 120.648 88.2578 120.615 88.2597 120.589C88.2635 120.535 88.2629 120.46 88.2557 120.345C88.2412 120.113 88.1969 119.679 88.0799 118.856L88.0682 118.774M90.0252 118.499L88.0682 118.774M88.0682 118.774L88.0204 118.705M88.0682 118.774L88.0204 118.705M88.0204 118.705C87.9055 118.541 87.7057 118.438 87.5339 118.367C87.344 118.289 87.1071 118.22 86.8414 118.158C86.3083 118.032 85.618 117.926 84.8632 117.84L84.8629 117.84M88.0204 118.705L84.8629 117.84M84.8629 117.84C82.9423 117.622 80.7155 117.666 79.0975 117.893L79.0965 117.893M84.8629 117.84L79.0965 117.893M79.0965 117.893C78.4588 117.985 77.9175 118.104 77.5629 118.255L77.5629 118.255M79.0965 117.893L77.5629 118.255M77.5629 118.255L77.5613 118.256M77.5629 118.255L77.5613 118.256M77.5613 118.256C76.6984 118.629 76.5095 119.562 76.4903 120.239C76.4802 120.595 76.5146 120.928 76.5506 121.17C76.5688 121.291 76.5876 121.392 76.602 121.462C76.608 121.492 76.6133 121.516 76.6174 121.535M77.5613 118.256L76.6174 121.535M76.6174 121.535V121.578L76.6367 121.616C76.7396 122.133 76.4165 122.641 75.8984 122.765C75.3695 122.891 74.8375 122.566 74.7094 122.039L74.7087 122.036L74.706 122.024L74.6978 121.987C74.6909 121.956 74.681 121.909 74.6694 121.848C74.6464 121.728 74.6167 121.553 74.5912 121.338C74.5402 120.907 74.5069 120.324 74.5746 119.7C74.7102 118.453 75.2388 117.105 76.7838 116.438L76.6174 121.535ZM76.6259 121.572L76.6262 121.573L76.6259 121.572Z" fill="black" stroke="#E5DCD2" stroke-width="0.7"/>
<path d="M116.924 112.283C116.901 112.248 116.872 112.205 116.839 112.152C116.748 112.011 116.623 111.807 116.481 111.548C116.196 111.032 115.839 110.299 115.551 109.425C114.976 107.682 114.66 105.34 115.776 103.058L116.924 112.283ZM116.924 112.283V112.284L116.987 112.374C117.3 112.826 117.19 113.439 116.742 113.751L116.742 113.752C116.297 114.063 115.683 113.955 115.371 113.506L115.353 113.481L115.352 113.479C115.345 113.469 115.336 113.456 115.324 113.439C115.295 113.396 115.253 113.333 115.199 113.249C115.092 113.081 114.942 112.834 114.77 112.52C114.426 111.891 113.998 110.994 113.656 109.923C112.973 107.778 112.647 104.966 114.005 102.193L114.005 102.193C115.002 100.153 116.213 98.5222 117.439 97.4066C118.315 96.6182 119.203 96.0841 120.055 95.8176C121.032 95.5166 121.961 95.5621 122.793 95.9688L122.794 95.9693C123.194 96.1634 123.562 96.4388 123.894 96.806C124.085 97.0185 124.262 97.2537 124.428 97.5188L124.428 97.5188L124.429 97.521C125.314 98.9137 125.951 101.164 125.883 103.47L125.883 103.47C125.814 105.835 125.029 108.251 123.131 109.966L123.131 109.966C122.814 110.253 122.462 110.521 122.079 110.768C121.623 111.058 121.013 110.926 120.718 110.466C120.427 110.006 120.564 109.394 121.02 109.104L121.021 109.104C121.31 108.918 121.569 108.722 121.809 108.502C123.276 107.176 123.857 105.255 123.91 103.418L123.91 103.418C123.964 101.529 123.487 99.7069 122.767 98.579L122.767 98.579C122.658 98.4086 122.549 98.2612 122.434 98.1315L122.434 98.1314L122.427 98.1235C122.279 97.9662 122.114 97.8302 121.933 97.7407L121.933 97.7406L121.93 97.7392C121.538 97.5503 121.088 97.5671 120.635 97.7044L120.635 97.7044L120.63 97.7059C120.031 97.8968 119.393 98.2949 118.76 98.8684C117.693 99.8328 116.651 101.264 115.776 103.058L116.924 112.283ZM115.363 113.495L115.363 113.495C115.364 113.496 115.364 113.496 115.363 113.495Z" fill="black" stroke="#E5DCD2" stroke-width="0.7"/>
<path d="M131.122 261.492L131.121 261.489C131.034 260.973 130.561 260.618 130.04 260.674L129.979 260.685C129.979 260.685 129.972 260.686 129.957 260.688L129.895 260.699C129.84 260.709 129.76 260.723 129.655 260.742C129.445 260.779 129.139 260.834 128.745 260.908C127.957 261.054 126.821 261.271 125.419 261.556C122.615 262.126 118.751 262.966 114.487 264.052C105.946 266.226 95.8473 269.373 89.4451 273.279C86.8226 274.881 84.9108 277.046 83.945 279.521L83.9448 279.522C82.9289 282.111 82.9437 285.038 84.2759 288.037L131.122 261.492ZM131.122 261.492C131.217 262.032 130.852 262.544 130.314 262.636L130.314 262.636M131.122 261.492L130.314 262.636M130.314 262.636L130.308 262.637M130.314 262.636L130.308 262.637M130.308 262.637C130.308 262.637 130.284 262.641 130.227 262.651C130.172 262.661 130.092 262.675 129.989 262.693C129.782 262.73 129.479 262.785 129.09 262.857C128.313 263.002 127.194 263.215 125.815 263.495C123.057 264.054 119.257 264.878 115.069 265.939C106.706 268.058 96.7504 271.136 90.4725 274.968L90.4724 274.968M130.308 262.637L90.4724 274.968M90.4724 274.968C88.2486 276.326 86.6067 278.149 85.7887 280.241C84.9542 282.368 84.9843 284.781 86.08 287.238C87.2264 289.826 89.534 292.464 93.2059 294.945C101.145 300.32 115.307 304.868 137.95 306.448C166.041 308.408 192.904 307.276 213.705 303.548C223.635 301.77 232.17 299.418 238.761 296.543C245.34 293.674 250.035 290.261 252.206 286.329L252.206 286.329M90.4724 274.968L252.206 286.329M252.206 286.329C252.895 285.078 253.296 283.877 253.436 282.722L253.437 282.72C253.702 280.442 252.916 278.33 251.375 276.408M252.206 286.329L251.9 286.16C252.571 284.942 252.955 283.783 253.089 282.68C253.341 280.516 252.599 278.495 251.102 276.627M251.102 276.627L251.375 276.408M251.102 276.627C249.5 274.626 247.041 272.781 243.999 271.097C233.164 265.111 215.26 261.369 201.557 259.768C177.851 256.992 143.012 260.913 142.913 260.928C142.177 261.009 141.516 260.477 141.434 259.739C141.353 259.006 141.88 258.345 142.618 258.265C142.719 258.25 177.861 254.295 201.862 257.104C215.825 258.739 234.115 262.577 245.288 268.747L251.102 276.627ZM251.375 276.408C249.733 274.357 247.23 272.486 244.168 270.791L244.168 270.791C233.27 264.77 215.309 261.023 201.598 259.42C189.714 258.028 175.054 258.316 163.364 258.952C151.912 259.574 143.284 260.532 142.875 260.58M251.375 276.408L142.875 260.58M142.875 260.58L142.875 260.58C142.332 260.64 141.843 260.248 141.782 259.7C141.723 259.159 142.111 258.672 142.656 258.613L142.656 258.613L142.67 258.611C142.669 258.611 142.676 258.61 142.691 258.609C142.738 258.603 142.865 258.589 143.074 258.566C143.342 258.537 143.736 258.495 144.244 258.443C145.26 258.34 146.733 258.195 148.573 258.031C152.254 257.702 157.402 257.294 163.296 256.975C175.09 256.336 189.852 256.051 201.821 257.452C215.775 259.086 234.008 262.918 245.119 269.054C248.429 270.886 251.111 272.923 252.917 275.175C254.815 277.548 255.734 280.129 255.405 282.941C255.24 284.336 254.766 285.786 253.943 287.277C251.673 291.386 246.876 295.02 240.026 298.092C233.186 301.16 224.346 303.647 214.057 305.491C193.097 309.24 166.065 310.391 137.819 308.42L137.819 308.42C114.697 306.81 100.23 302.088 92.097 296.589C88.0675 293.858 85.5561 290.915 84.276 288.037L142.875 260.58ZM254.25 287.446C249.6 295.861 234.729 302.142 214.119 305.835C193.124 309.591 166.062 310.741 137.794 308.769L254.25 287.446Z" fill="black" stroke="#E5DCD2" stroke-width="0.7"/>
<path d="M132.928 264.568L132.928 264.569C132.928 264.568 132.925 264.569 132.918 264.571L132.907 264.574L132.843 264.589C132.787 264.602 132.706 264.622 132.599 264.648C132.387 264.7 132.077 264.777 131.681 264.877C130.889 265.078 129.756 265.372 128.381 265.747C125.63 266.499 121.911 267.576 118.02 268.885C114.127 270.196 110.069 271.736 106.635 273.411C103.186 275.094 100.421 276.888 99.0596 278.687C97.8286 280.316 96.9609 282.079 96.7277 283.911C96.5499 285.328 96.754 286.777 97.4694 288.23L97.4694 288.23C98.1534 289.62 99.3127 291.011 101.08 292.35C106.16 296.2 116.547 299.79 135.624 302.186L135.624 302.186C155.238 304.654 179.217 304.048 199.662 301.45L199.706 301.797L199.662 301.45C210.081 300.127 219.597 298.273 227.185 296.03C230.978 294.908 234.284 293.692 236.976 292.399C239.673 291.104 241.734 289.742 243.057 288.34C244.429 286.885 245.331 285.447 245.814 284.041L245.814 284.04C246.75 281.325 246.186 278.75 244.359 276.346L244.358 276.345C242.669 274.119 239.861 272.062 236.163 270.253L236.163 270.253C229.303 266.892 219.348 264.346 208.059 263.04C195.01 261.532 181.17 261.583 170.577 262.013C165.281 262.228 160.799 262.537 157.637 262.793C156.055 262.922 154.804 263.037 153.945 263.12C153.516 263.161 153.185 263.195 152.96 263.218C152.848 263.23 152.762 263.239 152.704 263.245L152.637 263.253C152.625 263.254 152.618 263.255 152.616 263.255L152.615 263.255L152.612 263.255C152.064 263.315 151.673 263.801 151.732 264.344L151.733 264.345C151.79 264.89 152.277 265.282 152.821 265.223C153.281 265.171 182.101 262.033 207.834 265.008L207.834 265.008C218.885 266.289 228.617 268.754 235.295 272.026C238.674 273.677 241.262 275.531 242.789 277.533L242.789 277.534C244.172 279.357 244.646 281.34 243.94 283.397L243.94 283.399C243.534 284.569 242.765 285.766 241.609 286.989C240.309 288.366 238.28 289.667 235.676 290.885C233.068 292.105 229.861 293.253 226.184 294.312C218.83 296.431 209.57 298.204 199.408 299.496C179.143 302.071 155.35 302.672 135.855 300.219C135.855 300.219 135.855 300.219 135.855 300.219L135.899 299.871M132.928 264.568L100.917 280.089C99.9244 281.4 99.215 282.794 99.0388 284.196C98.9147 285.189 99.0573 286.202 99.5521 287.21M132.928 264.568C133.458 264.442 133.992 264.769 134.118 265.298C134.244 265.827 133.914 266.362 133.384 266.488L133.382 266.489C133.384 266.488 133.262 266.518 133.06 266.567C132.853 266.618 132.552 266.692 132.168 266.789C131.4 266.983 130.302 267.267 128.971 267.627C126.309 268.348 122.713 269.378 118.959 270.617C115.206 271.857 111.289 273.308 107.986 274.873C104.702 276.429 101.965 278.126 100.638 279.877L100.638 279.877C99.6254 281.215 98.8782 282.667 98.6916 284.153L98.6915 284.153C98.5593 285.211 98.7121 286.293 99.2378 287.364M132.928 264.568L99.2378 287.364M135.899 299.871C117.342 297.542 107.296 294.142 102.475 290.491C101.021 289.387 100.08 288.289 99.5521 287.21M135.899 299.871C155.358 302.32 179.12 301.721 199.364 299.149M135.899 299.871L199.364 299.149M99.5521 287.21L99.2379 287.364C99.2378 287.364 99.2378 287.364 99.2378 287.364M99.5521 287.21L99.2378 287.364M199.364 299.149C219.665 296.567 236.328 292.069 241.355 286.749M199.364 299.149L241.355 286.749M241.355 286.749C242.487 285.551 243.223 284.396 243.609 283.284L241.355 286.749ZM151.384 264.382C151.304 263.645 151.836 262.988 152.574 262.907C152.659 262.897 181.95 259.67 208.099 262.693C219.41 264.001 229.408 266.554 236.317 269.938C240.04 271.76 242.901 273.846 244.637 276.134C246.524 278.616 247.124 281.311 246.145 284.154C245.642 285.618 244.709 287.098 243.312 288.58L151.384 264.382Z" fill="black" stroke="#E5DCD2" stroke-width="0.7"/>
<path d="M156.826 274.872L156.837 274.87L156.848 274.867C156.847 274.868 156.853 274.866 156.867 274.864C156.993 274.84 157.733 274.701 158.705 274.603C159.784 274.493 161.105 274.439 162.158 274.632C162.685 274.729 163.115 274.883 163.411 275.098C163.696 275.304 163.858 275.563 163.879 275.912C163.902 276.282 163.771 276.796 163.358 277.496C162.946 278.193 162.273 279.045 161.26 280.078L161.26 280.078C158.498 282.9 154.006 283.165 150.094 282.672C146.269 282.19 143.127 280.999 143.015 280.957C143.013 280.956 143.012 280.956 143.012 280.955L142.965 280.938C142.488 280.728 142.252 280.179 142.438 279.684C142.632 279.174 143.201 278.915 143.713 279.108L143.714 279.108C143.978 279.21 146.719 280.227 149.979 280.706C151.683 280.957 153.545 281.063 155.28 280.807C157.014 280.551 158.646 279.928 159.853 278.697C160.131 278.412 160.327 278.154 160.433 277.915C160.541 277.671 160.571 277.408 160.444 277.169C160.325 276.945 160.108 276.825 159.914 276.758C159.714 276.688 159.483 276.655 159.255 276.641C158.798 276.612 158.281 276.657 157.888 276.706C157.689 276.731 157.518 276.758 157.395 276.779C157.334 276.789 157.284 276.798 157.25 276.804L157.208 276.812L157.194 276.815L157.192 276.816C156.655 276.914 156.14 276.563 156.039 276.028C155.937 275.49 156.287 274.975 156.826 274.872Z" fill="black" stroke="#E5DCD2" stroke-width="0.7"/>
<path d="M147.115 288.862C140.942 287.716 136.245 286.056 135.183 285.666V285.665L134.957 285.58C134.447 285.386 134.188 284.817 134.381 284.305C134.574 283.795 135.143 283.535 135.656 283.729L135.656 283.728C135.907 283.826 140.774 285.67 147.37 286.911C154.104 288.179 162.692 288.828 170.014 286.3C172.804 285.337 174.619 284.516 175.769 283.821C176.899 283.138 177.462 282.531 177.599 281.96C177.75 281.33 177.363 280.901 177.047 280.671C176.763 280.465 176.459 280.357 176.373 280.33L176.373 280.33C175.857 280.167 175.57 279.609 175.735 279.089C175.904 278.568 176.458 278.285 176.978 278.45L176.978 278.449C176.981 278.451 176.984 278.452 176.988 278.453C177.148 278.507 177.821 278.734 178.583 279.142C179.448 279.605 180.319 280.248 180.649 281.022C180.807 281.393 180.844 281.8 180.686 282.258C180.524 282.725 180.151 283.269 179.443 283.883C178.021 285.114 175.333 286.554 170.656 288.169C163.043 290.797 154.146 290.167 147.115 288.862Z" fill="black" stroke="#E5DCD2" stroke-width="0.7"/>
<path d="M132.414 289.779L132.358 289.761C131.875 289.569 131.623 289.03 131.788 288.531C131.96 288.012 132.52 287.735 133.038 287.906L133.038 287.906L133.044 287.908C133.037 287.906 133.462 288.049 134.195 288.272C134.938 288.497 136.019 288.81 137.384 289.165C140.114 289.876 143.984 290.755 148.562 291.438C157.715 292.804 169.726 293.39 181.145 290.254C185.998 288.923 189.065 287.667 190.927 286.522C192.775 285.385 193.523 284.299 193.53 283.282C193.536 282.277 192.815 281.522 192.192 281.05C191.871 280.807 191.552 280.62 191.313 280.493C191.193 280.43 191.092 280.381 191.02 280.348C190.985 280.331 190.956 280.319 190.936 280.31L190.932 280.308L190.929 280.306L190.902 280.295C190.396 280.08 190.165 279.502 190.379 279C190.594 278.497 191.174 278.263 191.674 278.477L191.674 278.477L191.684 278.48L191.685 278.481C191.724 278.497 192.734 278.922 193.84 279.659C194.985 280.421 196.151 281.465 196.529 282.674C196.714 283.263 196.714 283.9 196.419 284.587C196.121 285.282 195.512 286.05 194.44 286.871C192.29 288.517 188.357 290.318 181.659 292.156L181.659 292.156C169.977 295.364 157.687 294.78 148.294 293.385C138.983 292.001 132.546 289.824 132.416 289.78L132.414 289.779Z" fill="black" stroke="#E5DCD2" stroke-width="0.7"/>
<path d="M123.734 279.991C123.472 280.24 122.694 281.007 121.873 282.096C120.857 283.442 119.803 285.246 119.538 287.15C119.277 289.025 119.778 291.025 121.93 292.831C124.107 294.657 127.986 296.295 134.506 297.342C135.043 297.426 135.548 297.062 135.637 296.52C135.72 295.984 135.353 295.478 134.814 295.39C134.814 295.39 134.814 295.39 134.814 295.39L134.87 295.044C114.194 291.725 125.381 281.637 125.414 281.608L123.734 279.991ZM123.734 279.991H123.734L123.835 279.898C124.24 279.526 124.865 279.554 125.232 279.953L125.232 279.953C125.605 280.358 125.577 280.983 125.177 281.35L125.177 281.35L123.734 279.991Z" fill="black" stroke="#E5DCD2" stroke-width="0.7"/>
<path d="M202.599 273.724C205.321 275.524 207.156 278.284 207.214 282.493C207.271 286.683 205.701 289.665 203.319 291.801C200.924 293.948 197.691 295.255 194.413 296.037C191.139 296.818 187.85 297.068 185.37 297.122C182.952 297.174 181.321 297.039 181.24 297.032C181.238 297.032 181.237 297.032 181.237 297.032L181.228 297.031L181.218 297.03C180.675 296.988 180.267 296.514 180.309 295.965C180.351 295.422 180.83 295.014 181.374 295.056L181.374 295.056L181.375 295.056L181.378 295.056L181.393 295.058L181.449 295.062C181.496 295.066 181.566 295.071 181.655 295.076C181.834 295.088 182.094 295.103 182.423 295.117C183.08 295.145 184.014 295.169 185.132 295.153C187.365 295.121 190.342 294.928 193.316 294.286C196.286 293.645 199.283 292.549 201.532 290.69C203.795 288.819 205.287 286.183 205.237 282.517C205.188 278.867 203.417 276.467 200.812 274.947C198.229 273.442 194.831 272.801 191.482 272.604C188.124 272.407 184.776 272.653 182.267 272.948C181.011 273.096 179.963 273.256 179.226 273.38C178.917 273.432 178.663 273.477 178.47 273.513V273.51L178.053 273.591C177.513 273.697 176.991 273.347 176.886 272.813L176.886 272.813L176.885 272.81C176.777 272.28 177.127 271.756 177.665 271.65L177.665 271.65L177.675 271.648C177.675 271.648 177.675 271.648 177.676 271.648C177.69 271.645 178.152 271.55 178.955 271.417C179.769 271.282 180.928 271.11 182.318 270.958C185.1 270.654 188.797 270.431 192.492 270.744C196.193 271.059 199.856 271.909 202.599 273.724Z" fill="black" stroke="#E5DCD2" stroke-width="0.7"/>
<path d="M275.575 364.045L275.572 364.042C275.354 363.985 274.707 363.81 273.749 363.508C272.538 363.127 270.812 362.538 268.737 361.705C264.587 360.04 259.037 357.395 253.421 353.475L253.421 353.475C248.222 349.843 245.074 345.876 243.669 341.929C242.15 337.672 242.689 333.438 244.799 329.738L244.799 329.738C245.52 328.475 246.322 327.58 247.216 326.983C248.113 326.385 249.084 326.099 250.122 326.028C252.158 325.888 254.484 326.576 257.059 327.336L257.107 327.35L257.107 327.35C258.824 327.86 260.651 328.398 262.651 328.818L262.651 328.818C263.927 329.086 265.137 329.323 266.443 329.578L266.459 329.582L266.459 329.582C270.996 330.47 276.694 331.587 281.665 333.103C284.15 333.861 286.465 334.723 288.369 335.711C290.265 336.696 291.788 337.825 292.648 339.137C293.562 340.532 294.227 342.474 294.687 344.747C295.148 347.025 295.407 349.659 295.495 352.454C295.706 359.017 294.947 366.425 293.585 372.331L293.585 372.331C292.287 377.954 291.045 383.951 290.506 389.38L290.506 389.38C289.947 394.956 290.147 399.891 291.721 403.27C293.242 406.527 295.455 410.415 297.293 413.499C298.212 415.04 299.035 416.377 299.63 417.331C299.928 417.808 300.168 418.189 300.334 418.452C300.383 418.529 300.425 418.595 300.461 418.651C300.486 418.691 300.508 418.725 300.526 418.754L300.577 418.834L300.591 418.855L300.594 418.861C300.595 418.862 300.596 418.863 300.596 418.864M275.575 364.045L302.15 419.454C301.531 419.854 300.699 419.672 300.3 419.05L300.609 418.886L300.601 418.872L300.598 418.867L300.596 418.864M275.575 364.045L275.668 364.068C276.199 364.202 276.521 364.743 276.384 365.271L276.384 365.274C276.25 365.803 275.711 366.124 275.179 365.989L275.179 365.99M275.575 364.045L241.801 342.588M300.596 418.864C300.892 419.322 301.505 419.453 301.96 419.16L301.961 419.16C302.42 418.865 302.554 418.253 302.259 417.793L302.251 417.781L302.251 417.779L302.241 417.764L302.191 417.685C302.147 417.617 302.083 417.516 302 417.386C301.836 417.126 301.598 416.749 301.304 416.277C300.716 415.335 299.902 414.014 298.996 412.496C297.186 409.462 295.001 405.627 293.512 402.434C292.08 399.366 291.954 394.735 292.473 389.572C293.003 384.257 294.236 378.325 295.514 372.77L295.514 372.769C296.909 366.733 297.683 359.128 297.469 352.392L297.469 352.392C297.28 346.387 296.296 341.087 294.308 338.054C293.386 336.647 291.823 335.4 289.813 334.292C287.808 333.186 285.384 332.233 282.771 331.401C277.545 329.737 271.61 328.573 266.844 327.64L266.843 327.64C266.422 327.556 266.01 327.475 265.612 327.396C264.635 327.204 263.75 327.029 263.056 326.883L263.056 326.883C261.181 326.489 259.416 325.969 257.788 325.49L257.667 325.454L257.667 325.454C254.444 324.504 251.736 323.711 249.355 323.96C247.028 324.204 244.97 325.455 243.084 328.753C240.682 332.959 240.078 337.751 241.801 342.588M300.596 418.864L241.801 342.588M257.008 327.686C258.723 328.196 260.563 328.738 262.579 329.16C263.857 329.429 265.07 329.666 266.375 329.922L257.008 327.686ZM257.008 327.686C251.778 326.141 247.907 324.999 245.103 329.912L257.008 327.686ZM252.097 355.38C263.505 363.348 274.685 366.224 275.082 366.326C275.089 366.328 275.092 366.329 275.093 366.329M252.097 355.38L275.754 363.729C276.472 363.91 276.909 364.642 276.723 365.359C276.542 366.077 275.811 366.51 275.093 366.329M252.097 355.38C246.44 351.434 243.025 347.064 241.472 342.705C239.712 337.766 240.331 332.869 242.78 328.58M252.097 355.38L242.78 328.58M275.093 366.329L275.194 365.994C275.193 365.993 275.189 365.992 275.182 365.991C275.181 365.99 275.18 365.99 275.179 365.99M275.093 366.329L275.179 365.99M275.179 365.99C274.715 365.87 263.619 363 252.297 355.093L252.297 355.093C246.684 351.177 243.324 346.862 241.801 342.588M242.78 328.58C246.634 321.837 251.362 323.23 257.759 325.116L257.766 325.118M242.78 328.58L257.766 325.118M257.766 325.118L257.883 325.153C259.513 325.633 261.267 326.149 263.128 326.54L257.766 325.118Z" fill="black" stroke="#E5DCD2" stroke-width="0.7"/>
<path d="M251.395 358.459L251.364 358.518C251.331 358.58 245.452 369.066 232.341 377.523C225.828 381.725 218.702 383.192 213.21 383.611C210.462 383.821 208.118 383.769 206.458 383.664C204.798 383.559 203.811 383.4 203.813 383.4L203.806 383.399L203.799 383.398C203.663 383.377 203.536 383.384 203.419 383.414L203.406 383.418L203.406 383.418L203.39 383.421C202.812 383.55 196.637 384.922 189.068 386.244C181.431 387.577 172.344 388.865 166.16 388.759C155.286 388.572 147.191 385.76 145.262 385.028L145.141 384.982L145.079 384.869C144.204 383.269 140.99 377.544 137.051 372.376C135.081 369.791 132.94 367.361 130.831 365.656C128.708 363.939 126.691 363.019 124.947 363.3C124.47 363.378 124.023 363.479 123.601 363.604L123.6 363.604C120.793 364.423 119.122 366.18 118.264 368.541L251.395 358.459ZM251.395 358.459C251.682 358.035 252.252 357.895 252.703 358.153L252.703 358.153C253.177 358.423 253.343 359.028 253.075 359.504L253.075 359.504C252.787 360.006 246.635 370.652 233.407 379.188C220.748 387.354 205.844 385.67 203.745 385.382L203.683 385.374L203.622 385.387C202.345 385.67 195.99 387.058 188.441 388.35C180.883 389.643 172.158 390.835 166.13 390.733C153.542 390.521 144.488 386.858 144.065 386.686L144.065 386.685C143.832 386.589 143.652 386.414 143.552 386.208L143.552 386.208L143.546 386.197C143.287 385.711 140.352 380.253 136.699 375.04C134.873 372.435 132.858 369.876 130.9 368.028C129.921 367.104 128.945 366.347 128.003 365.853C127.064 365.359 126.129 365.111 125.249 365.254L125.248 365.254C124.859 365.318 124.489 365.402 124.143 365.501L124.142 365.501C122.038 366.114 120.757 367.447 120.117 369.217L120.446 369.336M251.395 358.459L125.305 365.599C124.929 365.661 124.572 365.742 124.24 365.838C122.247 366.418 121.049 367.667 120.446 369.336M120.446 369.336C119.78 371.171 119.77 373.529 120.189 376.115M120.446 369.336L120.117 369.217C119.421 371.133 119.42 373.561 119.844 376.171M120.189 376.115L119.844 376.171M120.189 376.115C120.399 377.414 120.717 378.764 121.117 380.132L120.189 376.115ZM119.844 376.171C120.056 377.486 120.378 378.851 120.781 380.23L120.781 380.231C121.779 383.646 122.233 387.461 122.716 391.521L122.723 391.579M119.844 376.171L122.723 391.579M122.723 391.579L122.723 391.579L122.725 391.595C123.342 396.808 124.007 402.419 125.918 407.674L126.247 407.555L125.918 407.674C127.995 413.384 133.93 425.944 140.898 434.654C143.038 437.332 145.269 439.647 147.492 441.248C149.712 442.846 151.963 443.762 154.129 443.566C157.07 443.299 161.26 442.252 165.872 440.844C170.491 439.434 175.557 437.654 180.259 435.907C189.663 432.412 197.626 429.045 197.674 429.025M122.723 391.579L117.895 376.482C118.12 377.872 118.464 379.317 118.888 380.776L118.888 380.776C119.827 384.006 120.278 387.787 120.748 391.73L120.758 391.81L120.758 391.81C121.391 397.178 122.067 402.862 124.062 408.347L124.062 408.348C126.173 414.157 132.244 426.991 139.358 435.885C141.734 438.856 144.235 441.388 146.768 443.116C149.302 444.846 151.841 445.754 154.309 445.53C157.278 445.26 161.511 444.216 166.211 442.789C170.906 441.364 176.043 439.565 180.812 437.798C189.949 434.412 197.715 431.148 198.399 430.861C198.421 430.851 198.436 430.845 198.443 430.842M197.674 429.025C197.674 429.025 197.674 429.025 197.674 429.025L197.537 428.703L197.674 429.025ZM197.674 429.025C198.177 428.812 198.753 429.048 198.969 429.552M198.969 429.552C199.179 430.054 198.943 430.632 198.443 430.842M198.969 429.552C198.969 429.552 198.969 429.551 198.968 429.551L199.291 429.415L198.969 429.553C198.969 429.553 198.969 429.552 198.969 429.552ZM198.443 430.842C198.445 430.841 198.447 430.84 198.447 430.84L198.578 431.165L198.443 430.842ZM117.895 376.482C117.415 373.503 117.46 370.759 118.264 368.541L117.895 376.482Z" fill="black" stroke="#E5DCD2" stroke-width="0.7"/>
<path d="M238.101 456.194C237.715 456.826 236.899 457.031 236.266 456.645L179.11 442.132M238.101 456.194C238.482 455.566 238.282 454.745 237.65 454.364C237.575 454.317 212.225 438.799 195.765 443.472C181.051 447.647 179.116 442.151 179.11 442.132M238.101 456.194L237.802 456.011C237.802 456.012 237.802 456.012 237.802 456.012C237.802 456.012 237.802 456.012 237.802 456.012L238.101 456.194ZM179.11 442.132L178.773 442.224C178.775 442.231 178.778 442.242 178.783 442.256L179.11 442.132ZM176.607 443.087L176.607 443.087C176.607 443.088 176.608 443.09 176.608 443.092C176.618 443.118 176.665 443.238 176.764 443.423L176.852 443.336L176.854 443.334L176.607 443.087ZM176.607 443.087L176.606 443.086L176.604 443.087C176.604 443.086 176.603 443.084 176.603 443.083C176.553 442.95 176.526 442.814 176.519 442.679L176.75 442.448L176.904 442.879C176.912 442.908 176.921 442.936 176.932 442.964L176.653 443.07L176.607 443.087ZM177.504 441.684C177.505 441.684 177.505 441.684 177.506 441.684L177.38 441.357L177.503 441.685C177.504 441.685 177.504 441.684 177.504 441.684ZM196.393 445.712C196.393 445.712 196.392 445.712 196.392 445.712L196.488 446.048L196.393 445.712Z" fill="black" stroke="#E5DCD2" stroke-width="0.7"/>
<path d="M146.091 390.776L146.091 390.776L146.094 390.775C146.59 390.558 147.169 390.787 147.388 391.288L147.389 391.288C147.393 391.298 147.397 391.31 147.402 391.323C147.528 391.639 147.989 392.799 148.162 394.332C148.357 396.066 148.158 398.152 146.671 399.763L146.671 399.763C146.302 400.164 145.678 400.192 145.274 399.819L145.274 399.819C144.874 399.449 144.845 398.826 145.218 398.422L145.218 398.422C146.318 397.23 146.379 395.604 146.201 394.345C146.021 393.078 145.586 392.086 145.569 392.052L145.564 392.042C145.366 391.547 145.598 390.986 146.091 390.776Z" fill="black" stroke="#E5DCD2" stroke-width="0.7"/>
<path d="M149.114 397.214L149.113 397.213C148.727 396.83 148.724 396.202 149.109 395.817C149.496 395.43 150.121 395.43 150.507 395.813L150.507 395.813C150.508 395.813 150.508 395.814 150.509 395.815C150.635 395.939 154.603 399.867 158.451 404.855C160.401 407.384 162.314 410.176 163.679 412.876C165.051 415.586 165.845 418.155 165.624 420.255L165.624 420.256C165.569 420.796 165.083 421.193 164.539 421.137C163.996 421.082 163.602 420.597 163.659 420.053C163.868 418.062 163.022 415.635 161.702 413.159C160.375 410.669 158.534 408.07 156.676 405.716C154.816 403.36 152.932 401.241 151.51 399.708C150.798 398.941 150.203 398.32 149.783 397.89C149.573 397.675 149.407 397.507 149.293 397.392C149.236 397.335 149.191 397.291 149.161 397.26L149.126 397.226L149.117 397.216C149.115 397.215 149.114 397.214 149.114 397.214C149.114 397.214 149.114 397.214 149.114 397.214Z" fill="black" stroke="#E5DCD2" stroke-width="0.7"/>
<path d="M162.166 407.504L162.173 407.539L162.159 407.508C161.667 407.739 161.078 407.529 160.847 407.034L160.847 407.034L160.846 407.031C160.612 406.543 160.824 405.953 161.316 405.721L161.316 405.721L161.324 405.718C161.324 405.718 161.325 405.717 161.328 405.715C161.346 405.707 161.415 405.674 161.537 405.617C161.678 405.551 161.884 405.455 162.147 405.335C162.674 405.093 163.43 404.752 164.357 404.349C166.21 403.543 168.74 402.492 171.464 401.505C174.189 400.517 177.1 399.595 179.716 399.044C182.35 398.49 184.62 398.326 186.103 398.793L186.105 398.794C186.624 398.954 186.915 399.509 186.753 400.029L186.752 400.03C186.592 400.552 186.037 400.845 185.512 400.683C184.789 400.455 183.882 400.407 182.87 400.48C181.853 400.553 180.706 400.751 179.49 401.032C177.059 401.595 174.326 402.502 171.767 403.458C169.206 404.415 166.81 405.425 165.052 406.196C164.173 406.582 163.453 406.908 162.951 407.139C162.699 407.254 162.503 407.346 162.368 407.409C162.226 407.475 162.164 407.505 162.166 407.504Z" fill="black" stroke="#E5DCD2" stroke-width="0.7"/>
<path d="M123.185 372.736C123.185 372.736 123.185 372.736 123.185 372.736C122.845 373.165 122.223 373.236 121.793 372.898C121.365 372.557 121.294 371.935 121.635 371.506L121.653 371.484L121.657 371.479C121.672 371.461 121.694 371.434 121.724 371.4C121.784 371.331 121.874 371.233 121.991 371.116C122.225 370.883 122.564 370.582 122.984 370.304C123.828 369.747 124.957 369.312 126.217 369.662C127.385 369.988 128.14 371.09 128.661 372.678C129.179 374.254 129.427 376.192 129.658 378.016L129.658 378.017C129.682 378.198 129.705 378.378 129.731 378.556C129.984 380.528 128.736 382.187 127.321 383.395C126.621 383.992 125.901 384.46 125.354 384.78C125.081 384.94 124.852 385.061 124.692 385.143C124.612 385.184 124.549 385.214 124.506 385.235C124.49 385.242 124.477 385.248 124.468 385.253L124.236 385.316V385.337C123.792 385.438 123.322 385.22 123.121 384.79C122.894 384.295 123.108 383.706 123.599 383.473L123.602 383.472L123.615 383.466L123.655 383.447C123.689 383.431 123.738 383.408 123.798 383.377C123.919 383.317 124.09 383.228 124.294 383.115C124.699 382.889 125.238 382.561 125.77 382.156C126.299 381.752 126.834 381.262 127.22 380.706C127.606 380.15 127.861 379.501 127.772 378.798L127.771 378.796L127.77 378.787C127.747 378.614 127.724 378.442 127.701 378.266C127.523 376.859 127.326 375.308 127.05 374.075C126.912 373.459 126.75 372.903 126.552 372.477C126.365 372.075 126.099 371.683 125.693 371.57C124.992 371.375 124.339 371.723 123.917 372.038C123.697 372.202 123.516 372.375 123.39 372.506C123.327 372.572 123.277 372.628 123.242 372.668C123.225 372.688 123.211 372.705 123.201 372.716L123.19 372.73L123.187 372.735L123.186 372.736L123.185 372.736ZM124.449 385.262C124.448 385.262 124.449 385.262 124.45 385.261L124.449 385.262Z" fill="black" stroke="#E5DCD2" stroke-width="0.7"/>
<path d="M87.1908 289.524C87.1911 289.64 87.2226 295.964 88.3273 304.372C89.4375 312.822 91.6356 323.411 95.996 331.92L96.3075 331.76L95.996 331.92C100.385 340.483 105.621 348.98 109.763 355.341C111.834 358.522 113.633 361.17 114.916 363.027C115.557 363.955 116.069 364.685 116.423 365.186C116.599 365.436 116.736 365.628 116.83 365.759C116.931 365.902 116.968 365.953 116.962 365.944L117.069 366.115C117.271 366.537 117.149 367.051 116.756 367.335L116.756 367.335C116.315 367.654 115.696 367.553 115.376 367.11L115.374 367.107C115.137 366.779 103.012 349.931 94.2373 332.811C89.7864 324.126 87.5287 313.332 86.3858 304.68C85.8149 300.358 85.5231 296.577 85.3741 293.874C85.2996 292.522 85.2608 291.439 85.2406 290.693C85.2306 290.32 85.2251 290.031 85.2222 289.834C85.2208 289.736 85.22 289.661 85.2195 289.61L85.2191 289.551C85.219 289.538 85.219 289.532 85.219 289.531L85.219 289.531H85.219L85.219 289.529C85.2152 288.986 85.6528 288.541 86.2007 288.541L86.2031 288.541C86.7445 288.537 87.1882 288.974 87.1908 289.524ZM87.1908 289.524C87.1907 289.524 87.1907 289.523 87.1907 289.523H87.5407L87.1908 289.524C87.1908 289.524 87.1908 289.524 87.1908 289.524Z" fill="black" stroke="#E5DCD2" stroke-width="0.7"/>
<path d="M92.2485 336.459C91.7368 336.559 90.0468 336.952 88.481 338.045C87.5544 338.692 86.6821 339.577 86.1236 340.784C85.5664 341.988 85.3103 343.536 85.6528 345.529L85.6528 345.529C86.2926 349.264 85.5922 353.013 84.7579 357.454L92.2485 336.459ZM92.2485 336.459L92.3845 336.438C92.9216 336.354 93.4273 336.718 93.5159 337.259M92.2485 336.459L93.5159 337.259M93.5159 337.259C93.5991 337.794 93.2326 338.299 92.6972 338.389L92.6933 338.39L92.676 338.392C92.6624 338.395 92.6438 338.398 92.6205 338.402C92.5738 338.411 92.5076 338.423 92.4249 338.442C92.2597 338.478 92.0278 338.537 91.7539 338.624C91.2078 338.799 90.4855 339.094 89.7906 339.574C89.0947 340.055 88.4189 340.727 87.9824 341.655C87.5446 342.587 87.3593 343.752 87.6078 345.198C88.3031 349.251 87.5877 353.087 86.705 357.82L86.7048 357.821L86.7047 357.821L86.7025 357.833C86.0523 361.3 85.3117 365.249 85.0406 370.022C84.9154 372.149 85.4036 374.758 86.2959 377.629C87.1899 380.505 88.4978 383.668 90.0331 386.912L90.0332 386.912C94.8856 397.158 102.029 408.179 105.93 413.897C109.044 418.469 111.807 421.676 115.804 423.761C119.849 425.876 125.222 426.91 133.514 427.224L133.516 427.224C134.058 427.241 134.487 427.702 134.466 428.244L134.466 428.247C134.449 428.789 133.988 429.217 133.445 429.196L133.445 429.196C124.763 428.868 119.171 427.749 114.89 425.512C110.554 423.246 107.623 419.895 104.296 415.014L104.007 415.211L104.296 415.014C100.357 409.236 93.1479 398.12 88.244 387.753L88.2439 387.753C86.6316 384.348 85.2687 381.022 84.3424 377.974C83.4149 374.923 82.9318 372.174 83.0609 369.918L93.5159 337.259ZM83.0609 369.918C83.3446 365.008 84.0921 361.006 84.7578 357.454L83.0609 369.918Z" fill="black" stroke="#E5DCD2" stroke-width="0.7"/>
<path d="M106.581 359.643L106.576 359.63L106.571 359.617C106.351 359.122 106.58 358.54 107.08 358.321C107.582 358.103 108.161 358.332 108.379 358.83L108.379 358.83L108.38 358.833L108.38 358.833C108.385 358.844 108.462 359.019 108.587 359.326C108.715 359.643 108.895 360.1 109.098 360.658C109.505 361.776 110.006 363.3 110.389 364.936C110.773 366.576 111.036 368.312 110.975 369.861C110.913 371.415 110.529 372.724 109.678 373.575C106.27 376.984 104.586 376.176 104.372 376.073C104.343 376.06 104.341 376.058 104.363 376.081L104.343 376.061L104.319 376.044C103.873 375.724 103.771 375.106 104.091 374.659L104.092 374.658C104.407 374.217 105.028 374.112 105.468 374.428C105.486 374.441 105.504 374.452 105.522 374.461C105.577 374.488 105.628 374.495 105.666 374.497C105.735 374.499 105.788 374.48 105.809 374.472C105.855 374.454 105.893 374.428 105.919 374.41C105.978 374.369 106.069 374.296 106.222 374.16C106.53 373.886 107.124 373.325 108.276 372.173C109.003 371.446 109.194 370.245 109.143 368.974C109.091 367.681 108.785 366.211 108.406 364.835C107.651 362.093 106.572 359.618 106.581 359.643Z" fill="black" stroke="#E5DCD2" stroke-width="0.7"/>
<path d="M111.203 373.484C110.809 373.107 110.793 372.481 111.163 372.091L111.163 372.091C111.539 371.695 112.159 371.678 112.555 372.053L112.572 372.068L112.573 372.069L112.575 372.071C112.586 372.082 112.603 372.098 112.626 372.119C112.67 372.161 112.736 372.225 112.82 372.308C112.988 372.475 113.231 372.719 113.529 373.032C114.125 373.658 114.938 374.557 115.815 375.649C117.571 377.839 119.559 380.783 120.556 383.85C120.725 384.373 120.442 384.928 119.925 385.096C119.406 385.265 118.847 384.979 118.679 384.465C117.744 381.595 115.872 378.851 114.248 376.834C113.433 375.823 112.676 374.989 112.12 374.406C111.843 374.114 111.615 373.886 111.456 373.729C111.377 373.65 111.314 373.59 111.271 373.548C111.249 373.528 111.232 373.512 111.22 373.5L111.205 373.486L111.203 373.484Z" fill="black" stroke="#E5DCD2" stroke-width="0.7"/>
<path d="M89.9088 358.959L89.91 358.96C90.2942 359.344 90.9165 359.343 91.3049 358.957L91.308 358.954L91.3167 358.945L91.3481 358.913C91.3755 358.885 91.4158 358.844 91.4676 358.79C91.5712 358.683 91.721 358.527 91.9056 358.329C92.2751 357.933 92.7836 357.371 93.3414 356.707C94.4611 355.374 95.7624 353.648 96.5439 352.028C96.8943 351.297 97.1741 350.485 97.334 349.642L97.3342 349.642C97.5966 348.277 97.5607 346.829 97.0704 345.524C96.5576 344.173 95.5822 342.984 93.9548 342.197C93.3235 341.893 92.5982 341.65 91.7556 341.489L89.9088 358.959ZM89.9088 358.959C89.5185 358.572 89.5185 357.949 89.9049 357.563C89.914 357.554 90.7675 356.699 91.7969 355.479C92.8223 354.264 94.041 352.664 94.7643 351.168L94.7643 351.168M89.9088 358.959L94.7643 351.168M94.7643 351.168L94.7655 351.166M94.7643 351.168L94.7655 351.166M94.7655 351.166C95.0383 350.59 95.2615 349.95 95.3917 349.27C95.5861 348.258 95.5757 347.176 95.218 346.224L95.2176 346.222M94.7655 351.166L95.2176 346.222M95.2176 346.222C94.8722 345.312 94.2008 344.511 93.0991 343.977L93.0991 343.977M95.2176 346.222L93.0991 343.977M93.0991 343.977L93.0974 343.976M93.0991 343.977L93.0974 343.976M93.0974 343.976C92.6108 343.744 92.0447 343.559 91.386 343.435C90.8502 343.333 90.4982 342.814 90.6001 342.276L90.6001 342.276M93.0974 343.976L90.6001 342.276M90.6001 342.276C90.7015 341.739 91.2215 341.388 91.7555 341.489L90.6001 342.276Z" fill="black" stroke="#E5DCD2" stroke-width="0.7"/>
<path d="M258.402 362.599L258.497 362.425C258.761 362.041 259.275 361.889 259.718 362.089C260.217 362.317 260.433 362.899 260.205 363.397C260.146 363.524 259.689 364.606 260.425 365.989C261.181 367.409 263.148 369.049 267.836 370.305L267.837 370.305C268.366 370.445 268.68 370.99 268.539 371.517C268.399 372.043 267.854 372.359 267.329 372.215L267.328 372.215C261.187 370.574 259.027 368.103 258.343 366.141C257.686 364.256 258.349 362.722 258.399 362.605C258.402 362.599 258.403 362.597 258.402 362.599Z" fill="black" stroke="#E5DCD2" stroke-width="0.7"/>
<path d="M249.272 330.872L249.259 330.891L249.249 330.911C249.27 330.869 248.591 331.878 248.337 333.207C248.079 334.56 248.245 336.3 249.945 337.733L249.946 337.733C251.066 338.677 252.512 339.737 254.071 340.697C255.913 341.837 257.907 342.832 259.64 343.277C260.328 343.456 260.977 343.55 261.534 343.514C262.09 343.477 262.598 343.306 262.939 342.906C262.999 342.838 263.049 342.759 263.088 342.692C264.16 340.955 264.736 338.488 265.046 336.489C265.346 334.563 265.407 333.018 265.411 332.871L265.411 332.871C265.429 332.322 265.887 331.895 266.429 331.912C266.972 331.929 267.401 332.386 267.383 332.93L267.383 332.93V332.941C267.383 332.94 267.383 332.942 267.383 332.945C267.379 333.041 267.318 334.738 266.971 336.898C266.611 339.133 265.953 341.814 264.769 343.733C264.674 343.884 264.566 344.033 264.448 344.17L264.446 344.172C263.289 345.549 261.421 345.772 259.152 345.191C257.228 344.695 255.05 343.622 253.03 342.374C251.399 341.365 249.868 340.244 248.679 339.243L248.679 339.243C246.29 337.233 246.028 334.891 246.359 333.029C246.671 331.276 247.503 329.969 247.632 329.768L247.633 329.769C247.933 329.318 248.547 329.197 249.002 329.5C249.456 329.807 249.577 330.417 249.272 330.872Z" fill="black" stroke="#E5DCD2" stroke-width="0.7"/>
<path d="M207.199 380.61L207.198 380.608C207.079 380.075 207.416 379.549 207.949 379.433L207.95 379.433C212.013 378.536 215.928 375.788 219.502 372.219C223.081 368.644 226.347 364.215 229.11 359.905C234.527 351.455 238.038 343.414 238.199 343.036L238.199 343.036C238.417 342.535 238.998 342.305 239.502 342.523C240.002 342.746 240.229 343.324 240.011 343.828C240.01 343.83 240.008 343.833 240.007 343.837C239.831 344.238 236.209 352.525 230.539 361.253C227.64 365.715 224.213 370.281 220.445 373.965C216.674 377.652 212.588 380.43 208.374 381.361C207.839 381.477 207.315 381.142 207.199 380.61Z" fill="black" stroke="#E5DCD2" stroke-width="0.7"/>
<path d="M255.127 292.63L255.125 292.639L255.124 292.649C255.125 292.648 255.122 292.666 255.117 292.704C255.101 292.824 255.058 293.138 254.989 293.63C254.9 294.266 254.769 295.18 254.601 296.303C254.267 298.55 253.787 301.63 253.205 304.98C252.038 311.693 250.468 319.455 248.841 323.791L248.841 323.792C248.652 324.3 248.083 324.56 247.575 324.371L247.574 324.37C247.062 324.181 246.802 323.614 246.991 323.1C248.59 318.84 250.133 311.159 251.274 304.565C251.846 301.261 252.319 298.22 252.65 296.002C252.815 294.892 252.945 293.988 253.034 293.359C253.078 293.045 253.112 292.799 253.136 292.631C253.16 292.457 253.171 292.376 253.17 292.378L253.175 292.35V292.345C253.255 291.817 253.745 291.447 254.281 291.517C254.823 291.592 255.201 292.089 255.127 292.63Z" fill="black" stroke="#E5DCD2" stroke-width="0.7"/>
<path d="M255.271 282.043L255.031 282.282L255.189 281.983C254.705 281.727 254.521 281.126 254.778 280.64C255.035 280.159 255.635 279.974 256.112 280.226L256.116 280.229L256.123 280.233C256.129 280.236 256.138 280.241 256.15 280.248C256.174 280.262 256.213 280.286 256.264 280.32C256.366 280.39 256.519 280.504 256.713 280.677C257.101 281.023 257.652 281.606 258.278 282.545C259.53 284.422 261.081 287.721 262.213 293.375C263.316 298.893 261.331 305.91 259.025 311.606C256.813 317.072 254.339 321.241 254.141 321.576C254.139 321.579 254.137 321.582 254.136 321.585L254.135 321.585C253.855 322.051 253.252 322.204 252.78 321.926C252.314 321.645 252.163 321.038 252.439 320.572C252.502 320.468 254.945 316.396 257.134 311.067C258.238 308.378 259.281 305.361 259.919 302.367C260.556 299.377 260.794 296.387 260.27 293.762L260.27 293.761C259.251 288.679 258.016 285.755 257.017 284.09C256.518 283.257 256.077 282.738 255.751 282.423C255.588 282.265 255.454 282.158 255.356 282.088C255.307 282.054 255.268 282.028 255.238 282.011C255.224 282.002 255.212 281.995 255.203 281.99L255.194 281.985C255.192 281.984 255.194 281.985 255.195 281.985L255.203 281.99L255.215 281.998C255.223 282.003 255.252 282.025 255.271 282.043Z" fill="black" stroke="#E5DCD2" stroke-width="0.7"/>
</svg>
