<svg width="544" height="356" viewBox="0 0 544 356" fill="none" xmlns="http://www.w3.org/2000/svg">
<g clip-path="url(#clip0_925_1978)">
<path d="M16.5181 204C14.8514 257.5 2.21809 365.4 -34.9819 369C-72.1819 372.6 20.8514 370.5 72.0181 369L167.018 361.5L141.006 284.44C147.887 295.898 158.332 303.02 176.018 298.5C212.018 289.3 154.018 162.21 135.018 157C104.018 148.5 90.5183 223 90.5183 223C90.5183 223 65.8516 211.667 53.0183 176C38.5182 158 10.9179 138.4 16.5181 204Z" fill="#EFE6E3"/>
<path d="M-30.6182 352.678C-18.1096 351.986 -6.35985 351.205 4.16412 350.338C11.2136 286.435 4.99566 221.228 17.0373 158.073C18.8104 148.779 21.1127 139.252 26.8139 131.702C34.0557 122.112 45.6782 117.081 59.2977 112.475C61.7005 107.413 64.1042 102.35 66.507 97.2858C86.5215 103.512 105.102 114.295 120.437 128.585C119.311 130.56 118.185 132.535 117.059 134.512C99.3161 126.341 81.5733 118.172 63.8305 110.002C71.9986 100.179 77.5965 88.2402 79.9265 75.6809C83.4699 56.5812 79.8729 35.3888 90.0323 18.8326C95.8799 9.29995 106.058 2.54425 117.114 0.857236C132.835 -1.54075 148.281 5.82258 164.092 7.51342C170.128 8.15741 176.803 8.18707 181.34 12.2175C185.878 16.248 184.691 26.0036 178.622 26.0409C182.307 26.6093 183.728 31.5009 182.537 35.0338C181.344 38.5676 178.543 41.291 176.676 44.5195C174.979 47.4563 174.079 50.7738 173.195 54.0493C170.286 64.846 167.376 75.6446 164.465 86.4441C161.811 96.2906 158.734 106.812 150.801 113.22C142.867 119.629 128.51 118.793 124.39 110.599C121.08 115.548 117.773 120.498 114.465 125.445C104.498 115.737 92.5107 108.111 79.4911 103.197C77.6634 102.508 75.6186 101.692 74.8626 99.8895C72.9813 95.4083 80.7073 92.2735 81.0212 87.423C92.9815 91.1281 104.942 94.8313 116.904 98.5355C117.697 88.1713 132.802 85.4374 137.224 76.0321C138.762 72.7566 138.815 69.0161 139.291 65.4287C139.765 61.8423 140.875 58.0242 143.793 55.8827C146.708 53.7402 151.794 54.4952 152.812 57.9668C153.357 59.8299 152.626 61.8069 151.85 63.5867C148.516 71.2342 147.559 80.9343 138.876 84.8958C130.138 88.8852 142.296 65.1034 151.036 61.1131C152.747 60.3323 154.615 59.7419 155.959 58.4233C158.094 56.3296 158.396 52.9077 160.415 50.7011C162.652 48.2553 166.303 47.9433 169.512 47.1118C172.721 46.2802 176.253 43.9636 174.584 40.2211C174.412 33.6138 174.238 27.0064 174.066 20.399C174.03 19.066 173.983 17.6805 173.37 16.4977C172.215 14.2749 169.499 13.4586 167.062 12.8902C154.055 9.85782 140.827 7.77369 127.518 6.65891C120.392 6.0618 112.917 5.79961 106.412 8.77365C96.3306 13.3849 91.0524 24.5711 88.1989 35.2836C84.1751 50.3911 83.3388 66.3368 87.0678 83.184C82.8183 94.0983 78.8615 107.425 86.0545 116.67C89.3654 120.928 94.457 123.347 99.3917 125.528C105.62 128.283 111.912 130.895 118.259 133.364C131.142 138.375 145.222 143.546 152.59 155.241C156.767 161.874 158.209 169.815 159.569 177.535C163.207 198.189 166.845 218.842 171.12 237.505C171.357 239.821 171.596 242.138 171.834 244.457C170.49 241.669 169.655 238.639 169.383 235.557C171.65 236.762 174.39 236.432 176.931 236.069C201.455 232.566 225.982 229.065 250.508 225.562C254.164 233.382 256.021 242.034 256.728 250.283C268.864 250.708 280.968 243.772 286.737 233.086C289.643 233.611 292.166 235.402 295.012 236.195C297.856 236.989 301.606 236.274 302.563 233.481C297.561 230.407 292.56 227.334 287.56 224.26C289.568 225.78 291.797 227.007 294.155 227.892C289.613 224.542 284.69 221.052 279.049 220.874C277.219 220.816 275.393 221.118 273.615 221.552C267.521 223.043 261.391 226.126 255.454 224.787C253.551 225.898 251.646 227.008 249.74 228.119C252.019 235.725 252.981 243.724 252.569 251.653C225.675 261.505 200.905 279.649 172.478 283.129C168.495 283.617 157.909 282.409 153.996 281.521C147.784 280.113 141.088 272.294 137.352 267.135C130.899 258.221 126.091 242.537 123.022 231.968C120.532 223.389 118.041 214.809 116.561 210.753C118.882 232.892 127.461 254.341 141.046 271.975C142.717 274.144 144.496 276.318 145.35 278.919C146.051 281.051 146.082 283.336 146.107 285.58C146.344 306.4 146.581 327.218 146.817 348.036C133.055 350.868 118.714 350.859 104.958 348.005C117.629 347.903 126.025 334.879 130.21 322.917C136.315 305.468 138.734 286.739 137.168 267.577C148.93 267.011 160.043 273.099 171.787 273.978C183.37 274.844 194.658 270.614 205.502 266.455C218.075 261.634 230.645 256.811 243.894 251.878C251.686 252.599 259.694 250.719 266.352 246.607C267.862 245.675 269.323 244.622 270.999 244.038C273.55 243.146 276.34 243.422 279.035 243.643C293.971 244.868 308.991 244.019 323.953 243.172C321.79 234.262 319.628 225.352 315.826 216.138C283.641 214.257 251.377 213.759 218.755 215.634C214.201 220.886 209.646 226.138 205.09 231.39C209.806 226.437 214.71 221.143 216.237 214.477C216.836 211.859 216.878 209.152 216.917 206.467C217.177 188.868 217.438 171.267 219.886 153.64C250.983 152.139 282.135 151.842 314.713 154.765C314.541 174.206 314.877 193.651 318.377 213.65C321.537 214.039 324.696 214.428 327.856 214.819C331.692 198.005 336.496 181.412 342.234 165.148C343.386 161.881 344.62 158.55 346.858 155.904C349.57 152.696 353.49 150.802 357.318 149.071C371.259 142.773 385.629 137.423 402.19 135.062C401.99 131.722 401.788 128.383 401.586 125.043C413.816 120.501 426.631 117.534 439.611 116.235C443.986 115.798 448.713 115.629 452.428 117.98C456.142 120.331 457.878 126.164 454.688 129.185C437.452 129.003 420.203 130.303 403.189 133.069C403.063 129.971 402.936 126.875 402.81 123.778C402.775 122.952 402.712 122.05 402.152 121.441C401.565 120.8 400.61 120.679 399.741 120.671C393.605 120.609 387.07 123.994 381.647 121.12C375.841 118.045 375.381 110.05 375.699 103.488C376.343 90.1454 377.035 76.8034 378.306 63.1178C376.546 53.6732 375.042 43.9674 376.663 34.4979C378.285 25.0266 383.562 15.6959 392.223 11.5343C399.761 7.91244 408.704 8.65978 416.758 10.9161C424.813 13.1725 432.429 16.8336 440.523 18.9436C447.59 20.7856 455.28 21.5683 461.068 26.0227C468.411 31.678 470.718 42.0603 469.22 51.2073C467.724 60.3543 463.082 68.6314 458.662 76.7775C454.241 84.9245 449.887 93.4256 449.058 102.656C448.742 106.169 448.63 110.337 445.673 112.26C444.308 113.15 442.611 113.321 440.987 113.469C431.22 114.357 421.451 115.246 411.682 116.134C409.694 106.502 407.711 96.458 410.188 86.9379C411.222 82.9715 413.018 79.1707 413.378 75.0876C413.738 71.0036 412.165 66.3215 408.381 64.7464C404.596 63.1695 399.344 67.0535 400.926 70.8361C401.466 72.1251 402.593 73.0542 403.539 74.0858C407.721 78.6511 408.272 86.1341 404.803 91.2621C404.551 85.7972 404.278 80.2338 402.403 75.0943C400.53 69.9548 396.771 65.2105 391.562 63.536C388.221 62.4623 384.216 62.5484 381.82 59.983C377.551 55.4109 382.046 46.4965 377.38 42.3311C384.552 45.6401 392.839 44.7731 400.736 44.6449C408.635 44.5167 417.384 45.5922 422.642 51.4867C429.476 59.1438 427.277 71.1596 423.244 80.5955C419.213 90.0344 413.624 99.6283 417.982 109.977C429.536 110.642 441.088 111.308 452.641 111.973C449.495 118.56 453.339 126.753 459.274 131C465.212 135.247 472.683 136.555 479.847 137.956C487.011 139.359 494.482 141.134 499.903 146.02C505.897 151.419 508.325 159.638 510.374 167.442C516.203 189.643 521.111 212.088 523.173 234.716C524.53 250.166 523.35 273.255 512.182 284.016C510.482 285.654 505.803 286.087 503.584 285.28C500.614 252.585 503.673 215.2 496.528 183.157C507.578 238.725 495.054 300.047 509.273 353.289C451.225 357.496 415.672 356.197 354.814 350.951C358.492 334.765 356.786 321.833 360.269 305.605C361.058 301.932 361.837 298.256 362.606 294.579C369.548 261.368 374.568 226.24 376.289 192.357C374.329 217.983 370.995 244.971 366.545 270.282C364.208 283.569 326.353 317.795 318.769 258.852C315.206 248.978 317.28 238.006 320.219 227.929C322.625 219.677 325.586 211.585 329.075 203.73C326.52 221.39 325.074 239.209 326.247 257.579C325.323 263.308 325.641 269.233 327.17 274.831C284.366 277.554 241.426 278.141 197.916 276.152C193.428 276.398 188.941 276.642 184.453 276.886C184.141 279.699 181.775 282.153 178.975 282.568C227.961 283.486 276.968 283.126 328.075 280.396C335.291 279.383 339.919 271.7 340.472 264.433C341.027 257.166 338.634 250.048 337.237 242.896C333.251 222.491 337.374 201.351 343.503 181.485C347.232 169.396 352.231 156.824 362.479 149.406C369.308 144.463 377.749 142.369 386.012 140.696C407.911 136.264 430.256 134.05 453.144 136.738C464.163 137.026 475.619 137.421 485.392 142.515C504.145 152.289 510.621 175.541 514.477 196.336C519.166 221.635 522.708 248.119 514.311 272.788C512.199 276.795 508.782 280.101 504.71 282.081C503.732 282.557 502.7 282.968 501.877 283.675C499.72 285.532 499.591 288.761 499.535 291.607C499.33 301.92 497.881 312.209 495.23 322.177C492.749 331.511 489.201 341.33 492.08 350.551C492.488 351.856 493.103 353.218 494.304 353.87C495.249 354.384 496.385 354.363 497.46 354.328C500.207 354.237 518.441 354.517 543.615 354.964" stroke="black" stroke-width="1.5" stroke-linecap="round" stroke-linejoin="round"/>
<path d="M239.637 205.039H241.423V205.232H239.864V206.397H241.042V206.586H239.864V207.848H241.483V208.037H239.638V205.039H239.637Z" fill="#41393D"/>
<path d="M241.558 208.113H239.56V204.963H241.498V205.307H239.938V206.319H241.116V206.659H239.938V207.77H241.558V208.11V208.113ZM239.713 207.962H241.406V207.925H239.787V206.509H240.965V206.472H239.787V205.155H241.346V205.114H239.713V207.96V207.962Z" fill="#41393D"/>
<path d="M249.794 205.132V205.038H249.991L250.972 207.761H250.981L251.962 205.038H252.151V205.132L251.092 208.035H250.852L249.794 205.132Z" fill="#41393D"/>
<path d="M251.147 208.113H250.801L250.782 208.063L249.72 205.134V204.964H250.045L250.977 207.551L251.908 204.964H252.225L252.221 205.161L251.144 208.114L251.147 208.113ZM250.907 207.961H251.039L252.075 205.115H252.016L251.035 207.839H250.928L250.901 207.789L249.938 205.115L249.871 205.121L250.907 207.961Z" fill="#41393D"/>
<path d="M260.687 205.038H262.473V205.231H260.914V206.396H262.092V206.585H260.914V207.847H262.533V208.036H260.688V205.038H260.687Z" fill="#41393D"/>
<path d="M262.609 208.113H260.611V204.962H262.549V205.307H260.989V206.319H262.167V206.659H260.989V207.77H262.609V208.11V208.113ZM260.763 207.962H262.457V207.924H260.838V206.509H262.016V206.472H260.838V205.155H262.397V205.114H260.763V207.96V207.962Z" fill="#41393D"/>
<path d="M271.086 205.038H271.369L273.036 207.624H273.04V205.038H273.258V208.036H273.04L271.309 205.341H271.3V208.036H271.086V205.038Z" fill="#41393D"/>
<path d="M273.334 208.113H272.999L272.976 208.077L271.376 205.588V208.113H271.011V204.963H271.411L272.965 207.375V204.963H273.334V208.113ZM273.082 207.962H273.183V205.115H273.116V207.702H272.999L272.972 207.668L271.328 205.115H271.164V207.962H271.227V205.267H271.344L271.374 205.303L273.082 207.962Z" fill="#41393D"/>
<path d="M282.739 208.036V205.225H281.758V205.037H283.947V205.225H282.97V208.036H282.739Z" fill="#41393D"/>
<path d="M283.046 208.113H282.663V205.302H281.682V204.962H284.022V205.302H283.046V208.113ZM282.814 207.962H282.894V205.151H283.871V205.115H281.834V205.151H282.816V207.962H282.814Z" fill="#41393D"/>
<path d="M292.182 207.77V207.569H292.284C292.443 207.727 292.679 207.869 293.103 207.869C293.561 207.869 293.878 207.68 293.878 207.226C293.878 206.772 293.531 206.699 293.099 206.583C292.563 206.442 292.254 206.271 292.254 205.782C292.254 205.349 292.572 205.02 293.158 205.02C293.536 205.02 293.775 205.118 293.96 205.255V205.448H293.853C293.694 205.302 293.497 205.204 293.163 205.204C292.674 205.204 292.473 205.448 292.473 205.765C292.473 206.176 292.756 206.271 293.163 206.378C293.767 206.536 294.101 206.686 294.101 207.209C294.101 207.792 293.69 208.053 293.107 208.053C292.661 208.053 292.379 207.924 292.182 207.77Z" fill="#41393D"/>
<path d="M293.106 208.13C292.709 208.13 292.392 208.031 292.133 207.831L292.105 207.809V207.494H292.315L292.337 207.517C292.456 207.636 292.666 207.794 293.102 207.794C293.566 207.794 293.801 207.604 293.801 207.229C293.801 206.853 293.56 206.789 293.099 206.665L293.077 206.659C292.522 206.512 292.177 206.315 292.177 205.785C292.177 205.255 292.562 204.947 293.157 204.947C293.504 204.947 293.773 205.027 294.004 205.196L294.034 205.219V205.526H293.821L293.8 205.506C293.628 205.349 293.439 205.282 293.161 205.282C292.766 205.282 292.547 205.455 292.547 205.768C292.547 206.105 292.74 206.19 293.18 206.306C293.763 206.459 294.175 206.613 294.175 207.212C294.175 207.81 293.786 208.131 293.106 208.131V208.13ZM292.256 207.733C292.48 207.897 292.759 207.977 293.106 207.977C293.453 207.977 294.024 207.877 294.024 207.209C294.024 206.756 293.764 206.615 293.143 206.45C292.776 206.353 292.397 206.255 292.397 205.765C292.397 205.366 292.683 205.128 293.163 205.128C293.464 205.128 293.688 205.204 293.881 205.372H293.884V205.294C293.688 205.158 293.456 205.095 293.159 205.095C292.649 205.095 292.33 205.358 292.33 205.782C292.33 206.206 292.596 206.372 293.117 206.509L293.139 206.515C293.559 206.626 293.954 206.732 293.954 207.224C293.954 207.687 293.651 207.943 293.103 207.943C292.743 207.943 292.473 207.849 292.257 207.647V207.731L292.256 207.733Z" fill="#41393D"/>
<path d="M235.426 197.861C235.426 198.202 235.17 198.46 234.828 198.46C234.485 198.46 234.229 198.204 234.229 197.861L232.266 160.559H230.984L232.948 197.945C233.034 199.226 233.974 199.739 234.828 199.739C235.682 199.739 236.621 199.226 236.707 197.945L238.672 160.559H237.391L235.427 197.86L235.426 197.861Z" fill="#41393D"/>
<path d="M251.488 160.559H250.207V199.484H251.488V160.559Z" fill="#41393D"/>
<path d="M267.525 197.861C267.525 198.202 267.269 198.46 266.926 198.46C266.584 198.46 266.328 198.204 266.328 197.861L264.364 160.559H263.083L265.047 197.945C265.133 199.226 266.072 199.739 266.926 199.739C267.78 199.739 268.72 199.226 268.806 197.945L270.771 160.559H269.49L267.526 197.86L267.525 197.861Z" fill="#41393D"/>
<path d="M283.618 160.575H282.337V199.469H283.618V160.575Z" fill="#41393D"/>
<path d="M299.069 160.559H295.652V199.484H299.069C300.948 199.484 302.399 197.947 302.399 196.153V163.889C302.399 162.01 300.947 160.559 299.069 160.559ZM301.118 196.152C301.118 197.261 300.178 198.372 299.069 198.372H296.933V161.67H299.069C300.178 161.67 301.118 162.78 301.118 163.891V196.153V196.152Z" fill="#41393D"/>
<path d="M233.029 160.647H230.17V160.826H233.029V160.647Z" fill="#41393D"/>
<path d="M233.117 160.915H230.079V160.558H233.117V160.915Z" fill="#41393D"/>
<path d="M239.4 160.648H236.541V160.826H239.4V160.648Z" fill="#41393D"/>
<path d="M239.488 160.915H236.451V160.558H239.488V160.915Z" fill="#41393D"/>
<path d="M265.129 160.647H262.27V160.826H265.129V160.647Z" fill="#41393D"/>
<path d="M265.216 160.915H262.179V160.558H265.216V160.915Z" fill="#41393D"/>
<path d="M271.497 160.648H268.638V160.826H271.497V160.648Z" fill="#41393D"/>
<path d="M271.589 160.915H268.551V160.558H271.589V160.915Z" fill="#41393D"/>
<path d="M252.278 160.647H249.419V160.826H252.278V160.647Z" fill="#41393D"/>
<path d="M252.367 160.915H249.329V160.558H252.367V160.915Z" fill="#41393D"/>
<path d="M252.278 199.218H249.419V199.396H252.278V199.218Z" fill="#41393D"/>
<path d="M252.367 199.486H249.329V199.129H252.367V199.486Z" fill="#41393D"/>
<path d="M284.435 160.647H281.576V160.826H284.435V160.647Z" fill="#41393D"/>
<path d="M284.526 160.915H281.488V160.558H284.526V160.915Z" fill="#41393D"/>
<path d="M284.435 199.218H281.576V199.396H284.435V199.218Z" fill="#41393D"/>
<path d="M284.526 199.487H281.488V199.13H284.526V199.487Z" fill="#41393D"/>
<path d="M297.598 160.648H294.739V160.826H297.598V160.648Z" fill="#41393D"/>
<path d="M297.687 160.915H294.649V160.558H297.687V160.915Z" fill="#41393D"/>
<path d="M297.598 199.218H294.739V199.397H297.598V199.218Z" fill="#41393D"/>
<path d="M297.687 199.487H294.649V199.13H297.687V199.487Z" fill="#41393D"/>
</g>
<defs>
<clipPath id="clip0_925_1978">
<rect width="544" height="356" fill="white"/>
</clipPath>
</defs>
</svg>
