<svg width="465" height="269" viewBox="0 0 465 269" fill="none" xmlns="http://www.w3.org/2000/svg">
<mask id="path-1-outside-1_925_2423" maskUnits="userSpaceOnUse" x="37" y="15" width="424" height="253" fill="black">
<rect fill="white" x="37" y="15" width="424" height="253"/>
<path d="M459 195.466C459 195.466 284.984 191.939 271.367 192.482C257.751 193.024 235.148 185.7 229.702 188.955C224.255 192.211 222.893 194.923 218.264 195.737C213.634 196.551 200.063 186.738 196.637 188.119C193.21 189.498 186.402 197.636 180.955 197.908C175.509 198.179 147.459 184.072 137.928 185.428C128.396 186.785 40.7075 190.04 39.0735 188.684C37.4395 187.327 63.5829 152.874 63.5829 152.874C63.5829 152.874 56.5023 181.63 58.1363 182.987C59.7703 184.343 123.495 153.417 143.374 163.726C163.254 174.035 170.335 191.668 174.964 191.939C179.594 192.211 191.349 184.343 196.637 184.072C201.924 183.801 214.179 191.668 217.175 190.583C220.17 189.498 218.809 165.082 256.662 171.322C294.515 177.561 336.726 190.854 340.811 190.583C344.895 190.312 292.881 107.027 287.979 105.671C283.077 104.314 245.088 107.977 229.157 112.317C213.226 116.658 207.916 120.863 207.916 122.49C207.916 124.118 208.052 127.374 211.728 128.052C215.404 128.73 218.128 130.222 218.264 131.172C218.4 132.121 213.362 129.544 210.23 129.408C207.099 129.273 204.648 127.238 203.286 126.017C201.924 124.796 198.793 124.932 198.52 126.695C198.248 128.459 200.154 131.172 200.29 132.799C200.427 134.427 199.882 138.903 199.065 141.345C198.248 143.786 196.932 148.534 196.637 149.755C196.342 150.975 197.295 141.48 197.703 138.361C198.112 135.241 197.567 131.172 196.069 130.358C194.572 129.544 193.113 126.967 191.391 126.695C189.67 126.424 185.857 128.052 183.679 129.001C181.5 129.951 176.053 129.544 174.419 129.273C172.785 129.001 178.913 128.323 182.317 126.695C185.721 125.068 189.67 117.472 190.078 107.434C190.487 97.3966 189.261 87.766 186.81 83.968C184.359 80.17 167.884 73.2523 166.658 70.4038C165.433 67.5553 181.364 78.271 182.181 76.2364C182.998 74.2017 175.781 62.8078 176.87 61.7227C177.96 60.6375 187.627 77.7284 190.078 83.1541C192.529 88.5798 194.844 83.0185 194.844 81.1195C194.844 79.2205 194.435 54.8049 195.525 53.8554C196.614 52.9059 196.614 67.284 197.295 67.4196C197.976 67.5553 202.878 59.8237 203.286 60.5019C203.694 61.1801 200.427 67.9622 200.154 71.7602C199.882 75.5582 199.746 96.0402 201.244 96.1758C202.741 96.3114 209.277 78.1354 209.686 78.1354C210.094 78.1354 205.601 97.1253 205.737 99.2956C205.873 101.466 205.192 104.043 205.873 104.993C206.554 105.942 206.826 120.591 206.009 120.863C205.192 121.134 203.286 106.892 203.286 105.264C203.286 103.636 207.916 103.907 211.864 104.721C215.813 105.535 223.03 104.179 226.025 102.008C229.021 99.8382 228.204 102.28 233.786 101.737C239.369 101.195 246.45 101.059 246.722 95.2263C246.994 89.3937 245.088 90.4788 243.726 87.9016C242.365 85.3244 249.718 80.8482 247.947 75.2869C246.177 69.7256 242.365 70.1325 239.914 69.0473C237.463 67.9622 245.633 54.9405 241.82 49.5148C238.008 44.0891 233.65 44.7674 231.336 43.6822C229.021 42.5971 225.344 22.522 216.494 22.2507C207.643 21.9795 206.962 27.8121 204.511 28.4903C202.061 29.1685 188.036 15.7399 183.134 17.0963C178.232 18.4528 178.096 26.5913 177.143 28.8972C176.19 31.2031 164.343 30.118 161.212 32.6952C158.08 35.2724 158.08 40.1555 158.352 43.2753C158.625 46.3951 148.412 51.5495 147.459 58.0603C146.506 64.5711 150.999 67.1483 150.999 68.6404C150.999 70.1325 144.6 82.3403 144.6 86.8165C144.6 91.2927 153.587 91.2927 154.131 94.0055C154.676 96.7184 151.953 100.245 152.77 102.822C153.587 105.399 163.799 102.958 167.067 103.365C170.335 103.772 168.02 105.985 171.424 107.455C174.828 108.926 182.453 104.314 185.993 103.907C189.534 103.5 192.665 105.128 192.665 106.349C192.665 107.57 190.759 122.219 188.853 123.44C186.946 124.661 172.785 111.91 143.238 101.601C113.691 91.2927 108.789 91.2927 108.789 91.2927C108.789 91.2927 85.3689 114.352 76.1098 133.071C66.8507 151.789 65.7614 158.029 65.7614 158.029C65.7614 158.029 76.1098 138.767 85.3689 130.358C94.628 121.948 99.5298 118.964 99.5298 118.964C99.5298 118.964 111.503 93.9791 109.061 93.7342C106.62 93.4893 96.0445 116.004 96.8066 118.15C97.5687 120.296 160.258 120.32 180.138 143.108C200.018 165.896 195.661 181.359 194.844 181.359C194.027 181.359 184.496 145.007 154.54 137.682C124.584 130.358 91.9047 136.597 90.5431 139.853C89.1815 143.108 148.548 131.985 167.339 150.975C186.129 169.965 187.491 180.817 186.402 182.173C185.312 183.529 165.433 151.247 140.379 150.704C115.325 150.161 108.244 152.874 107.155 155.316C106.066 157.757 150.727 152.06 165.705 166.981C180.683 181.902 178.361 182.987 182.317 185.428C186.273 187.87 192.393 180.274 199.746 182.444C207.099 184.615 216.085 188.141 216.358 186.785C216.63 185.428 222.076 162.098 236.782 161.827C251.488 161.555 305.136 171.864 310.038 169.965C314.94 168.066 244.407 153.146 232.425 156.944C220.443 160.742 214.996 178.646 212.273 179.731C209.549 180.817 212.273 165.353 215.813 160.199C219.353 155.045 242.229 146.635 258.568 150.433C274.908 154.231 295.877 155.587 297.783 153.417C299.689 151.247 263.198 142.837 244.135 145.278C225.072 147.72 212.545 154.773 209.277 162.912C206.009 171.05 207.099 174.034 204.375 174.306C201.652 174.577 199.746 170.779 199.201 167.795C198.656 164.811 212.817 147.177 225.344 143.379C237.871 139.581 298.328 127.102 300.234 127.916C302.14 128.73 334.131 181.913 334.547 185.7C334.963 189.486 333.185 196.551 327.467 200.349C321.748 204.147 233.242 198.45 233.242 207.674C233.242 216.897 320.114 217.983 316.301 227.478C312.489 236.973 256.39 221.781 253.394 227.749C250.398 233.717 283.894 240.499 283.622 244.297C283.35 248.095 258.568 241.042 258.568 245.654C258.568 250.265 271.912 251.622 271.095 254.877C270.278 258.133 255.028 253.25 255.3 258.404C255.573 263.558 259.385 266 259.385 266"/>
</mask>
<path d="M459.03 193.966C459.859 193.983 460.516 194.668 460.5 195.496C460.483 196.325 459.798 196.982 458.97 196.966L459.03 193.966ZM196.637 188.119L197.197 189.51L197.197 189.51L196.637 188.119ZM63.5829 152.874L62.3879 151.968C62.8179 151.401 63.5869 151.214 64.2289 151.521C64.8709 151.827 65.2094 152.542 65.0393 153.233L63.5829 152.874ZM203.286 126.017L204.287 124.9L203.286 126.017ZM191.391 126.695L191.157 128.177L191.157 128.177L191.391 126.695ZM203.286 60.5019L204.571 59.728L203.286 60.5019ZM204.511 28.4903L204.111 27.0446L204.511 28.4903ZM171.424 107.455L172.018 106.078L172.019 106.078L171.424 107.455ZM108.789 91.2927L107.737 90.2238C108.017 89.9475 108.395 89.7927 108.789 89.7927V91.2927ZM65.7614 158.029L67.0828 158.739C66.7344 159.387 65.9669 159.687 65.2712 159.446C64.5755 159.206 64.1572 158.496 64.2838 157.771L65.7614 158.029ZM99.5298 118.964L100.883 119.612C100.757 119.874 100.558 120.094 100.31 120.245L99.5298 118.964ZM244.135 145.278L244.325 146.766L244.135 145.278ZM260.194 264.737C260.892 265.184 261.095 266.111 260.648 266.809C260.202 267.507 259.274 267.71 258.576 267.263L260.194 264.737ZM459 195.466C458.97 196.966 458.969 196.966 458.968 196.966C458.966 196.966 458.964 196.966 458.962 196.966C458.956 196.965 458.948 196.965 458.938 196.965C458.917 196.965 458.885 196.964 458.843 196.963C458.76 196.961 458.635 196.959 458.47 196.956C458.14 196.949 457.651 196.939 457.012 196.926C455.734 196.9 453.859 196.863 451.466 196.815C446.682 196.72 439.831 196.584 431.568 196.423C415.042 196.101 392.865 195.677 370.263 195.27C325.015 194.456 278.178 193.712 271.427 193.981L271.308 190.983C278.173 190.709 325.153 191.458 370.317 192.271C392.921 192.678 415.099 193.102 431.626 193.424C439.89 193.585 446.741 193.72 451.526 193.816C453.919 193.863 455.795 193.901 457.073 193.927C457.712 193.94 458.201 193.95 458.531 193.956C458.696 193.96 458.82 193.962 458.904 193.964C458.946 193.965 458.978 193.965 458.999 193.966C459.009 193.966 459.017 193.966 459.022 193.966C459.025 193.966 459.027 193.966 459.028 193.966C459.03 193.966 459.03 193.966 459 195.466ZM271.427 193.981C264.421 194.26 255.167 192.522 247.221 191.18C243.197 190.501 239.504 189.92 236.488 189.705C234.982 189.598 233.691 189.586 232.641 189.687C231.568 189.791 230.875 190.001 230.471 190.243L228.932 187.668C229.89 187.095 231.094 186.823 232.353 186.701C233.635 186.578 235.11 186.6 236.701 186.713C239.881 186.939 243.711 187.545 247.721 188.222C255.842 189.593 264.697 191.246 271.308 190.983L271.427 193.981ZM230.471 190.243C227.833 191.82 226.268 193.207 224.57 194.466C222.866 195.73 221.152 196.753 218.524 197.215L218.004 194.26C220.005 193.908 221.287 193.167 222.783 192.057C224.284 190.943 226.124 189.346 228.932 187.668L230.471 190.243ZM218.524 197.215C217.66 197.366 216.715 197.256 215.812 197.049C214.888 196.838 213.886 196.497 212.861 196.09C210.815 195.279 208.518 194.142 206.334 193.06C204.114 191.96 202.017 190.922 200.265 190.238C199.39 189.897 198.658 189.666 198.08 189.557C197.794 189.502 197.575 189.483 197.415 189.485C197.253 189.488 197.193 189.512 197.197 189.51L196.076 186.727C196.909 186.392 197.844 186.458 198.64 186.609C199.478 186.769 200.405 187.072 201.356 187.444C203.257 188.186 205.485 189.291 207.665 190.371C209.88 191.468 212.058 192.545 213.966 193.302C214.918 193.679 215.763 193.961 216.48 194.125C217.218 194.293 217.711 194.311 218.004 194.26L218.524 197.215ZM197.197 189.51C196.572 189.762 195.663 190.391 194.442 191.365C193.853 191.834 193.228 192.353 192.563 192.905C191.902 193.453 191.204 194.031 190.488 194.601C189.063 195.738 187.521 196.882 185.959 197.764C184.411 198.637 182.726 199.321 181.03 199.406L180.881 196.409C181.908 196.358 183.116 195.923 184.484 195.151C185.837 194.387 187.233 193.36 188.618 192.256C189.308 191.706 189.985 191.145 190.648 190.596C191.306 190.05 191.955 189.51 192.572 189.019C193.761 188.071 194.988 187.165 196.077 186.727L197.197 189.51ZM181.03 199.406C180.088 199.453 178.849 199.199 177.538 198.841C176.177 198.469 174.556 197.93 172.771 197.294C169.216 196.027 164.852 194.313 160.448 192.666C156.012 191.007 151.493 189.398 147.504 188.289C143.447 187.161 140.18 186.623 138.139 186.913L137.716 183.943C140.441 183.556 144.255 184.272 148.308 185.399C152.429 186.545 157.05 188.192 161.499 189.856C165.979 191.532 170.245 193.209 173.778 194.468C175.538 195.096 177.077 195.604 178.329 195.947C179.632 196.303 180.461 196.43 180.881 196.409L181.03 199.406ZM138.139 186.913C133.272 187.606 108.857 188.761 85.5914 189.573C73.9279 189.98 62.5051 190.302 53.8921 190.438C49.5877 190.506 45.973 190.527 43.3771 190.489C42.0824 190.47 41.0204 190.435 40.2456 190.382C39.862 190.356 39.5188 190.323 39.2414 190.28C39.1046 190.258 38.9517 190.229 38.8035 190.187C38.7117 190.161 38.3998 190.074 38.1154 189.838L40.0316 187.53C39.8928 187.415 39.7689 187.358 39.7232 187.338C39.6676 187.314 39.6293 187.303 39.6215 187.301C39.6071 187.297 39.6288 187.304 39.7062 187.316C39.857 187.339 40.1002 187.365 40.4508 187.389C41.1448 187.437 42.1436 187.47 43.4216 187.489C45.9711 187.527 49.5496 187.506 53.8448 187.438C62.4308 187.303 73.8324 186.981 85.4868 186.574C108.857 185.759 133.052 184.607 137.716 183.943L138.139 186.913ZM38.1154 189.838C37.5435 189.363 37.4962 188.715 37.5002 188.44C37.5048 188.126 37.5786 187.833 37.6472 187.612C37.7894 187.155 38.0363 186.621 38.3272 186.063C38.9199 184.925 39.8389 183.419 40.9557 181.699C43.1974 178.247 46.3296 173.789 49.4987 169.393C52.6709 164.993 55.893 160.637 58.3212 157.382C59.5355 155.754 60.5517 154.401 61.2646 153.455C61.621 152.982 61.9016 152.61 62.0932 152.357C62.189 152.23 62.2626 152.133 62.3123 152.067C62.3371 152.035 62.3559 152.01 62.3686 151.993C62.375 151.985 62.3798 151.978 62.383 151.974C62.3846 151.972 62.3858 151.97 62.3866 151.969C62.3871 151.969 62.3874 151.968 62.3876 151.968C62.3878 151.968 62.3879 151.968 63.5829 152.874C64.7778 153.781 64.7777 153.781 64.7775 153.781C64.7773 153.782 64.777 153.782 64.7767 153.782C64.7759 153.783 64.7747 153.785 64.7732 153.787C64.7701 153.791 64.7654 153.797 64.7592 153.806C64.7467 153.822 64.7281 153.846 64.7036 153.879C64.6544 153.944 64.5813 154.04 64.4861 154.166C64.2955 154.418 64.016 154.788 63.6608 155.26C62.9503 156.203 61.9369 157.552 60.7258 159.176C58.3031 162.423 55.0915 166.765 51.9322 171.148C48.7697 175.535 45.6724 179.944 43.4718 183.333C42.3675 185.034 41.5121 186.443 40.9878 187.449C40.7203 187.962 40.573 188.307 40.5117 188.504C40.4786 188.61 40.4984 188.588 40.4999 188.484C40.5008 188.419 40.5014 187.92 40.0316 187.53L38.1154 189.838ZM63.5829 152.874C65.0393 153.233 65.0393 153.233 65.0393 153.233C65.0392 153.233 65.0392 153.234 65.0391 153.234C65.0388 153.235 65.0385 153.236 65.0381 153.238C65.0373 153.241 65.0361 153.246 65.0344 153.253C65.0311 153.267 65.0261 153.287 65.0194 153.314C65.0062 153.368 64.9866 153.448 64.961 153.553C64.9098 153.763 64.8348 154.071 64.7399 154.464C64.5501 155.251 64.2806 156.377 63.9623 157.732C63.3254 160.443 62.494 164.069 61.714 167.734C60.9327 171.406 60.2085 175.092 59.7813 177.933C59.5668 179.359 59.4339 180.53 59.4 181.364C59.3828 181.787 59.3938 182.067 59.4151 182.228C59.4258 182.308 59.4331 182.31 59.4166 182.265C59.4065 182.238 59.3307 182.029 59.0944 181.833L57.1782 184.141C56.8398 183.86 56.6789 183.513 56.5998 183.297C56.5142 183.064 56.4685 182.827 56.4413 182.623C56.3868 182.213 56.3824 181.736 56.4025 181.243C56.443 180.244 56.5952 178.946 56.8147 177.487C57.2556 174.554 57.9951 170.797 58.7797 167.11C59.5656 163.417 60.4022 159.769 61.0418 157.046C61.3617 155.684 61.6326 154.552 61.8237 153.761C61.9192 153.365 61.9947 153.054 62.0464 152.842C62.0723 152.736 62.0922 152.655 62.1057 152.6C62.1125 152.572 62.1176 152.551 62.121 152.537C62.1228 152.53 62.1241 152.525 62.125 152.521C62.1254 152.519 62.1257 152.518 62.126 152.517C62.1261 152.517 62.1262 152.516 62.1263 152.516C62.1263 152.516 62.1263 152.516 63.5829 152.874ZM59.0944 181.833C58.7805 181.572 58.4658 181.541 58.4117 181.535C58.321 181.526 58.2752 181.534 58.3057 181.531C58.3625 181.524 58.5035 181.499 58.7585 181.431C59.2557 181.299 59.9845 181.059 60.9457 180.714C62.8587 180.027 65.5359 178.98 68.8022 177.703C75.3148 175.156 84.0857 171.727 93.4342 168.578C102.774 165.431 112.744 162.544 121.658 161.096C130.48 159.664 138.626 159.574 144.065 162.394L142.684 165.057C138.183 162.723 130.909 162.633 122.139 164.058C113.463 165.467 103.672 168.294 94.3921 171.421C85.1202 174.544 76.4113 177.949 69.8948 180.497C66.6466 181.767 63.9219 182.833 61.9595 183.538C60.9831 183.888 60.1559 184.164 59.5304 184.33C59.2241 184.412 58.912 184.482 58.6306 184.513C58.492 184.528 58.3059 184.54 58.1043 184.519C57.9392 184.502 57.5432 184.444 57.1782 184.141L59.0944 181.833ZM144.065 162.394C154.254 167.678 161.144 174.831 166.035 180.629C168.552 183.614 170.353 186.002 171.998 187.877C172.793 188.782 173.453 189.449 174.017 189.89C174.6 190.346 174.922 190.434 175.052 190.442L174.876 193.437C173.849 193.376 172.937 192.854 172.169 192.253C171.382 191.638 170.574 190.803 169.743 189.855C168.137 188.025 166.058 185.31 163.741 182.564C158.965 176.901 152.374 170.082 142.684 165.057L144.065 162.394ZM175.052 190.442C175.856 190.489 177.189 190.165 179.023 189.462C180.798 188.782 182.816 187.84 184.915 186.852C186.99 185.875 189.144 184.853 191.111 184.062C193.042 183.286 194.969 182.656 196.56 182.574L196.714 185.57C195.661 185.624 194.136 186.079 192.23 186.846C190.361 187.597 188.296 188.576 186.192 189.566C184.113 190.545 181.993 191.536 180.097 192.263C178.26 192.967 176.387 193.525 174.876 193.437L175.052 190.442ZM196.56 182.574C198.199 182.49 200.198 183.024 202.153 183.713C204.154 184.417 206.327 185.364 208.368 186.259C210.438 187.167 212.356 188.012 213.943 188.57C214.735 188.848 215.392 189.036 215.908 189.126C216.467 189.224 216.666 189.172 216.664 189.173L217.686 191.993C216.934 192.265 216.095 192.205 215.39 192.081C214.642 191.95 213.809 191.703 212.948 191.4C211.23 190.797 209.192 189.896 207.163 189.006C205.104 188.104 203.035 187.203 201.157 186.542C199.234 185.866 197.718 185.519 196.714 185.57L196.56 182.574ZM216.664 189.173C216.425 189.259 216.373 189.394 216.462 189.266C216.54 189.154 216.65 188.948 216.799 188.6C217.108 187.873 217.406 186.968 217.882 185.708C218.789 183.305 220.159 180.149 222.717 177.219C227.934 171.242 237.657 166.669 256.906 169.842L256.418 172.802C237.813 169.735 229.291 174.25 224.977 179.192C222.769 181.721 221.551 184.483 220.688 186.768C220.279 187.852 219.896 188.984 219.559 189.776C219.384 190.187 219.18 190.611 218.93 190.972C218.691 191.318 218.298 191.771 217.686 191.993L216.664 189.173ZM256.906 169.842C275.901 172.973 295.97 177.87 311.774 181.941C319.704 183.984 326.498 185.803 331.633 187.112C334.191 187.764 336.301 188.279 337.891 188.623C338.687 188.795 339.336 188.92 339.838 188.997C340.373 189.08 340.635 189.091 340.711 189.086L340.91 192.08C340.476 192.108 339.929 192.047 339.379 191.962C338.794 191.872 338.081 191.733 337.258 191.555C335.61 191.199 333.456 190.672 330.892 190.019C325.78 188.716 318.89 186.873 311.025 184.846C295.238 180.779 275.276 175.91 256.418 172.802L256.906 169.842ZM340.711 189.086C340.409 189.106 340.062 189.246 339.81 189.549C339.596 189.805 339.554 190.054 339.545 190.128C339.528 190.255 339.559 190.241 339.49 189.966C339.366 189.477 339.061 188.669 338.547 187.529C337.533 185.283 335.842 182.046 333.658 178.121C329.296 170.284 323.038 159.829 316.492 149.327C309.947 138.827 303.126 128.301 297.641 120.322C294.896 116.33 292.498 112.994 290.643 110.622C289.713 109.433 288.938 108.511 288.337 107.877C288.035 107.559 287.799 107.337 287.626 107.195C287.413 107.022 287.416 107.071 287.579 107.116L288.379 104.225C288.849 104.355 289.25 104.649 289.522 104.87C289.833 105.124 290.166 105.447 290.514 105.813C291.211 106.548 292.052 107.555 293.006 108.773C294.917 111.217 297.355 114.612 300.113 118.623C305.631 126.65 312.478 137.216 319.038 147.74C325.598 158.263 331.884 168.765 336.279 176.662C338.473 180.604 340.214 183.93 341.281 186.295C341.808 187.461 342.207 188.471 342.399 189.232C342.487 189.583 342.579 190.052 342.52 190.51C342.489 190.75 342.4 191.126 342.113 191.471C341.787 191.862 341.34 192.051 340.91 192.08L340.711 189.086ZM287.579 107.116C287.177 107.005 286.23 106.91 284.677 106.889C283.181 106.868 281.267 106.915 279.034 107.025C274.571 107.243 268.894 107.707 262.863 108.349C250.773 109.637 237.394 111.628 229.551 113.764L228.763 110.87C236.851 108.666 250.432 106.656 262.545 105.366C268.616 104.72 274.351 104.251 278.887 104.028C281.154 103.917 283.136 103.867 284.719 103.889C286.244 103.91 287.556 103.997 288.379 104.225L287.579 107.116ZM229.551 113.764C221.652 115.917 216.46 118.016 213.276 119.74C211.68 120.604 210.635 121.35 210.013 121.926C209.701 122.214 209.529 122.43 209.443 122.565C209.348 122.716 209.416 122.678 209.416 122.49H206.416C206.416 121.896 206.649 121.371 206.907 120.963C207.174 120.54 207.54 120.126 207.975 119.724C208.846 118.918 210.125 118.035 211.848 117.102C215.302 115.231 220.731 113.058 228.763 110.87L229.551 113.764ZM209.416 122.49C209.416 123.294 209.46 124.229 209.812 125.014C210.115 125.689 210.672 126.332 212 126.577L211.456 129.527C209.108 129.094 207.759 127.769 207.074 126.24C206.439 124.821 206.416 123.315 206.416 122.49H209.416ZM212 126.577C213.956 126.937 215.692 127.52 216.992 128.167C217.638 128.489 218.222 128.849 218.677 129.239C219.069 129.574 219.633 130.154 219.749 130.959L216.779 131.384C216.826 131.715 216.999 131.751 216.727 131.519C216.519 131.341 216.166 131.107 215.655 130.853C214.64 130.347 213.177 129.844 211.456 129.527L212 126.577ZM219.749 130.959C219.802 131.329 219.751 131.866 219.341 132.318C218.982 132.714 218.54 132.822 218.314 132.856C217.883 132.923 217.444 132.838 217.185 132.781C216.587 132.65 215.782 132.38 215 132.12C213.295 131.554 211.476 130.964 210.165 130.907L210.295 127.91C212.116 127.988 214.382 128.754 215.945 129.273C216.797 129.556 217.422 129.761 217.828 129.851C218.071 129.904 218.028 129.865 217.858 129.891C217.764 129.906 217.419 129.972 217.12 130.301C216.77 130.686 216.743 131.133 216.779 131.384L219.749 130.959ZM210.165 130.907C206.453 130.746 203.648 128.357 202.285 127.134L204.287 124.9C205.647 126.119 207.744 127.799 210.295 127.91L210.165 130.907ZM202.285 127.134C201.998 126.877 201.334 126.659 200.648 126.729C200.33 126.762 200.129 126.848 200.035 126.912C199.994 126.94 199.987 126.954 199.992 126.947C200 126.936 200.003 126.923 200.003 126.924L197.038 126.466C197.333 124.554 199.118 123.871 200.341 123.745C201.63 123.612 203.212 123.936 204.287 124.9L202.285 127.134ZM200.003 126.924C199.981 127.067 199.992 127.334 200.111 127.773C200.226 128.2 200.411 128.679 200.637 129.221C200.848 129.727 201.116 130.335 201.321 130.875C201.524 131.412 201.733 132.049 201.785 132.674L198.796 132.924C198.78 132.736 198.699 132.423 198.515 131.938C198.333 131.457 198.116 130.972 197.868 130.375C197.634 129.815 197.384 129.184 197.215 128.555C197.048 127.939 196.924 127.205 197.038 126.466L200.003 126.924ZM201.785 132.674C201.868 133.662 201.745 135.325 201.521 136.969C201.295 138.635 200.939 140.471 200.487 141.821L197.642 140.869C198.008 139.777 198.333 138.154 198.549 136.565C198.768 134.953 198.849 133.565 198.796 132.924L201.785 132.674ZM200.487 141.821C199.686 144.217 198.381 148.922 198.095 150.107L195.179 149.402C195.482 148.145 196.81 143.356 197.642 140.869L200.487 141.821ZM198.095 150.107C198.082 150.159 198.056 150.265 198.012 150.377C197.997 150.417 197.939 150.568 197.822 150.731C197.767 150.808 197.627 150.992 197.38 151.142C197.09 151.319 196.617 151.462 196.093 151.275C195.645 151.116 195.414 150.801 195.327 150.665C195.229 150.511 195.181 150.374 195.16 150.307C195.116 150.168 195.101 150.052 195.096 150.008C195.083 149.905 195.082 149.81 195.081 149.757C195.079 149.539 195.099 149.198 195.125 148.822C195.181 148.035 195.287 146.849 195.413 145.541C195.666 142.925 196.008 139.751 196.216 138.166L199.191 138.555C198.99 140.09 198.651 143.223 198.399 145.83C198.273 147.133 198.171 148.287 198.118 149.034C198.09 149.426 198.08 149.65 198.081 149.73C198.081 149.751 198.082 149.714 198.074 149.65C198.072 149.627 198.06 149.526 198.019 149.398C198 149.337 197.953 149.204 197.858 149.053C197.773 148.92 197.544 148.607 197.098 148.449C196.576 148.263 196.106 148.406 195.819 148.581C195.574 148.729 195.437 148.91 195.384 148.983C195.273 149.138 195.221 149.277 195.213 149.299C195.183 149.376 195.173 149.427 195.179 149.402L198.095 150.107ZM196.216 138.166C196.401 136.752 196.369 135.11 196.125 133.761C196.003 133.086 195.838 132.539 195.656 132.149C195.459 131.73 195.321 131.658 195.353 131.676L196.786 129.04C197.567 129.464 198.058 130.206 198.372 130.876C198.7 131.576 198.927 132.394 199.077 133.228C199.378 134.897 199.414 136.85 199.191 138.555L196.216 138.166ZM195.353 131.676C194.798 131.374 194.31 130.948 193.908 130.561C193.519 130.186 193.08 129.715 192.745 129.375C192.373 128.997 192.054 128.697 191.756 128.481C191.456 128.263 191.265 128.194 191.157 128.177L191.624 125.214C192.378 125.332 193.015 125.687 193.52 126.054C194.027 126.423 194.488 126.869 194.884 127.271C195.316 127.711 195.63 128.054 195.989 128.4C196.336 128.733 196.591 128.934 196.786 129.04L195.353 131.676ZM191.157 128.177C190.993 128.151 190.642 128.16 190.066 128.277C189.518 128.389 188.878 128.575 188.191 128.81C186.815 129.28 185.369 129.901 184.278 130.376L183.079 127.626C184.167 127.152 185.716 126.485 187.222 125.971C187.975 125.714 188.747 125.485 189.466 125.338C190.157 125.197 190.927 125.104 191.624 125.214L191.157 128.177ZM184.278 130.376C183.525 130.704 182.598 130.877 181.704 130.974C180.785 131.073 179.786 131.103 178.831 131.095C176.931 131.077 175.082 130.903 174.174 130.752L174.665 127.793C175.391 127.913 177.082 128.078 178.859 128.095C179.741 128.103 180.615 128.074 181.381 127.991C182.172 127.906 182.743 127.773 183.079 127.626L184.278 130.376ZM174.174 130.752C174.049 130.732 173.811 130.688 173.574 130.579C173.468 130.531 173.194 130.395 172.967 130.099C172.668 129.71 172.546 129.159 172.745 128.626C172.895 128.224 173.168 128.001 173.268 127.924C173.395 127.826 173.517 127.762 173.592 127.725C173.746 127.65 173.906 127.595 174.029 127.555C174.503 127.404 175.313 127.223 176.14 127.031C177.924 126.617 180.142 126.073 181.67 125.342L182.964 128.049C181.088 128.946 178.54 129.554 176.818 129.954C175.892 130.169 175.264 130.31 174.942 130.413C174.866 130.437 174.867 130.441 174.908 130.422C174.926 130.412 175.002 130.375 175.096 130.303C175.163 130.251 175.414 130.053 175.555 129.676C175.746 129.166 175.627 128.638 175.345 128.271C175.135 127.997 174.891 127.883 174.828 127.854C174.68 127.786 174.585 127.78 174.665 127.793L174.174 130.752ZM181.67 125.342C182.872 124.767 184.523 122.882 185.946 119.619C187.331 116.443 188.382 112.218 188.579 107.373L191.577 107.495C191.366 112.688 190.239 117.28 188.696 120.818C187.191 124.269 185.166 126.996 182.964 128.049L181.67 125.342ZM188.579 107.373C188.781 102.428 188.578 97.6 188.03 93.563C187.473 89.4607 186.585 86.386 185.55 84.7813L188.071 83.1547C189.486 85.348 190.436 88.9876 191.003 93.1594C191.578 97.3966 191.784 102.403 191.577 107.495L188.579 107.373ZM185.55 84.7813C185.372 84.5064 184.993 84.1016 184.345 83.576C183.718 83.0663 182.919 82.5068 181.989 81.9086C180.126 80.7107 177.839 79.4234 175.543 78.139C173.269 76.8676 170.976 75.5941 169.178 74.4591C168.28 73.8917 167.467 73.3351 166.825 72.8089C166.238 72.3282 165.589 71.713 165.28 70.9966L168.036 69.811C168.034 69.8067 168.168 70.0307 168.726 70.4884C169.229 70.9006 169.923 71.3815 170.78 71.9225C172.493 73.0044 174.702 74.2318 177.007 75.5206C179.288 76.7965 181.657 78.1287 183.611 79.3852C184.589 80.0141 185.489 80.6404 186.236 81.2471C186.964 81.8379 187.635 82.4801 188.071 83.1547L185.55 84.7813ZM165.28 70.9966C165.183 70.7708 164.869 69.9881 165.353 69.2213C165.874 68.3961 166.775 68.4096 167.017 68.422C167.644 68.4542 168.405 68.7474 169.043 69.021C170.446 69.6229 172.415 70.6684 174.352 71.6874C176.333 72.7298 178.304 73.7572 179.824 74.4019C180.599 74.7304 181.157 74.9155 181.497 74.9772C181.677 75.0099 181.666 74.9824 181.549 75.0071C181.38 75.0428 180.978 75.2069 180.789 75.6775L183.573 76.7953C183.282 77.5202 182.66 77.839 182.168 77.9427C181.728 78.0353 181.292 77.989 180.961 77.929C180.278 77.8052 179.467 77.5092 178.653 77.1638C176.994 76.4605 174.906 75.3685 172.955 74.3424C170.96 73.2928 169.125 72.3207 167.86 71.778C167.55 71.6451 167.299 71.5488 167.105 71.4863C166.891 71.4172 166.827 71.4162 166.863 71.418C166.883 71.419 167.011 71.4257 167.189 71.3696C167.388 71.3072 167.681 71.1531 167.89 70.8231C168.091 70.5044 168.101 70.1978 168.086 70.0395C168.079 69.9592 168.065 69.8999 168.055 69.8666C168.045 69.8325 168.037 69.8132 168.036 69.811L165.28 70.9966ZM180.789 75.6775C180.731 75.8223 180.748 75.8941 180.745 75.8091C180.742 75.738 180.727 75.6088 180.681 75.4095C180.589 75.0095 180.41 74.4744 180.148 73.8166C179.628 72.5052 178.861 70.907 178.073 69.2764C177.3 67.6773 176.499 66.0358 175.966 64.7283C175.703 64.0812 175.474 63.4429 175.354 62.8941C175.295 62.6234 175.245 62.2986 175.261 61.9672C175.277 61.6621 175.361 61.1093 175.812 60.66L177.929 62.7853C178.244 62.4716 178.257 62.1351 178.258 62.1171C178.26 62.0728 178.252 62.106 178.285 62.2547C178.348 62.5447 178.498 62.9904 178.745 63.5959C179.233 64.7935 179.981 66.3311 180.774 67.9705C181.551 69.5784 182.368 71.278 182.937 72.7091C183.22 73.4226 183.462 74.1199 183.604 74.7366C183.675 75.0458 183.73 75.3711 183.743 75.6909C183.755 75.9969 183.733 76.3961 183.573 76.7953L180.789 75.6775ZM175.812 60.66C176.6 59.8745 177.558 60.2384 177.852 60.3885C178.199 60.5652 178.495 60.8323 178.712 61.0498C179.175 61.514 179.71 62.196 180.269 62.9777C181.404 64.5645 182.817 66.8119 184.253 69.231C187.124 74.0649 190.186 79.7492 191.445 82.5366L188.711 83.7716C187.519 81.1334 184.522 75.5594 181.674 70.7627C180.251 68.3665 178.889 66.2055 177.829 64.7233C177.291 63.9706 176.872 63.453 176.589 63.1691C176.432 63.0126 176.406 63.0184 176.49 63.0613C176.522 63.0776 177.277 63.4352 177.929 62.7853L175.812 60.66ZM191.445 82.5366C191.717 83.1395 191.958 83.5214 192.147 83.7516C192.337 83.9842 192.427 84.0042 192.386 83.9888C192.313 83.961 192.21 83.9638 192.143 83.9884C192.11 84.0006 192.163 83.9896 192.283 83.8608C192.533 83.5924 192.813 83.0976 193.034 82.4899C193.255 81.8801 193.344 81.3581 193.344 81.1195H196.344C196.344 81.8304 196.143 82.7157 195.854 83.5132C195.564 84.3128 195.112 85.2253 194.477 85.9063C193.842 86.5881 192.711 87.3178 191.327 86.7956C190.171 86.3594 189.353 85.1932 188.711 83.7716L191.445 82.5366ZM193.344 81.1195C193.344 80.2344 193.242 73.5627 193.276 67.1235C193.293 63.8882 193.344 60.6628 193.46 58.1787C193.518 56.941 193.594 55.858 193.694 55.0398C193.743 54.6351 193.803 54.2555 193.881 53.9394C193.919 53.7828 193.971 53.6041 194.044 53.4301C194.102 53.293 194.243 52.9831 194.539 52.7247L196.51 54.9861C196.639 54.8742 196.713 54.7661 196.747 54.7109C196.784 54.6516 196.803 54.6078 196.81 54.5934C196.82 54.5676 196.813 54.5802 196.794 54.655C196.758 54.8017 196.715 55.0459 196.672 55.4035C196.585 56.1097 196.514 57.1047 196.457 58.3191C196.344 60.7393 196.293 63.9146 196.276 67.1393C196.242 73.62 196.344 80.1057 196.344 81.1195H193.344ZM194.539 52.7247C194.741 52.5488 195.099 52.3205 195.594 52.3107C196.104 52.3005 196.486 52.5269 196.712 52.7272C197.083 53.0565 197.241 53.4907 197.302 53.6658C197.462 54.1243 197.569 54.741 197.652 55.355C197.824 56.6323 197.95 58.3967 198.06 60.1358C198.172 61.9037 198.268 63.6525 198.379 64.9848C198.435 65.6544 198.491 66.1723 198.548 66.5126C198.577 66.692 198.598 66.7599 198.597 66.7584C198.595 66.7532 198.589 66.7335 198.576 66.7037C198.563 66.6759 198.538 66.6222 198.495 66.5557C198.451 66.4872 198.181 66.0666 197.588 65.9485L197.002 68.8907C196.367 68.7642 196.055 68.3073 195.971 68.1764C195.854 67.9949 195.788 67.8179 195.752 67.7106C195.676 67.4841 195.626 67.2301 195.588 67.0052C195.51 66.5369 195.446 65.9167 195.389 65.2341C195.275 63.8621 195.175 62.0503 195.066 60.3254C194.955 58.5717 194.834 56.9112 194.679 55.7554C194.597 55.1528 194.521 54.8009 194.469 54.6543C194.425 54.5269 194.47 54.7494 194.722 54.9723C194.888 55.1195 195.208 55.319 195.654 55.3101C196.084 55.3015 196.377 55.1027 196.51 54.9861L194.539 52.7247ZM197.588 65.9485C197.24 65.8793 196.971 65.9592 196.858 66C196.735 66.0447 196.658 66.0952 196.637 66.1094C196.595 66.1374 196.605 66.1375 196.678 66.0652C196.816 65.9295 197.022 65.695 197.294 65.3579C197.832 64.6922 198.499 63.7903 199.189 62.8622C199.862 61.9569 200.563 61.0189 201.125 60.3502C201.396 60.0287 201.694 59.6964 201.976 59.4604C202.093 59.3618 202.347 59.1577 202.688 59.0451C202.871 58.9846 203.202 58.909 203.595 59.0064C204.041 59.1168 204.374 59.401 204.571 59.728L202.001 61.2758C202.172 61.5603 202.471 61.8186 202.874 61.9185C203.225 62.0053 203.505 61.9346 203.63 61.8935C203.853 61.8196 203.96 61.7119 203.903 61.7595C203.835 61.816 203.678 61.9754 203.421 62.2812C202.928 62.8672 202.285 63.7265 201.596 64.6523C200.925 65.5555 200.213 66.5186 199.627 67.2433C199.338 67.6014 199.046 67.9433 198.784 68.2018C198.657 68.3266 198.492 68.4783 198.303 68.6043C198.208 68.6675 198.065 68.7536 197.883 68.8196C197.712 68.8816 197.392 68.9685 197.002 68.8907L197.588 65.9485ZM204.571 59.728C204.822 60.144 204.824 60.5654 204.821 60.725C204.817 60.9379 204.785 61.1443 204.752 61.3146C204.684 61.6598 204.567 62.0618 204.436 62.4705C204.173 63.2905 203.779 64.3637 203.389 65.4626C202.572 67.7662 201.769 70.2101 201.65 71.8675L198.658 71.6529C198.812 69.5123 199.779 66.6661 200.562 64.4596C200.972 63.3035 201.335 62.3166 201.579 61.5555C201.701 61.1736 201.775 60.9049 201.808 60.7346C201.825 60.6471 201.822 60.6345 201.821 60.6717C201.821 60.6923 201.821 60.7548 201.836 60.8434C201.851 60.9272 201.89 61.091 202.001 61.2758L204.571 59.728ZM201.65 71.8675C201.519 73.6965 201.416 79.7117 201.535 85.3095C201.594 88.1046 201.708 90.7514 201.896 92.6931C201.991 93.6737 202.1 94.4168 202.214 94.894C202.242 95.0087 202.267 95.0957 202.288 95.1587C202.31 95.2246 202.321 95.2457 202.316 95.2366C202.313 95.2307 202.302 95.2089 202.28 95.177C202.258 95.1458 202.219 95.0937 202.159 95.034C202.039 94.9169 201.778 94.7181 201.379 94.6819L201.108 97.6697C200.615 97.625 200.264 97.378 200.057 97.1752C199.857 96.9784 199.728 96.7637 199.647 96.6054C199.484 96.2888 199.376 95.9242 199.297 95.5931C199.133 94.9093 199.009 94.0003 198.91 92.9824C198.711 90.9268 198.595 88.1904 198.535 85.3732C198.416 79.7466 198.517 73.6218 198.658 71.6529L201.65 71.8675ZM201.379 94.6819C201.035 94.6508 200.788 94.7611 200.686 94.8162C200.629 94.8468 200.59 94.8746 200.57 94.8903C200.559 94.8986 200.551 94.9052 200.547 94.9094C200.542 94.9136 200.539 94.916 200.539 94.9161C200.539 94.9163 200.541 94.9147 200.544 94.9111C200.547 94.9075 200.552 94.9023 200.559 94.8951C200.571 94.8807 200.589 94.8604 200.61 94.8332C200.653 94.7781 200.707 94.7038 200.772 94.6072C201.039 94.2062 201.385 93.5777 201.791 92.7515C202.598 91.1139 203.552 88.8934 204.487 86.6332C205.423 84.371 206.314 82.1287 207.016 80.4072C207.363 79.5564 207.665 78.8274 207.896 78.307C208.01 78.0514 208.119 77.8171 208.215 77.636C208.26 77.552 208.326 77.4335 208.406 77.3197C208.443 77.2675 208.521 77.1618 208.637 77.0535C208.679 77.0142 209.06 76.6354 209.686 76.6354V79.6354C210.298 79.6354 210.664 79.2654 210.687 79.2436C210.784 79.1528 210.841 79.0731 210.853 79.0554C210.885 79.0103 210.891 78.9939 210.865 79.043C210.82 79.128 210.745 79.2841 210.638 79.5252C210.428 79.9983 210.141 80.6882 209.794 81.5394C209.108 83.2216 208.196 85.5148 207.259 87.7797C206.322 90.0465 205.336 92.3447 204.483 94.0769C204.06 94.9356 203.646 95.7049 203.267 96.2719C203.083 96.549 202.866 96.8398 202.622 97.075C202.5 97.1931 202.329 97.3382 202.111 97.4558C201.897 97.5717 201.545 97.7093 201.108 97.6697L201.379 94.6819ZM209.686 76.6354C210.597 76.6354 210.987 77.3475 211.074 77.5443C211.175 77.7745 211.196 77.9784 211.203 78.0455C211.219 78.2143 211.21 78.3727 211.203 78.461C211.188 78.666 211.152 78.9221 211.109 79.1919C211.021 79.7459 210.874 80.5202 210.693 81.4297C210.329 83.2541 209.807 85.7079 209.281 88.2103C208.753 90.7209 208.22 93.2844 207.828 95.3533C207.631 96.3888 207.473 97.2869 207.368 97.9857C207.315 98.3356 207.278 98.6234 207.256 98.8467C207.245 98.958 207.239 99.0455 207.236 99.1116C207.233 99.1817 207.234 99.2075 207.234 99.2016L204.24 99.3895C204.211 98.9311 204.297 98.2358 204.401 97.5407C204.514 96.7857 204.681 95.8441 204.88 94.7941C205.279 92.692 205.818 90.1011 206.346 87.593C206.875 85.0766 207.391 82.6473 207.751 80.8432C207.931 79.9385 208.068 79.2123 208.146 78.7193C208.187 78.4656 208.206 78.3116 208.211 78.2373C208.215 78.1861 208.207 78.2375 208.217 78.3343C208.22 78.3654 208.235 78.5421 208.329 78.754C208.407 78.9325 208.787 79.6354 209.686 79.6354V76.6354ZM207.234 99.2016C207.31 100.415 207.159 101.774 207.098 102.7C207.064 103.206 207.054 103.592 207.079 103.883C207.105 104.203 207.16 104.213 207.092 104.118L204.654 105.867C204.246 105.297 204.13 104.629 204.089 104.131C204.045 103.604 204.069 103.032 204.104 102.503C204.179 101.361 204.3 100.347 204.24 99.3895L207.234 99.2016ZM207.092 104.118C207.32 104.437 207.414 104.809 207.452 104.966C207.508 105.193 207.554 105.452 207.593 105.722C207.671 106.265 207.737 106.956 207.793 107.727C207.904 109.275 207.977 111.234 208.003 113.162C208.028 115.087 208.007 117.011 207.926 118.485C207.886 119.215 207.829 119.875 207.747 120.382C207.707 120.627 207.652 120.899 207.566 121.144C207.524 121.264 207.454 121.44 207.337 121.619C207.237 121.771 206.976 122.122 206.482 122.286L205.537 119.439C205.094 119.586 204.882 119.892 204.829 119.973C204.79 120.032 204.766 120.08 204.754 120.106C204.742 120.133 204.735 120.151 204.734 120.156C204.733 120.156 204.756 120.085 204.785 119.902C204.842 119.552 204.892 119.016 204.931 118.319C205.007 116.94 205.028 115.092 205.003 113.202C204.978 111.315 204.906 109.416 204.8 107.942C204.747 107.202 204.687 106.591 204.623 106.15C204.591 105.928 204.562 105.775 204.539 105.682C204.499 105.521 204.511 105.667 204.654 105.867L207.092 104.118ZM206.482 122.286C205.887 122.484 205.372 122.284 205.077 122.081C204.819 121.903 204.665 121.687 204.589 121.572C204.43 121.329 204.32 121.052 204.244 120.839C204.082 120.383 203.925 119.769 203.775 119.094C203.471 117.724 203.15 115.88 202.859 114.005C202.567 112.124 202.301 110.184 202.108 108.609C201.921 107.085 201.786 105.784 201.786 105.264H204.786C204.786 105.558 204.89 106.647 205.085 108.243C205.275 109.788 205.537 111.697 205.824 113.545C206.111 115.401 206.42 117.169 206.703 118.444C206.847 119.091 206.973 119.558 207.071 119.835C207.126 119.989 207.141 119.992 207.099 119.928C207.082 119.903 206.985 119.752 206.782 119.612C206.543 119.447 206.081 119.258 205.537 119.439L206.482 122.286ZM201.786 105.264C201.786 103.934 202.804 103.258 203.532 102.978C204.272 102.693 205.181 102.595 206.064 102.577C207.869 102.54 210.135 102.833 212.167 103.252L211.561 106.19C209.645 105.795 207.621 105.546 206.125 105.577C205.357 105.592 204.862 105.681 204.61 105.778C204.347 105.879 204.786 105.78 204.786 105.264H201.786ZM212.167 103.252C213.871 103.603 216.444 103.501 219.022 103.01C221.615 102.517 223.912 101.687 225.145 100.794L226.905 103.223C225.143 104.5 222.334 105.434 219.583 105.957C216.816 106.484 213.806 106.653 211.561 106.19L212.167 103.252ZM225.145 100.794C225.945 100.215 226.67 99.8036 227.428 99.6548C228.247 99.494 228.905 99.6814 229.383 99.8307C229.863 99.9806 230.253 100.124 230.873 100.221C231.486 100.318 232.353 100.369 233.641 100.244L233.932 103.23C232.429 103.376 231.305 103.326 230.407 103.185C229.516 103.045 228.877 102.815 228.488 102.694C228.098 102.572 228.05 102.59 228.006 102.599C227.899 102.619 227.604 102.717 226.905 103.223L225.145 100.794ZM233.641 100.244C236.557 99.9608 239.478 99.8039 241.773 99.0419C242.889 98.6713 243.719 98.1961 244.277 97.6017C244.806 97.0381 245.171 96.2823 245.224 95.1563L248.22 95.2963C248.137 97.0867 247.515 98.535 246.465 99.6542C245.444 100.743 244.104 101.429 242.718 101.889C240.009 102.789 236.599 102.971 233.932 103.23L233.641 100.244ZM245.224 95.1563C245.354 92.3592 244.934 91.622 244.657 91.2698C244.437 90.9891 244.251 90.8593 243.768 90.3945C243.329 89.9731 242.839 89.4324 242.4 88.6023L245.053 87.2009C245.295 87.6595 245.553 87.9496 245.847 88.2318C246.095 88.4707 246.624 88.9173 247.016 89.4165C247.965 90.6242 248.362 92.2608 248.22 95.2963L245.224 95.1563ZM242.4 88.6023C241.675 87.2293 242.245 85.8291 242.741 84.9115C243.258 83.9558 244.094 82.838 244.748 81.8722C246.205 79.7208 247.165 77.7734 246.518 75.7418L249.377 74.8319C250.5 78.3617 248.669 81.4331 247.232 83.5544C246.439 84.7249 245.803 85.557 245.38 86.3392C244.936 87.1595 245.097 87.2853 245.053 87.2009L242.4 88.6023ZM246.518 75.7418C245.752 73.3337 244.623 72.3756 243.523 71.8343C242.92 71.5374 242.278 71.3434 241.555 71.144C240.881 70.9579 240.047 70.7467 239.307 70.4189L240.521 67.6758C241.006 67.8905 241.568 68.0354 242.353 68.252C243.09 68.4552 243.971 68.7106 244.849 69.1428C246.711 70.0596 248.373 71.6787 249.377 74.8319L246.518 75.7418ZM239.307 70.4189C238.201 69.9294 237.976 68.8389 237.95 68.1783C237.922 67.4855 238.07 66.6952 238.258 65.9395C238.633 64.4293 239.344 62.4043 239.945 60.4653C240.569 58.447 241.117 56.3994 241.293 54.5603C241.472 52.6927 241.24 51.2989 240.593 50.3772L243.047 48.6524C244.306 50.4436 244.483 52.7122 244.279 54.8461C244.072 57.0083 243.445 59.3013 242.811 61.3523C242.151 63.4826 241.518 65.2556 241.17 66.6617C240.995 67.3641 240.937 67.8116 240.947 68.0597C240.958 68.3402 241.014 67.8939 240.521 67.6758L239.307 70.4189ZM240.593 50.3772C238.886 47.9477 237.113 46.9398 235.524 46.3878C234.695 46.1 233.904 45.9311 233.093 45.7536C232.335 45.5875 231.457 45.3957 230.699 45.0404L231.972 42.3241C232.372 42.5113 232.906 42.6416 233.735 42.8231C234.512 42.9932 235.482 43.1974 236.508 43.5538C238.629 44.2904 240.942 45.6563 243.047 48.6524L240.593 50.3772ZM230.699 45.0404C230.224 44.8179 229.895 44.4445 229.688 44.1702C229.46 43.8691 229.254 43.5156 229.065 43.1523C228.687 42.4253 228.295 41.4887 227.89 40.4668C227.061 38.3743 226.136 35.8287 224.996 33.2724C223.856 30.7185 222.562 28.3014 221.072 26.5254C219.577 24.7432 218.051 23.7992 216.448 23.75L216.54 20.7514C219.362 20.838 221.615 22.5051 223.37 24.5971C225.131 26.6954 226.56 29.4158 227.735 32.0501C228.91 34.6822 229.892 37.3758 230.679 39.361C231.082 40.378 231.426 41.1899 231.727 41.7695C231.878 42.0596 231.996 42.2489 232.081 42.3612C232.186 42.5003 232.158 42.4109 231.972 42.3241L230.699 45.0404ZM216.448 23.75C212.429 23.6269 210.434 24.8642 209.138 26.1001C208.419 26.7853 207.933 27.4428 207.312 28.1672C206.776 28.7924 206.012 29.6315 204.911 29.936L204.111 27.0446C204.237 27.01 204.476 26.8656 205.034 26.2149C205.507 25.6635 206.204 24.7527 207.068 23.9288C208.937 22.1467 211.708 20.6033 216.54 20.7514L216.448 23.75ZM204.911 29.936C204.392 30.0798 203.895 30.0003 203.551 29.9128C203.181 29.8186 202.805 29.6656 202.444 29.4934C201.722 29.1487 200.885 28.6396 200.002 28.0584C198.243 26.9012 196.047 25.2862 193.881 23.7672C191.672 22.2185 189.454 20.7393 187.508 19.7318C186.535 19.2282 185.679 18.8681 184.961 18.6705C184.222 18.467 183.772 18.476 183.534 18.542L182.734 15.6507C183.721 15.3775 184.782 15.5095 185.757 15.7781C186.755 16.0526 187.817 16.5138 188.887 17.0677C191.026 18.1754 193.386 19.7566 195.603 21.3108C197.862 22.8946 199.938 24.4248 201.651 25.5523C202.504 26.1135 203.203 26.5316 203.736 26.7861C204.004 26.9137 204.184 26.9783 204.292 27.0056C204.425 27.0396 204.325 26.9856 204.111 27.0446L204.911 29.936ZM183.534 18.542C181.894 18.9957 180.84 20.645 180.091 23.0813C179.733 24.2462 179.487 25.4522 179.262 26.5676C179.054 27.5993 178.837 28.7242 178.529 29.4702L175.756 28.3242C175.925 27.9172 176.082 27.1601 176.321 25.9749C176.543 24.8734 176.816 23.5276 177.224 22.2001C178.007 19.6516 179.471 16.5534 182.734 15.6507L183.534 18.542ZM178.529 29.4702C178.194 30.2798 177.487 30.725 176.946 30.9767C176.368 31.2455 175.683 31.4304 174.99 31.571C173.604 31.8527 171.847 32.0206 170.14 32.1874C168.388 32.3584 166.655 32.5307 165.167 32.8125C163.614 33.107 162.627 33.4727 162.165 33.8534L160.258 31.537C161.362 30.6291 163.031 30.164 164.609 29.865C166.253 29.5534 168.128 29.3696 169.848 29.2016C171.613 29.0292 173.193 28.875 174.393 28.6311C174.994 28.5089 175.415 28.3801 175.68 28.2568C175.982 28.1164 175.853 28.0911 175.756 28.3242L178.529 29.4702ZM162.165 33.8534C160.972 34.8349 160.302 36.3151 159.98 38.0545C159.659 39.7918 159.715 41.6363 159.847 43.1449L156.858 43.4057C156.717 41.7945 156.637 39.6376 157.03 37.509C157.424 35.3826 158.319 33.1327 160.258 31.537L162.165 33.8534ZM159.847 43.1449C159.917 43.9567 159.638 44.6901 159.308 45.2761C158.973 45.8708 158.507 46.4495 158.007 46.997C157.023 48.0755 155.661 49.2907 154.395 50.4865C153.086 51.7232 151.807 53.0029 150.801 54.3429C149.792 55.6866 149.131 56.9949 148.943 58.2776L145.975 57.843C146.264 55.8703 147.237 54.0928 148.402 52.5413C149.57 50.9862 151.006 49.5615 152.335 48.3058C153.708 47.0091 154.907 45.9439 155.791 44.975C156.225 44.4989 156.52 44.1122 156.695 43.8024C156.875 43.4839 156.855 43.3739 156.858 43.4057L159.847 43.1449ZM148.943 58.2776C148.528 61.1121 149.287 63.0339 150.152 64.4507C150.61 65.2004 151.073 65.7754 151.521 66.3853C151.729 66.6686 151.956 66.9898 152.131 67.3164C152.299 67.6313 152.499 68.0933 152.499 68.6404H149.499C149.499 68.8145 149.559 68.8696 149.486 68.7325C149.419 68.6071 149.302 68.4313 149.103 68.1614C148.739 67.665 148.138 66.9091 147.592 66.0141C146.448 64.1416 145.437 61.5194 145.975 57.843L148.943 58.2776ZM152.499 68.6404C152.499 68.9435 152.428 69.2393 152.375 69.4346C152.313 69.6617 152.23 69.9135 152.136 70.175C151.947 70.6992 151.684 71.3459 151.382 72.0627C151.078 72.7831 150.725 73.5985 150.351 74.4624C149.976 75.3293 149.579 76.2496 149.182 77.1917C148.386 79.0808 147.604 81.031 147.023 82.7729C146.425 84.5635 146.1 85.9626 146.1 86.8165H143.1C143.1 85.4322 143.575 83.6269 144.177 81.8229C144.795 79.9703 145.613 77.9359 146.417 76.0271C146.82 75.0702 147.223 74.1381 147.598 73.2713C147.974 72.4016 148.321 71.602 148.617 70.8981C148.915 70.1907 149.152 69.6039 149.313 69.1574C149.394 68.9336 149.448 68.7657 149.48 68.6478C149.521 68.4983 149.499 68.5238 149.499 68.6404H152.499ZM146.1 86.8165C146.1 87.3397 146.328 87.7848 146.942 88.2693C147.601 88.7898 148.554 89.2276 149.704 89.6739C150.759 90.0835 152.078 90.5317 153.073 91.0209C153.589 91.2742 154.124 91.5859 154.569 91.9869C155.023 92.3954 155.451 92.9597 155.602 93.7103L152.661 94.3008C152.675 94.3731 152.704 94.344 152.561 94.2157C152.411 94.08 152.154 93.9116 151.751 93.7136C150.909 93.2999 149.878 92.9596 148.618 92.4706C147.453 92.0182 146.126 91.4472 145.083 90.624C143.995 89.7649 143.1 88.5314 143.1 86.8165H146.1ZM155.602 93.7103C155.796 94.6778 155.685 95.6389 155.498 96.4883C155.312 97.333 155.018 98.1925 154.772 98.936C154.513 99.7184 154.301 100.389 154.191 101.004C154.081 101.614 154.097 102.047 154.199 102.369L151.34 103.276C151.033 102.309 151.083 101.335 151.238 100.474C151.391 99.6183 151.672 98.7541 151.924 97.9935C152.189 97.1941 152.423 96.5022 152.569 95.8421C152.713 95.1868 152.739 94.6897 152.661 94.3008L155.602 93.7103ZM154.199 102.369C154.14 102.182 154.02 102.16 154.152 102.225C154.3 102.299 154.59 102.388 155.074 102.449C156.036 102.568 157.362 102.53 158.883 102.412C160.412 102.293 161.941 102.114 163.432 101.977C164.832 101.848 166.247 101.751 167.252 101.876L166.881 104.853C166.253 104.775 165.165 104.83 163.706 104.965C162.337 105.09 160.65 105.284 159.115 105.403C157.572 105.522 155.988 105.586 154.703 105.426C154.064 105.346 153.396 105.2 152.817 104.912C152.221 104.616 151.603 104.107 151.34 103.276L154.199 102.369ZM167.252 101.876C168.238 101.999 169.072 102.289 169.693 102.894C170.291 103.475 170.504 104.188 170.621 104.549C170.758 104.971 170.826 105.164 170.97 105.358C171.096 105.527 171.359 105.793 172.018 106.078L170.829 108.832C169.787 108.382 169.062 107.82 168.563 107.148C168.081 106.501 167.886 105.84 167.767 105.474C167.629 105.047 167.596 105.038 167.601 105.044C167.632 105.074 167.53 104.934 166.881 104.853L167.252 101.876ZM172.019 106.078C172.454 106.266 173.206 106.319 174.365 106.104C175.485 105.896 176.772 105.481 178.14 104.978C178.819 104.728 179.501 104.463 180.182 104.199C180.858 103.936 181.535 103.672 182.183 103.433C183.444 102.968 184.738 102.542 185.822 102.417L186.165 105.398C185.479 105.476 184.491 105.779 183.221 106.248C182.603 106.475 181.952 106.729 181.269 106.995C180.591 107.258 179.884 107.533 179.175 107.793C177.769 108.31 176.29 108.798 174.912 109.053C173.573 109.302 172.096 109.379 170.829 108.832L172.019 106.078ZM185.822 102.417C187.854 102.184 189.779 102.529 191.232 103.132C191.955 103.433 192.62 103.821 193.131 104.286C193.598 104.712 194.165 105.417 194.165 106.349H191.165C191.165 106.671 191.341 106.714 191.11 106.504C190.924 106.334 190.584 106.112 190.082 105.903C189.084 105.489 187.673 105.224 186.165 105.398L185.822 102.417ZM194.165 106.349C194.165 106.777 194.028 108.037 193.824 109.561C193.614 111.144 193.312 113.15 192.95 115.16C192.589 117.163 192.162 119.203 191.695 120.838C191.463 121.652 191.208 122.407 190.931 123.022C190.792 123.33 190.634 123.633 190.45 123.903C190.277 124.158 190.022 124.472 189.662 124.703L188.044 122.177C187.921 122.255 187.905 122.311 187.969 122.217C188.023 122.138 188.101 122 188.197 121.788C188.388 121.363 188.596 120.765 188.81 120.014C189.237 118.521 189.644 116.594 189.998 114.628C190.35 112.671 190.645 110.71 190.851 109.165C190.954 108.392 191.034 107.728 191.088 107.224C191.115 106.971 191.135 106.764 191.149 106.605C191.155 106.526 191.16 106.463 191.162 106.416C191.165 106.364 191.165 106.345 191.165 106.349H194.165ZM189.662 124.703C189.111 125.055 188.524 125.046 188.152 124.996C187.759 124.943 187.363 124.813 186.998 124.667C186.264 124.372 185.36 123.887 184.328 123.292C183.283 122.69 182.033 121.934 180.599 121.07C179.159 120.202 177.516 119.217 175.66 118.143C168.242 113.851 157.403 108.132 142.744 103.018L143.732 100.185C158.62 105.38 169.635 111.191 177.162 115.546C179.042 116.634 180.703 117.63 182.147 118.5C183.597 119.373 184.813 120.11 185.825 120.692C186.85 121.283 187.596 121.674 188.116 121.883C188.379 121.988 188.512 122.017 188.55 122.022C188.609 122.03 188.356 121.977 188.044 122.177L189.662 124.703ZM142.744 103.018C127.99 97.8703 119.419 95.307 114.553 94.0323C112.121 93.3951 110.627 93.0832 109.758 92.9313C109.324 92.8555 109.052 92.8205 108.901 92.8046C108.825 92.7967 108.781 92.7937 108.764 92.7926C108.755 92.7921 108.753 92.7921 108.758 92.7923C108.76 92.7923 108.763 92.7924 108.769 92.7925C108.771 92.7926 108.774 92.7926 108.778 92.7926C108.779 92.7926 108.781 92.7927 108.783 92.7927C108.784 92.7927 108.785 92.7927 108.786 92.7927C108.787 92.7927 108.789 92.7927 108.789 91.2927C108.789 89.7927 108.79 89.7927 108.792 89.7927C108.793 89.7927 108.794 89.7927 108.795 89.7927C108.797 89.7927 108.8 89.7927 108.802 89.7927C108.807 89.7928 108.811 89.7928 108.816 89.7929C108.827 89.7931 108.838 89.7933 108.85 89.7937C108.875 89.7945 108.904 89.7957 108.939 89.7977C109.007 89.8018 109.098 89.8088 109.214 89.821C109.446 89.8454 109.787 89.8909 110.275 89.9762C111.249 90.1464 112.827 90.4789 115.313 91.1302C120.285 92.4327 128.939 95.0239 143.732 100.185L142.744 103.018ZM108.789 91.2927C109.841 92.3615 109.841 92.3615 109.841 92.3616C109.841 92.3617 109.841 92.3619 109.841 92.3622C109.84 92.3627 109.839 92.3636 109.838 92.3649C109.835 92.3674 109.831 92.3713 109.826 92.3766C109.815 92.3872 109.799 92.4033 109.777 92.4248C109.734 92.4678 109.669 92.5324 109.583 92.6179C109.412 92.7888 109.159 93.043 108.832 93.3738C108.179 94.0354 107.234 95.003 106.07 96.2233C103.743 98.6644 100.543 102.114 97.0558 106.144C90.0586 114.231 81.995 124.556 77.4543 133.736L74.7653 132.405C79.4837 122.866 87.7596 112.303 94.7872 104.181C98.3127 100.106 101.546 96.6204 103.899 94.153C105.076 92.919 106.033 91.9389 106.697 91.2663C107.029 90.93 107.288 90.6705 107.464 90.4945C107.552 90.4065 107.62 90.3394 107.665 90.294C107.688 90.2713 107.706 90.2541 107.718 90.2423C107.724 90.2365 107.728 90.232 107.731 90.2289C107.733 90.2273 107.734 90.2261 107.735 90.2253C107.735 90.2249 107.736 90.2245 107.736 90.2243C107.736 90.224 107.737 90.2238 108.789 91.2927ZM77.4543 133.736C72.8429 143.058 70.2789 149.247 68.8718 153.085C68.1684 155.004 67.7553 156.332 67.5203 157.167C67.4028 157.585 67.33 157.879 67.2878 158.062C67.2667 158.153 67.2533 158.216 67.2457 158.253C67.2419 158.272 67.2397 158.284 67.2386 158.289C67.2381 158.292 67.2379 158.293 67.238 158.293C67.238 158.293 67.2381 158.292 67.2383 158.291C67.2384 158.29 67.2385 158.29 67.2386 158.289C67.2387 158.289 67.2388 158.288 67.2388 158.288C67.239 158.287 67.239 158.287 65.7614 158.029C64.2838 157.771 64.2839 157.77 64.284 157.769C64.2841 157.769 64.2842 157.768 64.2843 157.768C64.2845 157.767 64.2847 157.766 64.2849 157.764C64.2854 157.762 64.2859 157.759 64.2865 157.755C64.2877 157.749 64.2892 157.741 64.291 157.731C64.2946 157.712 64.2996 157.686 64.3061 157.655C64.319 157.591 64.338 157.502 64.3648 157.386C64.4183 157.155 64.503 156.815 64.6323 156.355C64.8909 155.436 65.3288 154.034 66.0551 152.053C67.5074 148.091 70.1176 141.801 74.7653 132.405L77.4543 133.736ZM65.7614 158.029C64.44 157.319 64.4402 157.319 64.4403 157.318C64.4404 157.318 64.4406 157.318 64.4408 157.317C64.4412 157.317 64.4417 157.316 64.4425 157.314C64.4439 157.312 64.446 157.308 64.4486 157.303C64.454 157.293 64.4619 157.278 64.4722 157.259C64.4928 157.221 64.5232 157.165 64.563 157.092C64.6426 156.946 64.7599 156.732 64.9122 156.457C65.2167 155.908 65.6611 155.116 66.2229 154.14C67.3462 152.188 68.9411 149.497 70.8286 146.54C74.5791 140.664 79.5712 133.597 84.3604 129.247L86.3774 131.468C81.9075 135.528 77.0958 142.297 73.3574 148.154C71.5004 151.063 69.9295 153.713 68.8231 155.636C68.2701 156.597 67.8336 157.375 67.5361 157.912C67.3873 158.18 67.2733 158.388 67.1968 158.529C67.1585 158.599 67.1297 158.652 67.1106 158.687C67.101 158.705 67.0939 158.718 67.0892 158.727C67.0869 158.731 67.0852 158.734 67.0841 158.736C67.0836 158.737 67.0832 158.738 67.083 158.738C67.0829 158.738 67.0828 158.739 67.0828 158.739C67.0827 158.739 67.0828 158.739 65.7614 158.029ZM84.3604 129.247C89.0221 125.013 92.5973 122.135 95.0182 120.309C96.2287 119.396 97.1506 118.746 97.7754 118.321C98.0877 118.109 98.3258 117.952 98.4886 117.847C98.57 117.795 98.6325 117.755 98.6761 117.728C98.6979 117.714 98.715 117.704 98.7273 117.696C98.7334 117.693 98.7383 117.689 98.7421 117.687C98.744 117.686 98.7456 117.685 98.7469 117.684C98.7475 117.684 98.7481 117.684 98.7486 117.683C98.7488 117.683 98.7491 117.683 98.7493 117.683C98.7495 117.683 98.7498 117.682 99.5298 118.964C100.31 120.245 100.31 120.245 100.31 120.245C100.31 120.245 100.311 120.245 100.311 120.244C100.311 120.244 100.311 120.244 100.311 120.244C100.311 120.244 100.311 120.244 100.31 120.245C100.309 120.245 100.307 120.247 100.304 120.249C100.297 120.253 100.285 120.26 100.269 120.27C100.236 120.291 100.184 120.324 100.114 120.369C99.9721 120.46 99.7549 120.603 99.4631 120.801C98.8795 121.199 97.9972 121.82 96.8248 122.705C94.48 124.473 90.9748 127.292 86.3774 131.468L84.3604 129.247ZM99.5298 118.964C98.1771 118.315 98.1772 118.315 98.1772 118.315C98.1773 118.315 98.1774 118.315 98.1776 118.315C98.1779 118.314 98.1784 118.313 98.1791 118.311C98.1805 118.308 98.1826 118.304 98.1854 118.298C98.191 118.287 98.1994 118.269 98.2105 118.246C98.2328 118.199 98.266 118.129 98.3092 118.039C98.3957 117.857 98.5224 117.59 98.683 117.25C99.0042 116.569 99.4606 115.596 100.001 114.427C101.082 112.088 102.496 108.971 103.832 105.85C105.173 102.72 106.419 99.6236 107.177 97.3124C107.561 96.1407 107.791 95.2538 107.866 94.6914C107.906 94.3872 107.879 94.3269 107.897 94.4029C107.908 94.4518 107.958 94.6358 108.133 94.8309C108.338 95.0587 108.622 95.1977 108.912 95.2268L109.211 92.2417C109.653 92.2861 110.062 92.4887 110.364 92.8254C110.638 93.1294 110.758 93.4677 110.816 93.713C110.927 94.1818 110.893 94.6835 110.84 95.0859C110.727 95.9367 110.422 97.0418 110.027 98.2469C109.227 100.689 107.937 103.885 106.59 107.031C105.238 110.187 103.812 113.332 102.724 115.685C102.18 116.863 101.72 117.843 101.396 118.53C101.234 118.873 101.106 119.143 101.018 119.328C100.974 119.42 100.941 119.491 100.918 119.538C100.906 119.562 100.898 119.581 100.892 119.593C100.889 119.599 100.886 119.604 100.885 119.607C100.884 119.609 100.884 119.61 100.883 119.611C100.883 119.611 100.883 119.611 100.883 119.612C100.883 119.612 100.883 119.612 99.5298 118.964ZM108.912 95.2268C109.319 95.2676 109.517 95.0702 109.389 95.1624C109.309 95.2194 109.157 95.3545 108.932 95.6122C108.488 96.1204 107.926 96.9105 107.28 97.9409C105.997 99.9876 104.496 102.793 103.081 105.702C101.668 108.607 100.36 111.574 99.4573 113.932C99.0043 115.115 98.6645 116.115 98.4626 116.865C98.361 117.242 98.3038 117.521 98.2797 117.71C98.2471 117.964 98.2995 117.871 98.2201 117.648L95.3931 118.652C95.2184 118.16 95.2642 117.64 95.3039 117.329C95.3522 116.952 95.4464 116.528 95.5658 116.085C95.8059 115.193 96.1863 114.084 96.6557 112.859C97.5975 110.4 98.9431 107.351 100.384 104.389C101.823 101.431 103.376 98.5203 104.738 96.3473C105.415 95.2678 106.075 94.3224 106.673 93.6378C106.969 93.2991 107.294 92.9736 107.637 92.7266C107.932 92.5148 108.498 92.1702 109.211 92.2417L108.912 95.2268ZM98.2201 117.648C98.0994 117.308 97.8862 117.126 97.8102 117.067C97.7629 117.03 97.7251 117.007 97.7047 116.995C97.6938 116.989 97.6854 116.984 97.6801 116.982C97.6748 116.979 97.6718 116.978 97.6715 116.978C97.6713 116.977 97.6785 116.981 97.6948 116.987C97.7109 116.993 97.7333 117 97.7629 117.01C97.8229 117.029 97.9028 117.051 98.0057 117.076C98.4325 117.181 99.091 117.294 99.9946 117.418C101.79 117.664 104.348 117.927 107.51 118.258C113.806 118.919 122.378 119.839 131.556 121.41C140.729 122.979 150.555 125.205 159.362 128.491C168.147 131.769 176.061 136.153 181.269 142.122L179.008 144.094C174.276 138.67 166.899 134.505 158.314 131.302C149.752 128.107 140.13 125.92 131.05 124.367C121.976 122.814 113.49 121.902 107.197 121.242C104.064 120.914 101.443 120.644 99.5868 120.39C98.6644 120.263 97.8785 120.133 97.2936 119.991C97.0077 119.921 96.706 119.833 96.441 119.714C96.3087 119.654 96.1349 119.565 95.9643 119.431C95.8048 119.307 95.5376 119.059 95.3931 118.652L98.2201 117.648ZM181.269 142.122C191.358 153.687 195.375 163.486 196.725 170.495C197.399 173.994 197.408 176.794 197.176 178.762C197.061 179.741 196.883 180.542 196.682 181.132C196.585 181.419 196.465 181.709 196.315 181.957C196.242 182.076 196.128 182.245 195.962 182.403C195.832 182.526 195.445 182.859 194.844 182.859V179.859C194.294 179.859 193.965 180.162 193.898 180.226C193.795 180.323 193.749 180.402 193.749 180.403C193.742 180.413 193.78 180.349 193.841 180.168C193.958 179.824 194.099 179.238 194.197 178.411C194.39 176.769 194.399 174.279 193.779 171.063C192.543 164.644 188.799 155.317 179.008 144.094L181.269 142.122ZM194.844 182.859C194.181 182.859 193.788 182.444 193.725 182.38C193.598 182.249 193.512 182.118 193.468 182.047C193.372 181.893 193.288 181.718 193.22 181.571C193.08 181.261 192.907 180.831 192.711 180.333C192.309 179.313 191.761 177.886 191.031 176.145C189.573 172.666 187.404 167.971 184.346 163.06C178.213 153.212 168.617 142.669 154.183 139.139L154.896 136.225C170.418 140.021 180.566 151.316 186.892 161.475C190.064 166.567 192.303 171.419 193.798 174.985C194.544 176.765 195.109 178.236 195.502 179.233C195.703 179.743 195.848 180.101 195.951 180.328C196.006 180.448 196.025 180.479 196.015 180.463C196.014 180.46 195.966 180.381 195.873 180.286C195.844 180.256 195.481 179.859 194.844 179.859V182.859ZM154.183 139.139C139.406 135.526 123.919 135.253 111.949 136.294C105.966 136.815 100.897 137.66 97.2673 138.566C95.4466 139.02 94.0283 139.478 93.0504 139.901C92.5589 140.114 92.2214 140.299 92.0114 140.444C91.7608 140.618 91.8438 140.63 91.9269 140.431L89.1593 139.274C89.4126 138.668 89.9104 138.25 90.3028 137.978C90.7357 137.678 91.2691 137.403 91.8601 137.147C93.0469 136.634 94.6391 136.129 96.5416 135.655C100.358 134.703 105.587 133.836 111.689 133.306C123.887 132.244 139.718 132.514 154.896 136.225L154.183 139.139ZM91.9269 140.431C91.9931 140.273 92.0533 140.025 91.9992 139.727C91.9446 139.426 91.7972 139.207 91.6654 139.071C91.4536 138.853 91.2633 138.829 91.3788 138.861C91.552 138.909 91.9685 138.965 92.7249 138.987C94.1835 139.029 96.4019 138.94 99.2494 138.795C104.897 138.508 112.826 138.014 121.384 138.014C129.939 138.014 139.193 138.507 147.522 140.214C155.819 141.915 163.399 144.861 168.405 149.92L166.273 152.03C161.884 147.595 154.997 144.809 146.92 143.153C138.875 141.504 129.85 141.014 121.384 141.014C112.922 141.014 105.09 141.502 99.4018 141.792C96.5815 141.935 94.2384 142.032 92.6376 141.986C91.8643 141.963 91.1266 141.905 90.5706 141.75C90.3216 141.68 89.8729 141.531 89.5151 141.163C89.3104 140.953 89.1181 140.652 89.0475 140.263C88.9774 139.877 89.0506 139.534 89.1593 139.274L91.9269 140.431ZM168.405 149.92C177.882 159.498 183.031 167.089 185.675 172.531C186.995 175.25 187.704 177.46 188.002 179.134C188.151 179.968 188.203 180.703 188.163 181.32C188.127 181.868 188.004 182.573 187.571 183.112L185.232 181.234C185.072 181.434 185.145 181.503 185.169 181.124C185.19 180.814 185.168 180.33 185.048 179.66C184.81 178.324 184.209 176.38 182.976 173.842C180.513 168.772 175.586 161.443 166.273 152.03L168.405 149.92ZM187.571 183.112C187.333 183.409 186.999 183.613 186.62 183.685C186.278 183.751 185.989 183.694 185.81 183.639C185.475 183.538 185.213 183.35 185.068 183.24C184.747 182.993 184.39 182.632 184.037 182.251C183.312 181.465 182.317 180.276 181.13 178.874C178.727 176.036 175.397 172.159 171.334 168.229C163.149 160.31 152.273 152.462 140.346 152.204L140.411 149.204C153.538 149.489 165.13 158.053 173.42 166.073C177.595 170.112 181.005 174.084 183.419 176.935C184.64 178.377 185.573 179.492 186.241 180.214C186.585 180.587 186.792 180.781 186.893 180.858C186.96 180.91 186.875 180.827 186.68 180.768C186.571 180.735 186.344 180.684 186.054 180.739C185.728 180.802 185.436 180.98 185.232 181.234L187.571 183.112ZM140.346 152.204C127.857 151.933 119.94 152.478 115.048 153.367C112.6 153.812 110.978 154.331 109.94 154.837C108.883 155.353 108.593 155.774 108.525 155.927L105.785 154.705C106.261 153.637 107.265 152.804 108.625 152.141C110.004 151.468 111.922 150.886 114.512 150.415C119.696 149.473 127.847 148.932 140.411 149.204L140.346 152.204ZM108.525 155.927C108.601 155.755 108.665 155.504 108.621 155.207C108.578 154.909 108.444 154.685 108.319 154.54C108.112 154.301 107.905 154.249 107.97 154.271C108.051 154.3 108.32 154.36 108.883 154.413C109.956 154.513 111.605 154.549 113.752 154.57C117.998 154.613 123.995 154.596 130.491 154.971C136.986 155.347 144.047 156.118 150.456 157.754C156.838 159.383 162.742 161.912 166.764 165.918L164.646 168.044C161.179 164.59 155.883 162.236 149.714 160.66C143.57 159.092 136.725 158.337 130.318 157.966C123.913 157.596 118.013 157.613 113.723 157.57C111.602 157.549 109.824 157.513 108.604 157.4C108.021 157.345 107.428 157.262 106.967 157.099C106.761 157.026 106.363 156.865 106.05 156.503C105.872 156.297 105.707 156.008 105.653 155.642C105.599 155.277 105.674 154.953 105.785 154.705L108.525 155.927ZM166.764 165.918C174.297 173.423 177.514 177.483 179.355 179.999C181.222 182.551 181.438 183.123 183.105 184.152L181.529 186.705C179.24 185.292 178.639 184.101 176.933 181.77C175.202 179.403 172.091 175.46 164.646 168.044L166.764 165.918ZM183.105 184.152C183.591 184.452 184.228 184.523 185.286 184.239C186.382 183.943 187.602 183.362 189.143 182.67C192.064 181.357 195.907 179.747 200.17 181.006L199.321 183.883C196.232 182.971 193.338 184.074 190.372 185.406C188.97 186.036 187.458 186.761 186.065 187.136C184.632 187.521 183.021 187.626 181.529 186.705L183.105 184.152ZM200.17 181.006C203.804 182.078 208.08 183.56 211.148 184.503C212.746 184.994 214.045 185.35 214.939 185.506C215.405 185.588 215.641 185.592 215.715 185.585C215.754 185.581 215.629 185.584 215.451 185.688C215.225 185.82 214.967 186.089 214.887 186.49L217.828 187.08C217.714 187.65 217.354 188.051 216.963 188.279C216.619 188.479 216.266 188.544 216.019 188.569C215.521 188.62 214.953 188.554 214.423 188.462C213.326 188.27 211.868 187.863 210.266 187.371C206.934 186.347 203.041 184.981 199.321 183.883L200.17 181.006ZM214.887 186.49C215.039 185.73 216.507 179.403 219.835 173.19C223.117 167.064 228.528 160.479 236.754 160.327L236.81 163.326C230.33 163.446 225.665 168.661 222.48 174.607C219.34 180.467 217.948 186.483 217.828 187.08L214.887 186.49ZM236.754 160.327C240.554 160.257 246.768 160.866 253.929 161.763C261.121 162.663 269.376 163.87 277.302 165.022C285.24 166.176 292.842 167.274 298.766 167.967C301.729 168.313 304.246 168.554 306.162 168.652C307.121 168.7 307.904 168.711 308.504 168.685C308.803 168.672 309.04 168.651 309.219 168.624C309.308 168.611 309.376 168.598 309.426 168.586C309.476 168.574 309.497 168.566 309.496 168.567L310.58 171.364C310.028 171.578 309.319 171.653 308.634 171.682C307.902 171.714 307.016 171.699 306.01 171.648C303.996 171.546 301.402 171.295 298.417 170.946C292.444 170.248 284.796 169.143 276.871 167.991C268.934 166.837 260.713 165.636 253.556 164.739C246.369 163.839 240.362 163.261 236.81 163.326L236.754 160.327ZM309.496 168.567C309.48 168.573 309.358 168.619 309.214 168.747C309.055 168.89 308.839 169.164 308.791 169.573C308.744 169.967 308.879 170.26 308.966 170.401C309.049 170.537 309.129 170.603 309.134 170.607C309.144 170.615 309.076 170.561 308.863 170.454C308.666 170.354 308.398 170.236 308.053 170.101C306.657 169.553 304.329 168.847 301.282 168.046C295.217 166.451 286.522 164.534 277.285 162.792C268.048 161.05 258.303 159.489 250.134 158.6C246.048 158.156 242.379 157.882 239.378 157.835C236.325 157.787 234.125 157.978 232.878 158.373L231.972 155.514C233.72 154.96 236.345 154.787 239.425 154.835C242.554 154.884 246.324 155.168 250.458 155.618C258.731 156.518 268.559 158.093 277.841 159.844C287.122 161.595 295.89 163.526 302.045 165.145C305.109 165.95 307.58 166.692 309.15 167.308C309.878 167.595 310.613 167.927 311.077 168.321C311.207 168.432 311.38 168.599 311.521 168.83C311.667 169.066 311.827 169.45 311.77 169.927C311.652 170.919 310.794 171.281 310.58 171.364L309.496 168.567ZM232.878 158.373C227.436 160.099 223.323 165.103 220.146 170.154C218.569 172.662 217.297 175.052 216.188 176.992C215.645 177.94 215.129 178.803 214.646 179.473C214.404 179.81 214.146 180.131 213.875 180.401C213.615 180.66 213.266 180.95 212.828 181.125L211.717 178.338C211.62 178.377 211.633 178.4 211.758 178.276C211.871 178.163 212.021 177.984 212.212 177.72C212.595 177.188 213.045 176.445 213.583 175.503C214.636 173.662 215.985 171.135 217.607 168.556C220.83 163.433 225.432 157.587 231.972 155.514L232.878 158.373ZM212.828 181.125C212.383 181.302 211.813 181.373 211.237 181.127C210.692 180.895 210.367 180.475 210.181 180.133C209.832 179.493 209.72 178.671 209.681 177.941C209.6 176.394 209.819 174.27 210.218 172.041C210.62 169.79 211.224 167.339 211.959 165.109C212.685 162.904 213.572 160.813 214.577 159.35L217.049 161.048C216.284 162.162 215.503 163.937 214.808 166.047C214.121 168.133 213.551 170.446 213.171 172.569C212.787 174.714 212.614 176.575 212.677 177.783C212.693 178.078 212.721 178.308 212.755 178.477C212.791 178.655 212.823 178.712 212.815 178.698C212.808 178.684 212.7 178.49 212.413 178.368C212.094 178.232 211.822 178.296 211.717 178.338L212.828 181.125ZM214.577 159.35C215.16 158.501 216.061 157.687 217.121 156.926C218.198 156.152 219.518 155.376 221.017 154.624C224.015 153.119 227.81 151.671 231.99 150.513C240.318 148.207 250.398 146.994 258.908 148.972L258.229 151.894C250.399 150.074 240.871 151.167 232.791 153.404C228.768 154.519 225.159 155.902 222.362 157.305C220.963 158.007 219.787 158.704 218.872 159.362C217.939 160.032 217.351 160.608 217.049 161.048L214.577 159.35ZM258.908 148.972C266.992 150.851 276.24 152.129 283.696 152.667C287.426 152.936 290.671 153.017 293.078 152.902C294.286 152.844 295.238 152.739 295.917 152.599C296.256 152.528 296.489 152.457 296.635 152.396C296.803 152.327 296.755 152.314 296.656 152.427L298.91 154.407C298.573 154.791 298.138 155.021 297.781 155.169C297.402 155.325 296.973 155.444 296.525 155.536C295.629 155.722 294.502 155.837 293.221 155.899C290.649 156.021 287.273 155.933 283.48 155.659C275.89 155.112 266.484 153.813 258.229 151.894L258.908 148.972ZM296.656 152.427C296.448 152.664 296.302 153.038 296.373 153.451C296.429 153.776 296.592 153.948 296.605 153.961C296.627 153.985 296.523 153.882 296.128 153.681C295.394 153.309 294.151 152.842 292.447 152.321C289.068 151.287 284.149 150.121 278.552 149.093C267.316 147.031 253.617 145.576 244.325 146.766L243.944 143.79C253.716 142.539 267.793 144.068 279.093 146.143C284.763 147.184 289.801 148.374 293.324 149.452C295.07 149.986 296.515 150.513 297.486 151.006C297.943 151.239 298.447 151.537 298.804 151.921C298.983 152.114 299.246 152.456 299.329 152.94C299.428 153.512 299.237 154.034 298.91 154.407L296.656 152.427ZM244.325 146.766C234.923 147.97 227.205 150.304 221.476 153.289C215.72 156.288 212.118 159.863 210.669 163.471L207.885 162.353C209.704 157.822 214 153.801 220.09 150.628C226.207 147.442 234.284 145.028 243.944 143.79L244.325 146.766ZM210.669 163.471C209.08 167.429 208.567 170.078 208.072 171.943C207.839 172.824 207.56 173.746 207.033 174.452C206.405 175.294 205.545 175.697 204.524 175.798L204.227 172.813C204.567 172.779 204.592 172.707 204.628 172.659C204.765 172.475 204.929 172.092 205.172 171.175C205.631 169.446 206.207 166.533 207.885 162.353L210.669 163.471ZM204.524 175.798C202.344 176.016 200.734 174.575 199.735 173.12C198.705 171.621 198.027 169.716 197.725 168.064L200.677 167.526C200.92 168.858 201.467 170.344 202.208 171.422C202.979 172.544 203.683 172.867 204.227 172.813L204.524 175.798ZM197.725 168.064C197.634 167.566 197.716 167.075 197.816 166.691C197.923 166.283 198.091 165.851 198.294 165.414C198.7 164.538 199.305 163.516 200.053 162.413C201.555 160.199 203.722 157.532 206.288 154.854C211.378 149.544 218.27 143.957 224.909 141.944L225.78 144.815C219.892 146.6 213.44 151.729 208.454 156.93C205.982 159.509 203.927 162.047 202.536 164.097C201.838 165.126 201.328 166.001 201.015 166.676C200.858 167.014 200.765 167.271 200.719 167.45C200.665 167.654 200.7 167.651 200.677 167.526L197.725 168.064ZM224.909 141.944C231.252 140.021 249.572 135.938 266.469 132.449C274.934 130.702 283.074 129.097 289.222 127.979C292.293 127.421 294.88 126.981 296.767 126.707C297.707 126.57 298.493 126.471 299.087 126.419C299.382 126.394 299.655 126.378 299.888 126.378C300.004 126.378 300.134 126.382 300.264 126.396C300.369 126.408 300.588 126.436 300.823 126.537L299.645 129.296C299.745 129.338 299.825 129.358 299.862 129.366C299.904 129.375 299.932 129.378 299.94 129.379C299.954 129.38 299.94 129.378 299.886 129.378C299.778 129.378 299.602 129.386 299.346 129.408C298.838 129.452 298.119 129.542 297.199 129.675C295.365 129.942 292.818 130.374 289.758 130.931C283.643 132.043 275.528 133.642 267.075 135.387C250.136 138.884 231.964 142.94 225.78 144.815L224.909 141.944ZM300.823 126.537C301.064 126.64 301.24 126.783 301.321 126.853C301.422 126.94 301.515 127.033 301.595 127.119C301.755 127.29 301.93 127.502 302.112 127.736C302.479 128.206 302.94 128.849 303.475 129.628C304.548 131.19 305.967 133.367 307.608 135.952C310.891 141.126 315.089 147.981 319.237 154.924C323.385 161.866 327.491 168.908 330.588 174.457C332.136 177.229 333.438 179.641 334.37 181.487C334.836 182.408 335.217 183.204 335.492 183.842C335.736 184.408 335.984 185.04 336.038 185.536L333.056 185.864C333.058 185.886 333.008 185.659 332.737 185.029C332.496 184.472 332.146 183.736 331.692 182.839C330.788 181.048 329.508 178.678 327.968 175.919C324.891 170.405 320.801 163.391 316.662 156.462C312.522 149.535 308.339 142.704 305.075 137.559C303.441 134.985 302.045 132.844 301.002 131.327C300.479 130.566 300.058 129.98 299.746 129.58C299.588 129.377 299.476 129.244 299.403 129.167C299.366 129.128 299.357 129.12 299.369 129.131C299.376 129.137 299.399 129.157 299.436 129.182C299.47 129.205 299.541 129.251 299.645 129.296L300.823 126.537ZM336.038 185.536C336.277 187.712 335.884 190.675 334.696 193.587C333.501 196.517 331.458 199.499 328.296 201.599L326.637 199.1C329.194 197.401 330.899 194.952 331.919 192.454C332.945 189.936 333.233 187.475 333.056 185.864L336.038 185.536ZM328.296 201.599C327.649 202.029 326.678 202.266 325.726 202.433C324.694 202.615 323.395 202.757 321.89 202.872C318.875 203.101 314.912 203.226 310.355 203.299C301.258 203.443 289.599 203.375 278.223 203.477C266.802 203.578 255.62 203.85 247.307 204.665C243.137 205.074 239.776 205.612 237.49 206.303C236.337 206.651 235.565 207.007 235.111 207.332C234.657 207.658 234.742 207.781 234.742 207.674H231.742C231.742 206.414 232.518 205.5 233.363 204.894C234.208 204.288 235.344 203.817 236.622 203.431C239.199 202.653 242.797 202.093 247.014 201.679C255.474 200.85 266.776 200.579 278.196 200.477C289.661 200.375 301.201 200.443 310.308 200.299C314.852 200.227 318.742 200.102 321.662 199.88C323.125 199.769 324.313 199.635 325.206 199.479C325.653 199.4 326.001 199.32 326.261 199.242C326.389 199.203 326.485 199.168 326.553 199.139C326.623 199.11 326.645 199.094 326.637 199.1L328.296 201.599ZM234.742 207.674C234.742 207.605 234.693 207.765 235.163 208.148C235.625 208.524 236.392 208.946 237.516 209.387C239.75 210.266 243.016 211.081 247.038 211.851C255.062 213.386 265.742 214.677 276.384 215.985C286.985 217.288 297.555 218.61 305.237 220.206C309.058 221 312.288 221.886 314.471 222.924C315.548 223.437 316.528 224.058 317.167 224.853C317.876 225.737 318.165 226.862 317.693 228.036L314.909 226.919C314.914 226.907 314.971 226.91 314.827 226.731C314.611 226.462 314.116 226.078 313.183 225.633C311.344 224.759 308.413 223.93 304.626 223.143C297.092 221.577 286.659 220.271 276.018 218.963C265.419 217.66 254.62 216.356 246.474 214.797C242.411 214.02 238.921 213.163 236.418 212.179C235.174 211.69 234.079 211.134 233.27 210.475C232.47 209.824 231.742 208.896 231.742 207.674H234.742ZM317.693 228.036C316.941 229.91 315.033 230.884 313.011 231.42C310.92 231.975 308.253 232.184 305.286 232.186C299.336 232.191 291.784 231.356 284.355 230.424C276.876 229.486 269.529 228.452 263.837 228.02C260.987 227.803 258.639 227.745 256.943 227.906C256.091 227.988 255.483 228.118 255.085 228.269C254.665 228.428 254.679 228.533 254.735 228.422L252.053 227.076C252.484 226.218 253.287 225.742 254.02 225.464C254.774 225.178 255.682 225.013 256.658 224.92C258.618 224.733 261.175 224.808 264.065 225.028C269.853 225.468 277.331 226.52 284.728 227.447C292.174 228.381 299.549 229.191 305.284 229.186C308.159 229.184 310.523 228.976 312.242 228.521C314.029 228.047 314.708 227.419 314.909 226.919L317.693 228.036ZM254.735 228.422C254.724 228.444 254.59 228.564 255.002 229.065C255.452 229.611 256.317 230.271 257.63 231.012C260.223 232.478 264.01 233.966 268.003 235.428C271.935 236.868 276.073 238.284 279.166 239.562C280.71 240.201 282.083 240.841 283.082 241.474C283.577 241.788 284.055 242.146 284.418 242.558C284.768 242.953 285.177 243.588 285.118 244.405L282.126 244.19C282.101 244.532 282.28 244.668 282.171 244.545C282.075 244.436 281.864 244.254 281.475 244.007C280.706 243.519 279.531 242.96 278.019 242.335C275.002 241.087 271.005 239.722 266.971 238.245C262.999 236.791 258.99 235.227 256.154 233.624C254.751 232.832 253.494 231.953 252.686 230.971C251.84 229.943 251.315 228.546 252.053 227.076L254.735 228.422ZM285.118 244.405C285.008 245.939 283.636 246.507 282.838 246.71C281.927 246.943 280.767 246.991 279.558 246.962C277.11 246.905 273.899 246.512 270.823 246.161C267.683 245.802 264.682 245.486 262.475 245.53C261.352 245.552 260.594 245.668 260.163 245.83C259.958 245.908 259.93 245.959 259.964 245.921C260.026 245.851 260.068 245.738 260.068 245.654H257.068C257.068 244.993 257.304 244.394 257.729 243.919C258.126 243.476 258.631 243.202 259.104 243.024C260.03 242.674 261.21 242.555 262.415 242.53C264.862 242.481 268.074 242.827 271.163 243.18C274.317 243.54 277.352 243.91 279.628 243.963C280.78 243.99 281.6 243.93 282.096 243.803C282.706 243.648 282.168 243.605 282.126 244.19L285.118 244.405ZM260.068 245.654C260.068 246.011 260.326 246.569 261.473 247.335C262.567 248.065 264.072 248.717 265.706 249.386C267.26 250.021 268.984 250.69 270.233 251.413C270.858 251.774 271.502 252.224 271.962 252.797C272.458 253.417 272.795 254.265 272.55 255.242L269.64 254.512C269.599 254.676 269.698 254.769 269.621 254.674C269.508 254.532 269.243 254.305 268.732 254.01C267.709 253.419 266.25 252.849 264.57 252.163C262.971 251.508 261.19 250.753 259.808 249.83C258.479 248.943 257.068 247.602 257.068 245.654H260.068ZM272.55 255.242C272.279 256.321 271.428 256.879 270.704 257.154C269.989 257.426 269.141 257.532 268.323 257.575C266.687 257.66 264.585 257.508 262.724 257.427C260.757 257.341 259.048 257.332 257.87 257.599C257.285 257.731 257.005 257.896 256.89 258.003C256.84 258.05 256.786 258.098 256.798 258.325L253.802 258.483C253.746 257.421 254.109 256.495 254.844 255.809C255.515 255.184 256.387 254.859 257.207 254.673C258.837 254.304 260.941 254.346 262.855 254.43C264.874 254.518 266.721 254.655 268.166 254.579C268.888 254.541 269.364 254.454 269.638 254.35C269.903 254.249 269.707 254.248 269.64 254.512L272.55 255.242ZM256.798 258.325C256.914 260.527 257.782 262.138 258.624 263.207C259.046 263.744 259.46 264.141 259.76 264.398C259.91 264.526 260.03 264.619 260.108 264.675C260.146 264.704 260.174 264.723 260.189 264.733C260.196 264.738 260.201 264.741 260.202 264.742C260.202 264.742 260.202 264.742 260.201 264.741C260.2 264.741 260.199 264.74 260.198 264.739C260.197 264.739 260.197 264.739 260.196 264.738C260.196 264.738 260.195 264.738 260.195 264.738C260.195 264.737 260.194 264.737 259.385 266C258.576 267.263 258.576 267.263 258.575 267.262C258.575 267.262 258.574 267.262 258.574 267.262C258.573 267.261 258.572 267.26 258.571 267.26C258.569 267.258 258.567 267.257 258.564 267.255C258.559 267.252 258.553 267.248 258.547 267.244C258.533 267.235 258.516 267.224 258.496 267.209C258.455 267.181 258.4 267.143 258.334 267.095C258.201 266.998 258.022 266.859 257.81 266.678C257.387 266.316 256.831 265.78 256.266 265.062C255.133 263.623 253.958 261.436 253.802 258.483L256.798 258.325Z" fill="black" mask="url(#path-1-outside-1_925_2423)"/>
<g style="mix-blend-mode:darken">
<path d="M2.73355 197.908L4.33719 195.548C16.1436 178.173 35.7875 167.771 56.7943 167.771C69.5851 167.771 82.2444 165.191 94.0155 160.187L134.088 143.15C165.51 129.791 201.092 130.213 232.188 144.313L325.208 186.49C327.411 187.489 329.851 187.846 332.247 187.518L415.832 176.107C418.143 175.791 420.496 176.111 422.639 177.032L455.966 191.355C459.026 192.67 461.455 195.123 462.741 198.195L466.449 207.054C467.459 209.468 467.708 212.132 467.162 214.69L463.191 233.306C461.802 239.817 455.667 244.186 449.06 243.371L364.144 232.888C362.079 232.633 359.983 232.884 358.036 233.619L263.971 269.124C260.788 270.325 257.258 270.214 254.157 268.816L163.126 227.756C161.467 227.007 159.667 226.62 157.847 226.62H33.4229C31.674 226.62 29.9436 226.263 28.3378 225.57L8.26889 216.915C0.865814 213.722 -1.79764 204.576 2.73355 197.908Z" fill="#EFE6E3"/>
</g>
</svg>
