<svg width="538" height="441" viewBox="0 0 538 441" fill="none" xmlns="http://www.w3.org/2000/svg">
<g clip-path="url(#clip0_925_2317)">
<path fill-rule="evenodd" clip-rule="evenodd" d="M266.355 105.265C234.885 100.593 202.799 100.248 171.146 104.238C169.924 122.949 169.534 142.481 175.42 160.077C181.306 177.669 194.863 193.419 212.316 196.163C230.578 199.036 249.078 186.753 258.608 169.82C268.139 152.886 267.967 124.781 266.355 105.265Z" fill="#EFE6E3"/>
<path fill-rule="evenodd" clip-rule="evenodd" d="M303.757 155.619C302.458 171.036 301.387 186.724 304.546 201.898C314.259 248.572 410.101 277.476 403.072 152.988C371.142 149.069 334.967 148.111 303.757 155.619Z" fill="#DACDC0"/>
<path fill-rule="evenodd" clip-rule="evenodd" d="M538 429.125C526.867 426.187 518.046 429.378 509.008 432.649C495.326 437.598 481.161 442.723 458.105 428.374C435.791 414.486 421.047 415.075 400.601 419.976C400.692 422.308 399.966 424.657 398.432 426.852C395.231 431.438 389.504 434.139 384.299 435.689C372.2 439.234 356.323 440.95 340.226 440.649C324.764 440.361 309.076 438.214 296.312 434.05C287.311 431.116 281.264 427.161 278.155 421.77C275.026 416.345 274.913 409.566 277.794 401.012C279.965 394.566 280.344 388.942 279.26 384.283C277.318 375.922 270.811 371.147 262.711 369.539C259.715 374.553 253.595 377.751 248.252 379.583C236.758 383.532 222.235 385.66 207.558 386.082C192.306 386.521 176.871 385.117 164.483 382.001C155.332 379.699 148.271 376.089 140.445 370.927C122.21 358.908 108.399 363.414 94.0186 368.102C78.4946 373.165 62.3304 378.437 39.4009 364.447C31.8554 359.841 23.0026 354.811 11.9198 354.593C8.21838 354.52 4.2587 354.983 -0.0022583 356.169V354.052C4.25332 352.92 8.22914 352.479 11.9602 352.551C23.5702 352.78 32.6974 357.958 40.4661 362.701C62.5913 376.202 78.301 371.077 93.3892 366.157C108.243 361.313 122.508 356.659 141.57 369.221C149.193 374.252 156.066 377.773 164.984 380.016C177.204 383.091 192.443 384.476 207.507 384.043C221.979 383.626 236.285 381.533 247.593 377.649C254.014 375.443 258.283 372.414 260.519 369.184C255.862 368.592 250.555 368.917 244.817 370.249C233.277 372.931 217.761 374.58 202.786 374.814C188.809 375.032 175.292 374.02 165.89 371.467C160.924 370.12 157.476 368.083 155.641 365.797C153.333 362.913 153.562 359.65 156.042 356.963C158.229 354.596 162.299 352.519 168.338 351.236C171.431 350.58 174.407 350.114 177.175 349.681C189.444 347.766 197.463 346.515 197.616 329.447C197.764 312.812 197.611 291.33 197.191 270.353C196.804 251.023 196.19 232.109 195.381 217.82C194.665 205.201 187.243 198.896 178.91 191.813C165.815 180.687 150.546 167.711 153.995 126.747C155.16 112.891 156.381 92.1164 157.632 70.8385C158.883 49.5633 160.163 27.7877 161.433 12.0485C162.084 3.97851 165.624 1.52523 173.53 0.946883C182.665 0.274383 192.422 -0.0268972 202.208 2.78838e-06C212.36 0.0322828 222.498 0.416953 231.97 1.11904C239.085 1.64628 243.002 3.4163 243.857 11.0425C245.848 28.8018 248.745 63.3764 250.983 90.0962C252.18 104.385 253.191 116.447 253.751 122.287C254.187 126.815 254.34 132.439 251.238 136.144C253.366 138.175 254.795 140.932 254.916 144.773C255.801 172.867 244.322 181.847 233.557 190.269C225.28 196.744 217.439 202.88 216.489 217.704C215.529 232.717 214.915 254.549 214.792 275.999C214.676 296.096 214.985 315.887 215.841 329.444C216.895 346.268 225.264 347.182 237.565 348.527C240.562 348.855 243.782 349.208 247.168 349.797C253.829 350.959 258.625 353.442 261.431 356.554C264.274 359.707 265.205 363.672 263.647 367.645C272.333 369.525 279.177 374.886 281.256 383.825C282.421 388.839 282.031 394.838 279.734 401.66C277.046 409.633 277.108 415.869 279.924 420.754C282.76 425.674 288.433 429.329 296.944 432.105C309.523 436.208 324.995 438.322 340.259 438.607C356.159 438.903 371.818 437.216 383.726 433.728C390.131 431.85 394.492 428.934 396.759 425.684C397.935 424 398.537 422.228 398.564 420.474C393.792 421.657 389.044 422.954 384.294 424.221C371.941 427.511 357.098 429.37 342.147 429.477C327.995 429.58 313.738 428.116 301.393 424.818C296.196 423.43 292.161 421.308 289.929 418.881C287.352 416.084 287.118 412.818 289.748 409.956C291.798 407.729 295.704 405.647 301.87 404.011C304.043 403.433 306.015 402.94 307.884 402.472C323.287 398.62 331.634 396.53 331.707 378.383C331.723 374.195 331.769 368.565 331.823 361.972C332.038 335.696 332.374 294.103 331.5 267.916C330.981 252.397 322.62 245.834 313.385 238.587C299.532 227.714 283.782 215.351 288.013 170.826C290.59 143.705 293.904 100.377 296.425 67.3953L297.369 55.0455C297.931 47.726 301.391 44.9391 308.554 44.4173C318.994 43.6587 330.219 43.1933 341.442 43.118C351.823 43.0481 362.16 43.3144 371.823 43.995C379.019 44.5007 382.169 47.3548 382.653 54.6447C383.656 69.7329 384.926 86.8467 386.169 103.603C387.909 127.046 389.596 149.779 390.446 165.613C390.704 170.406 389.857 173.863 387.952 176.381C390.295 178.702 391.823 181.9 391.976 186.366C393.042 217.468 380.649 227.211 368.894 236.454C359.594 243.765 350.706 250.754 349.743 268.419C348.947 283.036 348.554 302.813 348.549 322.795C348.541 343.15 348.934 363.747 349.703 379.346C350.674 399.021 358.481 400.56 380.388 404.883C386.58 406.104 393.456 408.081 397.714 413.068C399.022 414.602 399.882 416.245 400.302 417.937C421.163 412.939 436.227 412.353 459.175 426.637C481.392 440.463 495.081 435.511 508.3 430.728C517.54 427.384 526.56 424.122 537.99 427.003V429.128L538 429.125ZM398.325 418.419C397.981 417.036 397.262 415.678 396.17 414.397C392.251 409.805 385.698 408.014 380.003 406.892C356.937 402.341 348.719 400.719 347.669 379.441C346.9 363.839 346.507 343.206 346.515 322.792C346.524 302.746 346.916 282.929 347.71 268.311C348.724 249.713 357.964 242.444 367.635 234.842C378.995 225.909 390.97 216.494 389.943 186.428C389.814 182.613 388.536 179.875 386.572 177.887C383.984 180.219 380.197 181.435 375.25 182.102C364.356 183.568 352.969 184.144 341.77 184.225C330.58 184.308 319.602 183.899 309.493 183.404C306.496 183.256 303.922 182.823 301.878 182.202C294.779 180.047 294.109 175.358 301.439 172.72C303.268 172.06 305.627 171.488 308.56 171.054C318.348 169.607 329.859 168.851 341.095 168.744C352.692 168.633 363.987 169.214 372.786 170.441C377.421 171.087 382.578 172.192 386.403 175.038C387.955 172.908 388.638 169.914 388.412 165.709C387.568 150.021 385.878 127.234 384.135 103.74C382.898 87.0538 381.633 70.0072 380.619 54.7657C380.205 48.5222 377.846 46.4617 371.694 46.0286C362.039 45.348 351.753 45.0817 341.458 45.1517C330.335 45.227 319.153 45.6923 308.705 46.4509C302.572 46.8948 299.898 48.9096 299.416 55.188L298.472 67.5378C295.957 100.428 292.654 143.641 290.052 171.009C285.926 214.417 301.21 226.415 314.655 236.967C324.28 244.521 332.996 251.362 333.544 267.843C334.421 294.044 334.082 335.677 333.867 361.977C333.813 368.573 333.768 374.209 333.751 378.381C333.673 398.12 324.783 400.345 308.382 404.447C306.456 404.928 304.422 405.437 302.391 405.977C296.635 407.505 293.054 409.372 291.255 411.331C289.35 413.402 289.582 415.473 291.435 417.485C293.409 419.632 297.1 421.542 301.923 422.83C314.098 426.083 328.17 427.527 342.142 427.425C356.91 427.317 371.57 425.483 383.772 422.233C388.617 420.937 393.459 419.618 398.328 418.413L398.325 418.419ZM374.978 180.074C379.393 179.479 382.758 178.449 385.001 176.545C381.531 174.038 376.673 173.05 372.506 172.469C363.788 171.253 352.598 170.678 341.111 170.788C329.991 170.893 318.58 171.646 308.855 173.083C305.985 173.508 303.739 174.04 302.066 174.651C296.936 176.529 297.321 178.67 302.365 180.23C304.239 180.811 306.682 181.223 309.59 181.365C319.693 181.86 330.65 182.266 341.765 182.186C352.872 182.105 364.165 181.535 374.978 180.077V180.074ZM244.36 368.253C250.668 366.787 256.5 366.499 261.595 367.268C263.058 363.917 262.345 360.624 259.911 357.923C257.398 355.134 253.003 352.893 246.827 351.814C243.47 351.228 240.301 350.884 237.353 350.561C224.029 349.105 214.966 348.113 213.804 329.573C212.952 316.005 212.64 296.164 212.755 275.991C212.879 254.461 213.492 232.58 214.453 217.575C215.459 201.839 223.652 195.426 232.303 188.658C242.673 180.545 253.729 171.894 252.877 144.835C252.774 141.591 251.567 139.272 249.77 137.572C247.384 139.463 243.903 140.571 239.02 141.182C232.54 141.994 220.524 142.527 207.789 142.691C195.335 142.852 182.208 142.661 172.932 142.037C170.552 141.879 168.502 141.524 166.85 141.039C160.567 139.194 160.133 135.14 166.487 132.792C167.929 132.259 169.75 131.775 171.975 131.374C181.667 129.631 195.795 128.343 209.613 128.291C221.032 128.248 232.258 129.05 240.621 131.129C243.736 131.904 247.02 132.972 249.662 134.847C252.344 131.662 252.088 126.355 251.717 122.478C251.112 116.181 250.119 104.318 248.941 90.2629C246.7 63.5243 243.803 28.9229 241.823 11.2657C241.086 4.69674 237.926 3.61267 231.825 3.16075C222.348 2.45866 212.258 2.0713 202.205 2.04171C192.508 2.01212 182.802 2.3134 173.67 2.98321C166.797 3.48624 164.037 5.1917 163.472 12.2045C162.194 28.0513 160.916 49.7515 159.671 70.9541C158.415 92.3127 157.188 113.168 156.034 126.912C152.677 166.831 167.509 179.436 180.23 190.248C188.919 197.632 196.658 204.209 197.422 217.704C198.229 231.969 198.843 250.912 199.233 270.31C199.652 291.297 199.808 312.801 199.658 329.46C199.488 348.264 190.791 349.619 177.487 351.696C174.783 352.118 171.878 352.57 168.763 353.235C163.168 354.424 159.464 356.272 157.548 358.346C155.754 360.291 155.555 362.418 157.236 364.514C158.81 366.478 161.895 368.258 166.428 369.49C175.652 371.995 188.968 372.987 202.754 372.772H202.759C217.584 372.541 232.944 370.911 244.363 368.256L244.36 368.253ZM238.773 139.146C243.004 138.616 246.041 137.723 248.11 136.262C245.786 134.723 242.897 133.803 240.134 133.115C231.932 131.076 220.882 130.29 209.616 130.333C195.921 130.384 181.928 131.657 172.335 133.384C170.164 133.776 168.44 134.231 167.127 134.721C162.869 136.308 163.103 137.803 167.335 139.062C168.83 139.509 170.764 139.84 173.07 139.993C182.326 140.614 195.391 140.805 207.768 140.647C220.395 140.483 232.322 139.955 238.776 139.146H238.773Z" fill="black"/>
</g>
<defs>
<clipPath id="clip0_925_2317">
<rect width="538" height="440.681" fill="white" transform="translate(-0.000244141)"/>
</clipPath>
</defs>
</svg>
