<svg width="494" height="473" viewBox="0 0 494 473" fill="none" xmlns="http://www.w3.org/2000/svg">
<g clip-path="url(#clip0_925_2265)">
<path d="M220 173.5C206 199.1 211.5 237.5 216 253.5C220.399 262.3 230.166 265.167 234.5 265.5C263.7 268.3 267.667 255.333 266 248.5C261.5 240.333 253.2 219.1 256 199.5C258.8 179.9 252.167 163 248.5 157C244.833 151.833 234 147.9 220 173.5Z" fill="#EFE6E3"/>
<mask id="path-2-inside-1_925_2265" fill="white">
<path d="M229.498 158.944C231.722 156.117 234.582 153.352 238.283 152.802C240.786 152.363 243.194 153.656 244.892 155.412C248.293 159.031 250.025 163.888 251.076 168.664C253.489 180.585 249.759 192.665 251.221 204.648C252.229 215.72 254.55 226.632 255.534 237.709C256.089 243.729 255.259 250.102 252.036 255.322C249.456 259.471 245.056 262.38 240.261 263.258C239.165 263.441 237.882 263.658 237.66 264.966C239.325 265.216 240.999 265.429 242.678 265.622C263.919 267.855 285.14 270.272 306.376 272.549C317.646 274.098 328.828 276.249 340.074 277.986C354.956 280.456 369.965 282.222 385.035 283.023C401.447 283.462 417.932 283.206 434.189 280.712C441.464 279.757 448.619 278.092 455.869 277.002C468.504 275.14 481.23 273.755 494 273.384V275.342C480.362 275.83 466.748 277.176 453.288 279.409C441.537 281.638 429.727 283.737 417.782 284.561C400.41 285.883 382.918 285.512 365.603 283.626C350.581 282.106 335.703 279.482 320.839 276.881C315.673 276.037 310.549 274.903 305.334 274.378C282.801 272.033 260.281 269.515 237.757 267.074C236.913 273.48 236.338 279.925 236.121 286.38C255.399 288.474 274.894 288.266 294.162 286.12C304.452 284.943 314.747 283.24 325.143 283.683C343.595 284.393 361.874 287.345 380.052 290.423C395.017 292.994 409.952 295.715 424.975 297.92C435.545 299.353 446.153 300.665 456.834 300.761C469.536 300.67 482.393 298.605 494 293.279V295.117C484.337 299.69 473.767 302.286 463.106 302.903C450.847 303.487 438.618 302.088 426.49 300.452C410.165 298.175 393.97 295.083 377.732 292.285C359.53 289.265 341.256 286.076 322.769 285.652C311.095 285.329 299.613 287.745 288.035 288.759C270.716 290.269 253.218 290.394 235.938 288.363C235.895 294.157 235.374 299.931 235.422 305.725C235.388 309.768 235.388 313.816 235.374 317.868C246.214 315.581 257.126 313.478 268.178 312.542C279.617 311.939 291.074 312.774 302.454 313.912C310.535 314.631 318.548 315.953 326.633 316.585C344.965 318.331 363.379 316.749 381.658 315.181C409.422 312.634 437.18 309.614 465.079 309.093C474.718 308.9 484.361 308.914 494 309.059V311.196C468.253 310.487 442.492 311.659 416.846 313.931C400.415 315.383 384.013 317.144 367.577 318.476C351.7 319.798 335.66 319.827 319.86 317.636C303.54 315.668 287.118 313.685 270.648 314.438C258.728 315.321 247 317.742 235.263 319.889C235.219 325.939 235.079 331.988 235.089 338.043C244.713 338.366 254.367 338.004 263.894 336.562C286.38 333.069 309.165 331.863 331.901 331.964C341.275 332.123 350.648 332.283 360.022 332.567C366.602 332.818 373.168 332.128 379.734 331.771C405.138 329.928 430.407 326.691 455.662 323.449C468.456 321.809 481.245 320.121 494 318.225V320.256C482.586 322.026 471.119 323.483 459.656 324.935C436.124 328.042 412.558 330.97 388.909 333.03C379.898 333.773 370.876 334.671 361.826 334.603C343.822 334.357 325.808 333.715 307.809 334.478C293.612 335.023 279.419 336.214 265.385 338.462C258.829 339.476 252.186 339.514 245.577 339.823C242.036 339.953 238.495 339.731 234.954 339.779C234.993 342.65 235.012 345.52 235.108 348.391C246.286 345.472 257.623 342.857 269.201 342.307C277.561 341.772 285.941 342.293 294.268 343.07C303.4 344.025 312.682 344.469 321.78 342.939C329.364 341.864 336.769 339.418 344.483 339.389C354.324 338.974 364.084 340.793 373.612 343.084C386.671 346.225 400.126 346.953 413.479 347.725C425.347 348.463 437.349 348.511 448.995 351.198C463.955 354.6 478.538 360.21 494 360.939V362.892C482.745 362.14 471.784 359.26 460.983 356.163C455.855 354.783 450.717 353.413 445.507 352.38C432.703 349.983 419.635 350.094 406.686 349.167C398.755 348.666 390.81 348.096 382.951 346.89C375.676 345.834 368.638 343.6 361.377 342.467C352.467 341.116 343.291 340.788 334.415 342.563C326.431 344.15 318.384 345.752 310.217 345.81C301.161 345.974 292.198 344.44 283.167 344.088C266.958 343.084 250.83 346.061 235.224 350.19C235.277 352.294 235.316 354.397 235.374 356.5C270.677 357.489 305.947 359.853 341.058 363.669C367.186 366.351 393.251 369.714 419.147 374.118C429.949 375.836 440.654 378.18 451.518 379.517C465.624 381.244 479.797 382.493 494 382.966V384.925C481.848 384.375 469.715 383.424 457.625 382.073C446.496 380.925 435.506 378.754 424.483 376.902C400.815 372.743 376.989 369.579 353.109 366.916C318.973 363.066 284.706 360.456 250.391 358.883C245.394 358.806 240.42 358.271 235.422 358.333C235.489 362.526 235.682 366.718 235.89 370.91C266.461 373.457 296.853 377.78 327.188 382.324C350.933 386.02 374.61 390.188 398.471 393.077C410.98 394.558 423.542 395.702 436.138 395.962C455.493 396.348 474.819 394.578 494 392.151V394.23C482.267 395.499 470.545 396.932 458.754 397.506C447.046 398.177 435.299 398.104 423.595 397.405C410.006 396.507 396.483 394.829 382.99 393.024C378.518 392.407 374.06 391.543 369.53 391.519C354.585 390.762 339.606 391.186 324.68 392.089C310.969 392.875 297.288 394.153 283.679 395.948C267.788 397.974 251.897 400.203 236.271 403.787C236.334 406.552 236.406 409.321 236.387 412.09C244.405 410.729 251.863 407.333 259.683 405.234C274.927 401.245 290.65 399.479 306.338 398.379C321.587 397.439 336.88 396.782 352.163 397.082C378.132 397.863 404.144 399.05 429.876 402.837C440.519 404.356 451.021 406.687 461.596 408.607C472.277 410.551 483.16 411.024 494 410.86V412.895C487.714 412.842 481.409 413.05 475.142 412.452C462.44 411.467 450.066 408.279 437.547 406.098C415.056 402.427 392.286 400.835 369.54 399.822C356.201 399.238 342.838 399.026 329.489 399.416C307.163 400.034 284.687 401.529 262.944 406.952C255.939 408.611 249.113 410.946 242.123 412.664C235.432 414.343 228.552 414.926 221.711 415.635C206.24 416.702 191.203 420.672 176.113 423.986C167.839 425.935 159.696 428.391 151.514 430.692C142.975 433.118 134.581 436.003 126.105 438.642C105.313 444.745 84.5879 451.653 62.9657 454.171C69.5073 454.113 75.9863 452.917 82.499 452.357C91.9593 451.243 101.444 450.24 110.856 448.715C115.487 448.045 119.694 445.888 124.002 444.19C136.882 438.936 149.908 433.051 163.994 432.212C173.667 431.425 183.426 431.666 193.027 430.113C200.398 429.066 207.49 426.712 214.504 424.3C224.008 420.928 233.724 418.12 243.633 416.219C258.863 413.455 274.44 412.152 289.892 413.561C301.658 414.521 313.381 416.171 324.892 418.815C335.317 421.246 345.308 425.226 354.884 429.963C363.852 434.426 372.869 438.869 382.358 442.125C401.322 448.71 421.41 451.05 441.315 452.772C458.836 454.138 476.425 454.634 494 454.234V456.405C470.014 456.68 445.994 455.643 422.196 452.57C410.006 451.132 397.858 449.058 386.073 445.579C377.862 443.158 369.945 439.819 362.289 436.013C353.48 431.618 344.821 426.76 335.38 423.822C323.932 420.199 312.021 418.284 300.124 416.851C291.455 415.867 282.733 415.187 274.001 415.361C258.892 415.756 243.888 418.294 229.3 422.177C226.608 422.935 223.853 423.441 221.176 424.237C237.279 422.568 253.46 421.309 269.659 421.487C282.796 421.545 296.004 423.33 308.436 427.682C319.899 431.618 331.101 436.273 342.1 441.344C350.561 445.28 359.293 448.667 368.29 451.176C388.34 456.868 409.05 459.898 429.775 461.774C441.358 462.71 453.013 463.222 464.611 462.271C474.438 461.572 484.25 460.563 494 459.131V461.552C482.219 463.169 470.352 464.182 458.474 464.761C447.789 465.209 437.113 464.259 426.475 463.342C403.681 460.901 380.795 457.606 358.941 450.447C347.599 446.781 337.078 441.098 326.122 436.476C315.933 432.134 305.441 428.396 294.576 426.167C280.678 423.32 266.413 423.538 252.311 424.063C240.883 424.691 229.44 425.294 218.064 426.601C213.235 427.05 208.729 428.897 204.103 430.2C193.437 433.249 182.283 434.117 171.231 434.098C165.456 434.257 159.561 434.122 153.955 435.743C148.026 437.431 142.261 439.646 136.463 441.73C132.907 443.023 129.202 443.925 125.787 445.575C132.801 443.447 140.105 442.506 147.129 440.408C153.917 438.459 160.97 437.832 167.936 436.881C175.163 435.81 182.389 434.735 189.635 433.803C197.282 432.626 204.967 431.695 212.7 431.343C222.068 430.967 231.437 431.782 240.733 432.906C250.015 433.929 259.422 435.55 267.865 439.732C274.045 442.719 279.192 447.398 283.799 452.406C291.262 460.38 300.303 466.599 309.314 472.667H305.841C298.986 468.456 292.637 463.463 286.737 458.007C281.768 453.477 277.272 448.373 271.666 444.59C266.142 440.808 259.697 438.608 253.209 437.176C244.487 435.4 235.62 434.455 226.753 433.746C218.402 433.09 209.979 433.201 201.667 434.281C192.39 435.444 183.137 436.823 173.86 438.02C167.535 438.951 161.153 439.395 154.833 440.389C151.919 440.852 148.996 441.329 146.048 441.566C155.248 441.696 164.482 441.32 173.653 442.275C188.685 443.63 203.447 447.61 217.23 453.737C228.325 458.576 238.881 464.799 248.11 472.667H245.828C240.521 469.199 235.441 465.354 229.893 462.257C212.087 451.75 191.806 445.555 171.202 444.021C161.742 443.23 152.233 443.519 142.758 443.857C134.731 444.272 127.137 447.147 119.303 448.691C111.661 450.717 103.764 451.34 95.9537 452.343C79.4549 454.403 62.9175 456.27 46.3173 457.259C35.0431 457.934 23.711 457.761 12.4754 456.598C8.3073 456.236 4.16813 455.604 0 455.233V453.351C8.49063 454.355 17.0102 455.397 25.5732 455.377C42.2602 455.43 58.8892 453.356 75.2819 450.331C84.8918 448.382 94.4293 446.052 103.846 443.327C109.611 441.489 115.448 439.897 121.199 438.015C88.0516 443.708 54.4124 447.466 20.7345 446.568C13.8117 446.26 6.91311 445.579 0 445.131V443.611C9.01164 443.746 17.975 444.957 26.9963 444.75C46.684 444.957 66.333 443.346 85.8856 441.214C99.2583 439.602 112.621 437.861 125.902 435.588C131.595 434.894 137.032 433.017 142.512 431.43C157.694 426.808 173.103 422.906 188.019 417.459C196.654 414.569 205.299 411.684 213.911 408.708C218.238 407.203 222.421 405.288 226.82 403.98C226.651 393.314 226.101 382.657 225.754 371.996C191.575 369.53 157.173 369.222 123.027 372.304C99.3837 374.162 75.8319 376.974 52.1836 378.778C35.4677 380.023 18.6938 381.191 1.92004 380.467C1.83803 379.821 1.75602 379.179 1.674 378.542C17.7145 378.933 33.7406 378.04 49.728 376.902C83.5072 374.388 117.142 370.008 150.998 368.513C164.332 368.213 177.676 367.808 191.005 368.363C202.598 368.522 214.162 369.323 225.725 370.085C225.677 366.163 225.33 362.251 225.277 358.324C188.574 359.728 151.963 362.695 115.313 365.078C100.691 365.869 86.0641 366.578 71.4274 367.027C47.6247 367.784 23.8123 368.469 0 368.358V366.713C29.5821 366.096 59.1594 365.266 88.7126 363.92C126.404 362.154 164.009 358.936 201.696 357.021C205.463 357.055 208.961 355.56 212.55 354.643C216.733 353.504 220.906 352.342 225.084 351.203C224.939 347.083 224.799 342.959 224.756 338.839C213.592 337.208 202.569 334.748 191.483 332.654C180.117 330.43 168.732 328.307 157.308 326.412C148.359 324.781 139.343 323.43 130.244 323.068C121.426 322.407 112.578 321.988 103.73 322.166C92.8469 322.297 82.0069 323.739 71.3984 326.132C51.156 330.565 30.7833 334.7 10.1212 336.61C6.75391 336.774 3.34801 337.517 0 336.866V335.322C12.625 334.907 25.1487 333.088 37.5903 331.019C48.0685 329.325 58.4309 327.024 68.7982 324.762C78.5142 322.538 88.4086 321.028 98.3658 320.507C104.637 320.068 110.928 320.246 117.209 320.27C119.631 320.304 122.004 319.802 124.388 319.441C145.002 316.749 165.62 320.618 186.118 322.489C192.385 323.035 198.705 323.483 204.976 322.769C211.306 322.21 217.587 321.23 223.844 320.145C223.96 314.288 223.4 308.451 223.274 302.599C222.898 297.244 222.845 291.875 222.43 286.52C212.656 284.672 203.254 281.238 193.417 279.679C181.178 277.542 168.664 277.248 156.295 278.256C134.543 280.123 113.398 285.816 92.2391 290.905C62.3 298.344 31.917 304.572 1.08063 306.623C0.858711 305.841 0.636797 305.074 0.405234 304.307C24.2031 303.12 47.7791 299.111 70.9498 293.655C82.2288 291.084 93.4548 288.281 104.695 285.536C124.759 280.48 145.175 276.018 165.948 275.632C179.63 275.222 193.34 276.963 206.554 280.509C211.783 281.952 217.037 283.37 222.396 284.243C222.141 277.865 221.697 271.498 221.268 265.134C219.396 264.835 217.5 264.763 215.614 264.883C184.386 266.056 153.579 272.009 123.157 278.85C100.783 284.291 78.1137 289.593 54.9671 289.863C36.3215 290.24 17.7097 286.988 0 281.257V279.428C16.2576 284.368 33.1569 287.417 50.1767 287.625C67.2351 287.779 84.1874 285.131 100.841 281.609C111.965 279.187 122.998 276.346 134.157 274.054C158.321 268.95 182.756 264.806 207.432 263.32C211.967 263.21 216.501 262.688 221.036 263.113C220.877 261.381 221.065 259.451 219.951 257.98C218.759 256.238 217.485 254.536 216.632 252.591C214.176 247.434 214.205 241.611 213.549 236.049C211.402 216.419 212.772 196.138 219.589 177.488C222.083 170.927 225.18 164.511 229.498 158.944ZM237.602 154.11C232.957 155.837 229.98 160.174 227.64 164.323C223.612 171.829 221.403 180.127 219.212 188.314C216.911 197.89 215.141 207.635 214.687 217.486C214.605 223.607 215.223 229.71 215.7 235.808C216.439 242.533 216.246 249.846 220.337 255.621C219.299 249.89 219.323 244.028 218.653 238.249C218.334 233.063 217.292 227.944 217.071 222.754C216.902 219.034 217.538 215.025 220.057 212.126C223.414 208.049 229.7 206.863 234.341 209.362C238.398 211.581 241.703 215.242 243.406 219.546C244.959 223.497 244.39 227.805 243.835 231.891C242.306 241.954 239.908 251.868 238.476 261.95C242.827 261.198 247.116 259.123 249.788 255.51C253.267 251.048 254.207 245.196 254.145 239.677C253.513 228.591 250.469 217.833 249.364 206.8C248.481 199.457 248.698 192.023 249.407 184.676C250.28 175.78 249.566 166.363 245.307 158.35C243.893 155.625 240.873 152.913 237.602 154.11ZM222.633 212.319C220.115 214.543 219.155 218.04 219.198 221.306C219.333 226.406 220.144 231.447 220.645 236.517C221.475 243.739 221.74 251.019 222.517 258.241C225.798 261.497 230.709 262.061 235.103 262.259C236.01 257.546 236.884 252.823 238.012 248.153C239.696 240.507 242.412 233.048 243.117 225.209C243.445 219.01 238.9 213.737 233.676 211.016C230.178 209.188 225.571 209.637 222.633 212.319ZM222.382 260.407C222.416 261.232 222.464 262.066 222.517 262.901C226.69 263.875 230.964 264.517 235.248 264.681C235.113 264.546 234.833 264.266 234.698 264.131C230.487 263.513 225.773 263.311 222.382 260.407ZM222.864 265.168C223.516 271.136 224.099 277.108 224.423 283.1C224.534 283.65 224.379 284.422 224.949 284.769C227.583 285.333 230.274 285.546 232.933 285.989C233.135 279.559 233.936 273.167 234.568 266.765C230.665 266.254 226.762 265.718 222.864 265.168ZM224.567 286.805C225.286 297.785 225.561 308.784 226.227 319.769C228.292 319.32 230.361 318.9 232.45 318.596C232.523 308.393 232.354 298.18 232.754 287.987C230.009 287.697 227.288 287.234 224.567 286.805ZM125.324 320.796C132.425 321.385 139.579 321.708 146.618 322.948C158.355 324.921 170.131 326.677 181.83 328.896C193.745 331.149 205.647 333.503 217.577 335.689C219.898 336.089 222.208 336.615 224.572 336.75C224.297 331.824 224.384 326.88 223.906 321.968C216.053 323.339 208.17 324.699 200.191 325.046C189.833 325.21 179.524 324.024 169.253 322.871C159.648 321.761 150.024 320.767 140.365 320.285C135.353 320.352 130.307 320.111 125.324 320.796ZM226.169 321.616C226.227 326.812 226.782 331.998 226.743 337.199C228.769 337.589 230.834 337.594 232.884 337.758C232.566 332.003 232.532 326.238 232.455 320.473C230.347 320.791 228.253 321.177 226.169 321.616ZM226.767 339.032C226.979 342.915 227.235 346.799 227.279 350.687C229.189 350.127 231.104 349.577 233.01 349.013C233.01 345.877 233.005 342.746 232.986 339.615C230.906 339.5 228.832 339.287 226.767 339.032ZM227.37 352.491C227.414 353.794 227.423 355.101 227.414 356.409C229.271 356.486 231.128 356.495 232.986 356.438C232.995 354.517 233 352.597 233.01 350.682C231.133 351.295 229.232 351.84 227.37 352.491ZM210.789 356.722C215.609 356.775 220.423 356.346 225.252 356.404C225.204 355.27 225.161 354.136 225.117 353.008C220.337 354.247 215.604 355.642 210.789 356.722ZM227.404 358.285C227.862 362.294 227.631 366.346 228.026 370.365C229.657 370.437 231.288 370.548 232.923 370.645C232.904 366.525 232.822 362.405 232.904 358.29C231.07 358.28 229.237 358.251 227.404 358.285ZM228.079 372.285C228.422 382.575 229.025 392.86 229.305 403.155C230.525 402.813 231.76 402.494 232.976 402.128C232.976 392.277 232.947 382.416 232.812 372.57C231.249 372.29 229.657 372.333 228.079 372.285ZM235.871 372.772C235.972 382.295 236.353 391.809 236.319 401.332C244.125 399.31 252.104 398.085 260.059 396.84C276.056 394.558 292.106 392.629 308.219 391.394C323.319 390.183 338.462 389.233 353.62 389.262C356.886 389.199 360.138 389.797 363.399 389.483C349.944 387.978 336.605 385.614 323.223 383.612C308.9 381.625 294.605 379.401 280.258 377.625C265.506 375.619 250.691 374.176 235.871 372.772ZM229.527 405.553C229.609 408.037 229.681 410.527 229.758 413.016C230.829 412.9 231.895 412.794 232.966 412.688C233.097 409.991 232.995 407.294 233.082 404.603C231.9 404.945 230.709 405.234 229.527 405.553ZM187.141 419.509C187.802 419.432 188.463 419.365 189.119 419.239C197.417 417.377 205.806 415.959 214.215 414.704C218.523 414.015 222.884 413.807 227.206 413.233C227.066 410.927 226.979 408.616 226.917 406.31C213.578 410.464 200.456 415.283 187.141 419.509Z"/>
</mask>
<path d="M229.498 158.944C231.722 156.117 234.582 153.352 238.283 152.802C240.786 152.363 243.194 153.656 244.892 155.412C248.293 159.031 250.025 163.888 251.076 168.664C253.489 180.585 249.759 192.665 251.221 204.648C252.229 215.72 254.55 226.632 255.534 237.709C256.089 243.729 255.259 250.102 252.036 255.322C249.456 259.471 245.056 262.38 240.261 263.258C239.165 263.441 237.882 263.658 237.66 264.966C239.325 265.216 240.999 265.429 242.678 265.622C263.919 267.855 285.14 270.272 306.376 272.549C317.646 274.098 328.828 276.249 340.074 277.986C354.956 280.456 369.965 282.222 385.035 283.023C401.447 283.462 417.932 283.206 434.189 280.712C441.464 279.757 448.619 278.092 455.869 277.002C468.504 275.14 481.23 273.755 494 273.384V275.342C480.362 275.83 466.748 277.176 453.288 279.409C441.537 281.638 429.727 283.737 417.782 284.561C400.41 285.883 382.918 285.512 365.603 283.626C350.581 282.106 335.703 279.482 320.839 276.881C315.673 276.037 310.549 274.903 305.334 274.378C282.801 272.033 260.281 269.515 237.757 267.074C236.913 273.48 236.338 279.925 236.121 286.38C255.399 288.474 274.894 288.266 294.162 286.12C304.452 284.943 314.747 283.24 325.143 283.683C343.595 284.393 361.874 287.345 380.052 290.423C395.017 292.994 409.952 295.715 424.975 297.92C435.545 299.353 446.153 300.665 456.834 300.761C469.536 300.67 482.393 298.605 494 293.279V295.117C484.337 299.69 473.767 302.286 463.106 302.903C450.847 303.487 438.618 302.088 426.49 300.452C410.165 298.175 393.97 295.083 377.732 292.285C359.53 289.265 341.256 286.076 322.769 285.652C311.095 285.329 299.613 287.745 288.035 288.759C270.716 290.269 253.218 290.394 235.938 288.363C235.895 294.157 235.374 299.931 235.422 305.725C235.388 309.768 235.388 313.816 235.374 317.868C246.214 315.581 257.126 313.478 268.178 312.542C279.617 311.939 291.074 312.774 302.454 313.912C310.535 314.631 318.548 315.953 326.633 316.585C344.965 318.331 363.379 316.749 381.658 315.181C409.422 312.634 437.18 309.614 465.079 309.093C474.718 308.9 484.361 308.914 494 309.059V311.196C468.253 310.487 442.492 311.659 416.846 313.931C400.415 315.383 384.013 317.144 367.577 318.476C351.7 319.798 335.66 319.827 319.86 317.636C303.54 315.668 287.118 313.685 270.648 314.438C258.728 315.321 247 317.742 235.263 319.889C235.219 325.939 235.079 331.988 235.089 338.043C244.713 338.366 254.367 338.004 263.894 336.562C286.38 333.069 309.165 331.863 331.901 331.964C341.275 332.123 350.648 332.283 360.022 332.567C366.602 332.818 373.168 332.128 379.734 331.771C405.138 329.928 430.407 326.691 455.662 323.449C468.456 321.809 481.245 320.121 494 318.225V320.256C482.586 322.026 471.119 323.483 459.656 324.935C436.124 328.042 412.558 330.97 388.909 333.03C379.898 333.773 370.876 334.671 361.826 334.603C343.822 334.357 325.808 333.715 307.809 334.478C293.612 335.023 279.419 336.214 265.385 338.462C258.829 339.476 252.186 339.514 245.577 339.823C242.036 339.953 238.495 339.731 234.954 339.779C234.993 342.65 235.012 345.52 235.108 348.391C246.286 345.472 257.623 342.857 269.201 342.307C277.561 341.772 285.941 342.293 294.268 343.07C303.4 344.025 312.682 344.469 321.78 342.939C329.364 341.864 336.769 339.418 344.483 339.389C354.324 338.974 364.084 340.793 373.612 343.084C386.671 346.225 400.126 346.953 413.479 347.725C425.347 348.463 437.349 348.511 448.995 351.198C463.955 354.6 478.538 360.21 494 360.939V362.892C482.745 362.14 471.784 359.26 460.983 356.163C455.855 354.783 450.717 353.413 445.507 352.38C432.703 349.983 419.635 350.094 406.686 349.167C398.755 348.666 390.81 348.096 382.951 346.89C375.676 345.834 368.638 343.6 361.377 342.467C352.467 341.116 343.291 340.788 334.415 342.563C326.431 344.15 318.384 345.752 310.217 345.81C301.161 345.974 292.198 344.44 283.167 344.088C266.958 343.084 250.83 346.061 235.224 350.19C235.277 352.294 235.316 354.397 235.374 356.5C270.677 357.489 305.947 359.853 341.058 363.669C367.186 366.351 393.251 369.714 419.147 374.118C429.949 375.836 440.654 378.18 451.518 379.517C465.624 381.244 479.797 382.493 494 382.966V384.925C481.848 384.375 469.715 383.424 457.625 382.073C446.496 380.925 435.506 378.754 424.483 376.902C400.815 372.743 376.989 369.579 353.109 366.916C318.973 363.066 284.706 360.456 250.391 358.883C245.394 358.806 240.42 358.271 235.422 358.333C235.489 362.526 235.682 366.718 235.89 370.91C266.461 373.457 296.853 377.78 327.188 382.324C350.933 386.02 374.61 390.188 398.471 393.077C410.98 394.558 423.542 395.702 436.138 395.962C455.493 396.348 474.819 394.578 494 392.151V394.23C482.267 395.499 470.545 396.932 458.754 397.506C447.046 398.177 435.299 398.104 423.595 397.405C410.006 396.507 396.483 394.829 382.99 393.024C378.518 392.407 374.06 391.543 369.53 391.519C354.585 390.762 339.606 391.186 324.68 392.089C310.969 392.875 297.288 394.153 283.679 395.948C267.788 397.974 251.897 400.203 236.271 403.787C236.334 406.552 236.406 409.321 236.387 412.09C244.405 410.729 251.863 407.333 259.683 405.234C274.927 401.245 290.65 399.479 306.338 398.379C321.587 397.439 336.88 396.782 352.163 397.082C378.132 397.863 404.144 399.05 429.876 402.837C440.519 404.356 451.021 406.687 461.596 408.607C472.277 410.551 483.16 411.024 494 410.86V412.895C487.714 412.842 481.409 413.05 475.142 412.452C462.44 411.467 450.066 408.279 437.547 406.098C415.056 402.427 392.286 400.835 369.54 399.822C356.201 399.238 342.838 399.026 329.489 399.416C307.163 400.034 284.687 401.529 262.944 406.952C255.939 408.611 249.113 410.946 242.123 412.664C235.432 414.343 228.552 414.926 221.711 415.635C206.24 416.702 191.203 420.672 176.113 423.986C167.839 425.935 159.696 428.391 151.514 430.692C142.975 433.118 134.581 436.003 126.105 438.642C105.313 444.745 84.5879 451.653 62.9657 454.171C69.5073 454.113 75.9863 452.917 82.499 452.357C91.9593 451.243 101.444 450.24 110.856 448.715C115.487 448.045 119.694 445.888 124.002 444.19C136.882 438.936 149.908 433.051 163.994 432.212C173.667 431.425 183.426 431.666 193.027 430.113C200.398 429.066 207.49 426.712 214.504 424.3C224.008 420.928 233.724 418.12 243.633 416.219C258.863 413.455 274.44 412.152 289.892 413.561C301.658 414.521 313.381 416.171 324.892 418.815C335.317 421.246 345.308 425.226 354.884 429.963C363.852 434.426 372.869 438.869 382.358 442.125C401.322 448.71 421.41 451.05 441.315 452.772C458.836 454.138 476.425 454.634 494 454.234V456.405C470.014 456.68 445.994 455.643 422.196 452.57C410.006 451.132 397.858 449.058 386.073 445.579C377.862 443.158 369.945 439.819 362.289 436.013C353.48 431.618 344.821 426.76 335.38 423.822C323.932 420.199 312.021 418.284 300.124 416.851C291.455 415.867 282.733 415.187 274.001 415.361C258.892 415.756 243.888 418.294 229.3 422.177C226.608 422.935 223.853 423.441 221.176 424.237C237.279 422.568 253.46 421.309 269.659 421.487C282.796 421.545 296.004 423.33 308.436 427.682C319.899 431.618 331.101 436.273 342.1 441.344C350.561 445.28 359.293 448.667 368.29 451.176C388.34 456.868 409.05 459.898 429.775 461.774C441.358 462.71 453.013 463.222 464.611 462.271C474.438 461.572 484.25 460.563 494 459.131V461.552C482.219 463.169 470.352 464.182 458.474 464.761C447.789 465.209 437.113 464.259 426.475 463.342C403.681 460.901 380.795 457.606 358.941 450.447C347.599 446.781 337.078 441.098 326.122 436.476C315.933 432.134 305.441 428.396 294.576 426.167C280.678 423.32 266.413 423.538 252.311 424.063C240.883 424.691 229.44 425.294 218.064 426.601C213.235 427.05 208.729 428.897 204.103 430.2C193.437 433.249 182.283 434.117 171.231 434.098C165.456 434.257 159.561 434.122 153.955 435.743C148.026 437.431 142.261 439.646 136.463 441.73C132.907 443.023 129.202 443.925 125.787 445.575C132.801 443.447 140.105 442.506 147.129 440.408C153.917 438.459 160.97 437.832 167.936 436.881C175.163 435.81 182.389 434.735 189.635 433.803C197.282 432.626 204.967 431.695 212.7 431.343C222.068 430.967 231.437 431.782 240.733 432.906C250.015 433.929 259.422 435.55 267.865 439.732C274.045 442.719 279.192 447.398 283.799 452.406C291.262 460.38 300.303 466.599 309.314 472.667H305.841C298.986 468.456 292.637 463.463 286.737 458.007C281.768 453.477 277.272 448.373 271.666 444.59C266.142 440.808 259.697 438.608 253.209 437.176C244.487 435.4 235.62 434.455 226.753 433.746C218.402 433.09 209.979 433.201 201.667 434.281C192.39 435.444 183.137 436.823 173.86 438.02C167.535 438.951 161.153 439.395 154.833 440.389C151.919 440.852 148.996 441.329 146.048 441.566C155.248 441.696 164.482 441.32 173.653 442.275C188.685 443.63 203.447 447.61 217.23 453.737C228.325 458.576 238.881 464.799 248.11 472.667H245.828C240.521 469.199 235.441 465.354 229.893 462.257C212.087 451.75 191.806 445.555 171.202 444.021C161.742 443.23 152.233 443.519 142.758 443.857C134.731 444.272 127.137 447.147 119.303 448.691C111.661 450.717 103.764 451.34 95.9537 452.343C79.4549 454.403 62.9175 456.27 46.3173 457.259C35.0431 457.934 23.711 457.761 12.4754 456.598C8.3073 456.236 4.16813 455.604 0 455.233V453.351C8.49063 454.355 17.0102 455.397 25.5732 455.377C42.2602 455.43 58.8892 453.356 75.2819 450.331C84.8918 448.382 94.4293 446.052 103.846 443.327C109.611 441.489 115.448 439.897 121.199 438.015C88.0516 443.708 54.4124 447.466 20.7345 446.568C13.8117 446.26 6.91311 445.579 0 445.131V443.611C9.01164 443.746 17.975 444.957 26.9963 444.75C46.684 444.957 66.333 443.346 85.8856 441.214C99.2583 439.602 112.621 437.861 125.902 435.588C131.595 434.894 137.032 433.017 142.512 431.43C157.694 426.808 173.103 422.906 188.019 417.459C196.654 414.569 205.299 411.684 213.911 408.708C218.238 407.203 222.421 405.288 226.82 403.98C226.651 393.314 226.101 382.657 225.754 371.996C191.575 369.53 157.173 369.222 123.027 372.304C99.3837 374.162 75.8319 376.974 52.1836 378.778C35.4677 380.023 18.6938 381.191 1.92004 380.467C1.83803 379.821 1.75602 379.179 1.674 378.542C17.7145 378.933 33.7406 378.04 49.728 376.902C83.5072 374.388 117.142 370.008 150.998 368.513C164.332 368.213 177.676 367.808 191.005 368.363C202.598 368.522 214.162 369.323 225.725 370.085C225.677 366.163 225.33 362.251 225.277 358.324C188.574 359.728 151.963 362.695 115.313 365.078C100.691 365.869 86.0641 366.578 71.4274 367.027C47.6247 367.784 23.8123 368.469 0 368.358V366.713C29.5821 366.096 59.1594 365.266 88.7126 363.92C126.404 362.154 164.009 358.936 201.696 357.021C205.463 357.055 208.961 355.56 212.55 354.643C216.733 353.504 220.906 352.342 225.084 351.203C224.939 347.083 224.799 342.959 224.756 338.839C213.592 337.208 202.569 334.748 191.483 332.654C180.117 330.43 168.732 328.307 157.308 326.412C148.359 324.781 139.343 323.43 130.244 323.068C121.426 322.407 112.578 321.988 103.73 322.166C92.8469 322.297 82.0069 323.739 71.3984 326.132C51.156 330.565 30.7833 334.7 10.1212 336.61C6.75391 336.774 3.34801 337.517 0 336.866V335.322C12.625 334.907 25.1487 333.088 37.5903 331.019C48.0685 329.325 58.4309 327.024 68.7982 324.762C78.5142 322.538 88.4086 321.028 98.3658 320.507C104.637 320.068 110.928 320.246 117.209 320.27C119.631 320.304 122.004 319.802 124.388 319.441C145.002 316.749 165.62 320.618 186.118 322.489C192.385 323.035 198.705 323.483 204.976 322.769C211.306 322.21 217.587 321.23 223.844 320.145C223.96 314.288 223.4 308.451 223.274 302.599C222.898 297.244 222.845 291.875 222.43 286.52C212.656 284.672 203.254 281.238 193.417 279.679C181.178 277.542 168.664 277.248 156.295 278.256C134.543 280.123 113.398 285.816 92.2391 290.905C62.3 298.344 31.917 304.572 1.08063 306.623C0.858711 305.841 0.636797 305.074 0.405234 304.307C24.2031 303.12 47.7791 299.111 70.9498 293.655C82.2288 291.084 93.4548 288.281 104.695 285.536C124.759 280.48 145.175 276.018 165.948 275.632C179.63 275.222 193.34 276.963 206.554 280.509C211.783 281.952 217.037 283.37 222.396 284.243C222.141 277.865 221.697 271.498 221.268 265.134C219.396 264.835 217.5 264.763 215.614 264.883C184.386 266.056 153.579 272.009 123.157 278.85C100.783 284.291 78.1137 289.593 54.9671 289.863C36.3215 290.24 17.7097 286.988 0 281.257V279.428C16.2576 284.368 33.1569 287.417 50.1767 287.625C67.2351 287.779 84.1874 285.131 100.841 281.609C111.965 279.187 122.998 276.346 134.157 274.054C158.321 268.95 182.756 264.806 207.432 263.32C211.967 263.21 216.501 262.688 221.036 263.113C220.877 261.381 221.065 259.451 219.951 257.98C218.759 256.238 217.485 254.536 216.632 252.591C214.176 247.434 214.205 241.611 213.549 236.049C211.402 216.419 212.772 196.138 219.589 177.488C222.083 170.927 225.18 164.511 229.498 158.944ZM237.602 154.11C232.957 155.837 229.98 160.174 227.64 164.323C223.612 171.829 221.403 180.127 219.212 188.314C216.911 197.89 215.141 207.635 214.687 217.486C214.605 223.607 215.223 229.71 215.7 235.808C216.439 242.533 216.246 249.846 220.337 255.621C219.299 249.89 219.323 244.028 218.653 238.249C218.334 233.063 217.292 227.944 217.071 222.754C216.902 219.034 217.538 215.025 220.057 212.126C223.414 208.049 229.7 206.863 234.341 209.362C238.398 211.581 241.703 215.242 243.406 219.546C244.959 223.497 244.39 227.805 243.835 231.891C242.306 241.954 239.908 251.868 238.476 261.95C242.827 261.198 247.116 259.123 249.788 255.51C253.267 251.048 254.207 245.196 254.145 239.677C253.513 228.591 250.469 217.833 249.364 206.8C248.481 199.457 248.698 192.023 249.407 184.676C250.28 175.78 249.566 166.363 245.307 158.35C243.893 155.625 240.873 152.913 237.602 154.11ZM222.633 212.319C220.115 214.543 219.155 218.04 219.198 221.306C219.333 226.406 220.144 231.447 220.645 236.517C221.475 243.739 221.74 251.019 222.517 258.241C225.798 261.497 230.709 262.061 235.103 262.259C236.01 257.546 236.884 252.823 238.012 248.153C239.696 240.507 242.412 233.048 243.117 225.209C243.445 219.01 238.9 213.737 233.676 211.016C230.178 209.188 225.571 209.637 222.633 212.319ZM222.382 260.407C222.416 261.232 222.464 262.066 222.517 262.901C226.69 263.875 230.964 264.517 235.248 264.681C235.113 264.546 234.833 264.266 234.698 264.131C230.487 263.513 225.773 263.311 222.382 260.407ZM222.864 265.168C223.516 271.136 224.099 277.108 224.423 283.1C224.534 283.65 224.379 284.422 224.949 284.769C227.583 285.333 230.274 285.546 232.933 285.989C233.135 279.559 233.936 273.167 234.568 266.765C230.665 266.254 226.762 265.718 222.864 265.168ZM224.567 286.805C225.286 297.785 225.561 308.784 226.227 319.769C228.292 319.32 230.361 318.9 232.45 318.596C232.523 308.393 232.354 298.18 232.754 287.987C230.009 287.697 227.288 287.234 224.567 286.805ZM125.324 320.796C132.425 321.385 139.579 321.708 146.618 322.948C158.355 324.921 170.131 326.677 181.83 328.896C193.745 331.149 205.647 333.503 217.577 335.689C219.898 336.089 222.208 336.615 224.572 336.75C224.297 331.824 224.384 326.88 223.906 321.968C216.053 323.339 208.17 324.699 200.191 325.046C189.833 325.21 179.524 324.024 169.253 322.871C159.648 321.761 150.024 320.767 140.365 320.285C135.353 320.352 130.307 320.111 125.324 320.796ZM226.169 321.616C226.227 326.812 226.782 331.998 226.743 337.199C228.769 337.589 230.834 337.594 232.884 337.758C232.566 332.003 232.532 326.238 232.455 320.473C230.347 320.791 228.253 321.177 226.169 321.616ZM226.767 339.032C226.979 342.915 227.235 346.799 227.279 350.687C229.189 350.127 231.104 349.577 233.01 349.013C233.01 345.877 233.005 342.746 232.986 339.615C230.906 339.5 228.832 339.287 226.767 339.032ZM227.37 352.491C227.414 353.794 227.423 355.101 227.414 356.409C229.271 356.486 231.128 356.495 232.986 356.438C232.995 354.517 233 352.597 233.01 350.682C231.133 351.295 229.232 351.84 227.37 352.491ZM210.789 356.722C215.609 356.775 220.423 356.346 225.252 356.404C225.204 355.27 225.161 354.136 225.117 353.008C220.337 354.247 215.604 355.642 210.789 356.722ZM227.404 358.285C227.862 362.294 227.631 366.346 228.026 370.365C229.657 370.437 231.288 370.548 232.923 370.645C232.904 366.525 232.822 362.405 232.904 358.29C231.07 358.28 229.237 358.251 227.404 358.285ZM228.079 372.285C228.422 382.575 229.025 392.86 229.305 403.155C230.525 402.813 231.76 402.494 232.976 402.128C232.976 392.277 232.947 382.416 232.812 372.57C231.249 372.29 229.657 372.333 228.079 372.285ZM235.871 372.772C235.972 382.295 236.353 391.809 236.319 401.332C244.125 399.31 252.104 398.085 260.059 396.84C276.056 394.558 292.106 392.629 308.219 391.394C323.319 390.183 338.462 389.233 353.62 389.262C356.886 389.199 360.138 389.797 363.399 389.483C349.944 387.978 336.605 385.614 323.223 383.612C308.9 381.625 294.605 379.401 280.258 377.625C265.506 375.619 250.691 374.176 235.871 372.772ZM229.527 405.553C229.609 408.037 229.681 410.527 229.758 413.016C230.829 412.9 231.895 412.794 232.966 412.688C233.097 409.991 232.995 407.294 233.082 404.603C231.9 404.945 230.709 405.234 229.527 405.553ZM187.141 419.509C187.802 419.432 188.463 419.365 189.119 419.239C197.417 417.377 205.806 415.959 214.215 414.704C218.523 414.015 222.884 413.807 227.206 413.233C227.066 410.927 226.979 408.616 226.917 406.31C213.578 410.464 200.456 415.283 187.141 419.509Z" fill="#23201F" stroke="#F8F4F3" stroke-width="0.8" mask="url(#path-2-inside-1_925_2265)"/>
<path d="M246.513 111.357L246.513 111.357L246.517 111.36C250.425 113.984 254.078 117.462 255.395 122.065L255.394 122.065L255.397 122.072C256.856 126.492 255.392 131.356 252.823 135.108C249.175 140.19 243.154 143.669 236.848 143.711L236.844 143.712C230.324 143.898 224.159 140.409 219.927 135.588L219.926 135.587C216.837 132.127 215.516 127.281 216.192 122.709L216.193 122.709L216.193 122.701C217.033 114.899 223.441 107.898 231.334 107.012L231.334 107.012L231.342 107.011C236.718 106.173 242.132 108.281 246.513 111.357Z" fill="#8F8A8E" stroke="#F8F4F3" stroke-width="0.4"/>
<path d="M244.877 4.91121C238.495 1.25928 230.969 -0.37613 223.651 0.255843C211.416 1.11938 199.481 7.9553 193.523 18.8387C189.722 25.8001 188.275 33.9916 189.379 41.8358C190.508 48.8116 194.064 55.112 198.179 60.7515C202.192 66.174 207.668 70.9258 214.364 72.5275C222.112 74.5343 230.385 72.6191 237.289 68.8369C245.856 64.1767 252.789 56.6654 256.913 47.8419C260.015 41.2279 261.313 33.6732 260.03 26.4369C258.65 17.4156 252.692 9.46045 244.877 4.91121Z" fill="#DACDC0"/>
</g>
<defs>
<clipPath id="clip0_925_2265">
<rect width="494" height="472.547" fill="white" transform="translate(0 0.12085)"/>
</clipPath>
</defs>
</svg>
