<svg width="27" height="27" viewBox="0 0 27 27" fill="none" xmlns="http://www.w3.org/2000/svg">
<path d="M13.7753 2.65198C17.27 2.65198 17.6854 2.65198 19.0603 2.72359C19.8911 2.72359 20.7218 2.88114 21.4952 3.1676C22.641 3.6116 23.5434 4.51393 23.973 5.64542C24.2595 6.41885 24.417 7.24957 24.4314 8.08028C24.4886 9.45526 24.503 9.87062 24.503 13.3654C24.503 16.8601 24.503 17.2755 24.4314 18.6504C24.4314 19.4811 24.2738 20.3119 23.973 21.0853C23.529 22.2311 22.6267 23.1334 21.4952 23.5631C20.7218 23.8496 19.8911 24.0071 19.0603 24.0214C17.6854 24.0787 17.27 24.0931 13.7753 24.0931C10.2806 24.0931 9.86519 24.0787 8.49021 24.0214C7.65949 24.0214 6.82876 23.8639 6.05534 23.5631C4.90952 23.1191 4.0072 22.2168 3.57752 21.0853C3.29106 20.3119 3.13352 19.4811 3.1192 18.6504C3.06191 17.2755 3.04758 16.8601 3.04758 13.3654C3.04758 9.87062 3.04759 9.45526 3.1192 8.08028C3.1192 7.24957 3.27674 6.41885 3.57752 5.64542C4.02152 4.49961 4.92384 3.59728 6.05534 3.1676C6.82876 2.88114 7.65949 2.72359 8.49021 2.72359C9.86519 2.6663 10.2806 2.65198 13.7753 2.65198ZM13.7753 0.288737C10.2233 0.288737 9.77925 0.30306 8.37563 0.374674C7.2871 0.403319 6.2129 0.603836 5.19599 0.990549C3.4343 1.66372 2.045 3.05302 1.37183 4.81471C0.985118 5.83162 0.784589 6.90582 0.755944 7.99435C0.698653 9.39797 0.684326 9.82765 0.684326 13.394C0.684326 16.9604 0.698653 17.39 0.755944 18.7937C0.770267 19.8822 0.985118 20.9564 1.37183 21.9733C2.045 23.735 3.4343 25.1243 5.19599 25.7975C6.2129 26.1842 7.2871 26.3847 8.37563 26.399C9.77925 26.4563 10.2233 26.4849 13.7753 26.4849C17.3273 26.4849 17.7713 26.4706 19.1749 26.399C20.2635 26.3847 21.3377 26.1698 22.3546 25.7831C24.1163 25.11 25.5056 23.7207 26.1787 21.959C26.5654 20.9421 26.766 19.8679 26.7803 18.7793C26.8376 17.39 26.8519 16.946 26.8519 13.3797C26.8519 9.81333 26.8376 9.38365 26.7803 7.98002C26.7516 6.8915 26.5511 5.8173 26.1787 4.80038C25.5056 3.03869 24.1163 1.64939 22.3546 0.976226C21.3377 0.589513 20.2635 0.388996 19.1749 0.360351C17.7713 0.30306 17.3273 0.274414 13.7753 0.274414" fill="#999491"/>
<path d="M13.7751 6.66211C10.0655 6.66211 7.05777 9.66988 7.05777 13.3795C7.05777 17.089 10.0655 20.0968 13.7751 20.0968C17.4847 20.0968 20.4924 17.089 20.4924 13.3795C20.4924 9.66988 17.4847 6.66211 13.7751 6.66211ZM13.7751 17.7479C11.3689 17.7479 9.40669 15.8 9.40669 13.3795C9.40669 10.9732 11.3546 9.01103 13.7751 9.01103C16.1813 9.01103 18.1435 10.9589 18.1435 13.3795C18.1435 15.8 16.1957 17.7479 13.7751 17.7479Z" fill="#999491"/>
<path d="M22.5103 6.47662C22.5103 7.3503 21.8085 8.05211 20.9348 8.05211C20.0611 8.05211 19.3593 7.3503 19.3593 6.47662C19.3593 5.60293 20.0611 4.90112 20.9348 4.90112C21.8085 4.90112 22.5103 5.60293 22.5103 6.47662Z" fill="#999491"/>
</svg>
