<svg width="125" height="83" viewBox="0 0 125 83" fill="none" xmlns="http://www.w3.org/2000/svg">
<path d="M16.4862 77.3394H19.5665V77.6718H16.8777V79.681H18.9091V80.006H16.8777V82.1826H19.6699V82.5076H16.4887V77.3394H16.4862Z" fill="#41393D"/>
<path d="M19.798 82.6405H16.3533V77.2087H19.6946V77.8021H17.0059V79.5479H19.0372V80.1339H17.0059V82.0495H19.798V82.6355V82.6405ZM16.6168 82.3795H19.537V82.3154H16.7449V79.8754H18.7762V79.8113H16.7449V77.5411H19.4336V77.4697H16.6168V82.377V82.3795Z" fill="#41393D"/>
<path d="M33.9979 77.5014V77.3389H34.3377L36.0293 82.0344H36.0441L37.7357 77.3389H38.0606V77.5014L36.2361 82.5071H35.8225L33.9979 77.5014Z" fill="#41393D"/>
<path d="M36.3269 82.6402H35.7309L35.699 82.554L33.8671 77.5039V77.2109H34.4284L36.0338 81.6725L37.6392 77.2109H38.1858L38.1785 77.5507L36.3219 82.6427L36.3269 82.6402ZM35.9132 82.3792H36.1422L37.9273 77.4719H37.8263L36.1348 82.1675H35.9501L35.9034 82.0813L34.2437 77.4719L34.128 77.4818L35.9132 82.3792Z" fill="#41393D"/>
<path d="M52.7725 77.3394H55.8527V77.6718H53.164V79.681H55.1953V80.006H53.164V82.1826H55.9562V82.5076H52.7749V77.3394H52.7725Z" fill="#41393D"/>
<path d="M56.0863 82.6405H52.6416V77.2087H55.9828V77.8021H53.2941V79.5479H55.3254V80.1339H53.2941V82.0495H56.0863V82.6355V82.6405ZM52.905 82.3795H55.8253V82.3154H53.0331V79.8754H55.0644V79.8113H53.0331V77.5411H55.7219V77.4697H52.905V82.377V82.3795Z" fill="#41393D"/>
<path d="M70.7041 77.3394H71.1916L74.0651 81.7985H74.0724V77.3394H74.4492V82.5076H74.0724L71.0882 77.8614H71.0734V82.5076H70.7041V77.3394Z" fill="#41393D"/>
<path d="M74.5803 82.6405H74.0017L73.9623 82.5789L71.2046 78.2872V82.6405H70.5742V77.2087H71.2637L73.9426 81.3675V77.2087H74.5803V82.6405ZM74.1445 82.3795H74.3193V77.4722H74.2036V81.9313H74.0017L73.9549 81.8722L71.1208 77.4722H70.8377V82.3795H70.946V77.7332H71.1479L71.1996 77.7948L74.1445 82.3795Z" fill="#41393D"/>
<path d="M90.795 82.5074V77.6617H89.1034V77.3367H92.878V77.6617H91.1938V82.5074H90.795Z" fill="#41393D"/>
<path d="M91.324 82.6405H90.6641V77.7948H88.9725V77.2087H93.0082V77.7948H91.324V82.6405ZM90.9251 82.3795H91.063V77.5338H92.7472V77.4722H89.236V77.5338H90.9276V82.3795H90.9251Z" fill="#41393D"/>
<path d="M107.072 82.0494V81.7023H107.25C107.523 81.9756 107.929 82.2193 108.66 82.2193C109.451 82.2193 109.997 81.8943 109.997 81.1113C109.997 80.3283 109.399 80.2027 108.653 80.0033C107.73 79.7595 107.198 79.4641 107.198 78.622C107.198 77.8759 107.744 77.3071 108.756 77.3071C109.407 77.3071 109.82 77.477 110.138 77.7134V78.0458H109.953C109.68 77.7947 109.34 77.6248 108.764 77.6248C107.922 77.6248 107.575 78.0458 107.575 78.5924C107.575 79.3016 108.062 79.4641 108.764 79.6487C109.805 79.922 110.382 80.1806 110.382 81.0818C110.382 82.0864 109.672 82.537 108.668 82.537C107.9 82.537 107.412 82.3153 107.072 82.0494Z" fill="#41393D"/>
<path d="M108.667 82.6698C107.983 82.6698 107.436 82.4999 106.991 82.1552L106.941 82.1158V81.5741H107.303L107.343 81.6135C107.547 81.8178 107.909 82.0911 108.66 82.0911C109.46 82.0911 109.867 81.7637 109.867 81.1161C109.867 80.4685 109.45 80.3577 108.655 80.1435L108.618 80.1336C107.66 79.88 107.067 79.5402 107.067 78.6267C107.067 77.7132 107.729 77.1814 108.756 77.1814C109.354 77.1814 109.817 77.3193 110.216 77.6123L110.268 77.6517V78.1811H109.901L109.864 78.1466C109.569 77.8758 109.241 77.76 108.764 77.76C108.081 77.76 107.705 78.058 107.705 78.5972C107.705 79.1783 108.037 79.326 108.795 79.5255C109.8 79.7889 110.512 80.0548 110.512 81.0865C110.512 82.1182 109.839 82.6722 108.667 82.6722V82.6698ZM107.202 81.9853C107.589 82.2684 108.069 82.4063 108.667 82.4063C109.266 82.4063 110.251 82.2339 110.251 81.0816C110.251 80.3011 109.803 80.0573 108.731 79.7741C108.099 79.6067 107.446 79.4368 107.446 78.5923C107.446 77.9053 107.939 77.4941 108.766 77.4941C109.286 77.4941 109.672 77.6246 110.004 77.9152H110.009V77.7797C109.672 77.5458 109.271 77.4375 108.759 77.4375C107.88 77.4375 107.33 77.8905 107.33 78.6218C107.33 79.3531 107.788 79.6387 108.687 79.8751L108.724 79.885C109.448 80.077 110.13 80.2592 110.13 81.1087C110.13 81.9065 109.608 82.3472 108.663 82.3472C108.042 82.3472 107.577 82.1847 107.205 81.8375V81.9828L107.202 81.9853Z" fill="#41393D"/>
<path d="M9.22208 64.9656C9.22208 65.5541 8.78136 65.9973 8.19042 65.9973C7.59947 65.9973 7.15875 65.5566 7.15875 64.9656L3.77315 0.654053H1.56445L4.95005 65.1109C5.09779 67.3196 6.71799 68.2035 8.19042 68.2035C9.66284 68.2035 11.283 67.3196 11.4307 65.1109L14.8188 0.654053H12.6101L9.22455 64.9632L9.22208 64.9656Z" fill="#41393D"/>
<path d="M36.9147 0.654053H34.7061V67.7628H36.9147V0.654053Z" fill="#41393D"/>
<path d="M64.5631 64.9656C64.5631 65.5541 64.1224 65.9973 63.5314 65.9973C62.9405 65.9973 62.4997 65.5566 62.4997 64.9656L59.1141 0.654053H56.9055L60.2911 65.1109C60.4388 67.3196 62.059 68.2035 63.5314 68.2035C65.0038 68.2035 66.624 67.3196 66.7717 65.1109L70.1598 0.654053H67.9512L64.5656 64.9632L64.5631 64.9656Z" fill="#41393D"/>
<path d="M92.3082 0.681152H90.0996V67.7381H92.3082V0.681152Z" fill="#41393D"/>
<path d="M118.946 0.654053H113.057V67.7628H118.946C122.187 67.7628 124.688 65.1134 124.688 62.0208V6.39603C124.688 3.1557 122.184 0.654053 118.946 0.654053ZM122.48 62.0183C122.48 63.9315 120.86 65.8471 118.946 65.8471H115.265V2.56969H118.946C120.86 2.56969 122.48 4.48286 122.48 6.39849V62.0208V62.0183Z" fill="#41393D"/>
<path d="M5.08764 0.806885H0.158203V1.11467H5.08764V0.806885Z" fill="#41393D"/>
<path d="M5.24015 1.26742H0.00292969V0.651855H5.24015V1.26742Z" fill="#41393D"/>
<path d="M16.0738 0.806885H11.1443V1.11467H16.0738V0.806885Z" fill="#41393D"/>
<path d="M16.2265 1.26742H10.9893V0.651855H16.2265V1.26742Z" fill="#41393D"/>
<path d="M60.4296 0.806885H55.5002V1.11467H60.4296V0.806885Z" fill="#41393D"/>
<path d="M60.5819 1.26742H55.3447V0.651855H60.5819V1.26742Z" fill="#41393D"/>
<path d="M71.4128 0.806885H66.4833V1.11467H71.4128V0.806885Z" fill="#41393D"/>
<path d="M71.5682 1.26742H66.331V0.651855H71.5682V1.26742Z" fill="#41393D"/>
<path d="M38.2759 0.806885H33.3465V1.11467H38.2759V0.806885Z" fill="#41393D"/>
<path d="M38.4286 1.26742H33.1914V0.651855H38.4286V1.26742Z" fill="#41393D"/>
<path d="M38.2759 67.3047H33.3465V67.6125H38.2759V67.3047Z" fill="#41393D"/>
<path d="M38.4286 67.7677H33.1914V67.1521H38.4286V67.7677Z" fill="#41393D"/>
<path d="M93.7183 0.806885H88.7888V1.11467H93.7183V0.806885Z" fill="#41393D"/>
<path d="M93.8738 1.26742H88.6366V0.651855H93.8738V1.26742Z" fill="#41393D"/>
<path d="M93.7183 67.3047H88.7888V67.6125H93.7183V67.3047Z" fill="#41393D"/>
<path d="M93.8738 67.7677H88.6366V67.1521H93.8738V67.7677Z" fill="#41393D"/>
<path d="M116.411 0.806885H111.482V1.11467H116.411V0.806885Z" fill="#41393D"/>
<path d="M116.564 1.26742H111.326V0.651855H116.564V1.26742Z" fill="#41393D"/>
<path d="M116.411 67.3047H111.482V67.6125H116.411V67.3047Z" fill="#41393D"/>
<path d="M116.564 67.7677H111.326V67.1521H116.564V67.7677Z" fill="#41393D"/>
</svg>
