<svg width="27" height="27" viewBox="0 0 27 27" fill="none" xmlns="http://www.w3.org/2000/svg">
<path d="M21.842 4.6582H4.36835C3.16704 4.6582 2.19506 5.6411 2.19506 6.84241L2.18414 19.9477C2.18414 21.149 3.16704 22.1319 4.36835 22.1319H21.842C23.0434 22.1319 24.0262 21.149 24.0262 19.9477V6.84241C24.0262 5.6411 23.0434 4.6582 21.842 4.6582ZM21.4052 9.29965L13.684 14.1268C13.3345 14.3452 12.8759 14.3452 12.5264 14.1268L4.8052 9.29965C4.69569 9.23818 4.59979 9.15512 4.52331 9.05551C4.44683 8.95591 4.39136 8.84182 4.36025 8.72015C4.32913 8.59848 4.32303 8.47176 4.34231 8.34767C4.36159 8.22358 4.40585 8.10468 4.47241 7.99819C4.53897 7.8917 4.62644 7.79981 4.72954 7.72811C4.83264 7.6564 4.94921 7.60635 5.07221 7.581C5.19521 7.55565 5.32207 7.55552 5.44512 7.58062C5.56817 7.60572 5.68485 7.65552 5.78809 7.72702L13.1052 12.3029L20.4223 7.72702C20.5255 7.65552 20.6422 7.60572 20.7653 7.58062C20.8883 7.55552 21.0152 7.55565 21.1382 7.581C21.2612 7.60635 21.3778 7.6564 21.4809 7.72811C21.5839 7.79981 21.6714 7.8917 21.738 7.99819C21.8045 8.10468 21.8488 8.22358 21.8681 8.34767C21.8874 8.47176 21.8813 8.59848 21.8501 8.72015C21.819 8.84182 21.7636 8.95591 21.6871 9.05551C21.6106 9.15512 21.5147 9.23818 21.4052 9.29965Z" fill="#999491"/>
</svg>
