<svg width="27" height="27" viewBox="0 0 27 27" fill="none" xmlns="http://www.w3.org/2000/svg">
<path d="M8.39559 2.13818C7.68958 2.13818 7.01249 2.41864 6.51327 2.91787C6.01404 3.41709 5.73358 4.09418 5.73358 4.80019V22.4104C5.73358 23.1164 6.01404 23.7935 6.51327 24.2927C7.01249 24.7919 7.68958 25.0724 8.39559 25.0724H17.815C18.521 25.0724 19.1981 24.7919 19.6973 24.2927C20.1965 23.7935 20.477 23.1164 20.477 22.4104V4.80019C20.477 4.09418 20.1965 3.41709 19.6973 2.91787C19.1981 2.41864 18.521 2.13818 17.815 2.13818H8.39559ZM11.4671 20.1579H14.7435C14.9607 20.1579 15.169 20.2442 15.3226 20.3978C15.4762 20.5514 15.5625 20.7598 15.5625 20.977C15.5625 21.1942 15.4762 21.4026 15.3226 21.5562C15.169 21.7098 14.9607 21.7961 14.7435 21.7961H11.4671C11.2499 21.7961 11.0416 21.7098 10.888 21.5562C10.7344 21.4026 10.6481 21.1942 10.6481 20.977C10.6481 20.7598 10.7344 20.5514 10.888 20.3978C11.0416 20.2442 11.2499 20.1579 11.4671 20.1579Z" fill="#999491"/>
</svg>
