<svg width="25" height="24" viewBox="0 0 25 24" fill="none" xmlns="http://www.w3.org/2000/svg">
<path d="M10.168 15.584V8.41598C10.1681 8.32629 10.1924 8.2383 10.2382 8.16122C10.2841 8.08414 10.3498 8.02081 10.4285 7.97786C10.5073 7.93492 10.5961 7.91394 10.6857 7.91712C10.7754 7.92031 10.8625 7.94755 10.938 7.99598L16.514 11.579C16.5846 11.6242 16.6427 11.6865 16.6829 11.76C16.7231 11.8336 16.7442 11.9161 16.7442 12C16.7442 12.0838 16.7231 12.1663 16.6829 12.2399C16.6427 12.3135 16.5846 12.3757 16.514 12.421L10.938 16.005C10.8625 16.0534 10.7754 16.0806 10.6857 16.0838C10.5961 16.087 10.5073 16.066 10.4285 16.0231C10.3498 15.9801 10.2841 15.9168 10.2382 15.8397C10.1924 15.7627 10.1681 15.6747 10.168 15.585V15.584Z" fill="white"/>
<path d="M1.66797 12C1.66797 5.925 6.59297 1 12.668 1C18.743 1 23.668 5.925 23.668 12C23.668 18.075 18.743 23 12.668 23C6.59297 23 1.66797 18.075 1.66797 12ZM12.668 2.5C10.1484 2.5 7.73205 3.50089 5.95045 5.28249C4.16886 7.06408 3.16797 9.48044 3.16797 12C3.16797 14.5196 4.16886 16.9359 5.95045 18.7175C7.73205 20.4991 10.1484 21.5 12.668 21.5C15.1875 21.5 17.6039 20.4991 19.3855 18.7175C21.1671 16.9359 22.168 14.5196 22.168 12C22.168 9.48044 21.1671 7.06408 19.3855 5.28249C17.6039 3.50089 15.1875 2.5 12.668 2.5Z" fill="white"/>
</svg>
