<svg width="23" height="27" viewBox="0 0 23 27" fill="none" xmlns="http://www.w3.org/2000/svg">
<path d="M18.1768 4.38073C17.1814 3.24439 16.6329 1.78506 16.6333 0.274414H12.1338V18.3306C12.0991 19.3077 11.6866 20.2332 10.9831 20.9122C10.2797 21.5912 9.34013 21.9708 8.36241 21.9709C6.29469 21.9709 4.57644 20.2818 4.57644 18.1849C4.57644 15.6804 6.99364 13.802 9.48364 14.5737V9.97231C4.45995 9.30248 0.0624084 13.2049 0.0624084 18.1849C0.0624084 23.0339 4.08136 26.4849 8.34785 26.4849C12.9201 26.4849 16.6333 22.7718 16.6333 18.1849V9.02582C18.4578 10.3361 20.6484 11.0391 22.8947 11.0353V6.53582C22.8947 6.53582 20.1571 6.66687 18.1768 4.38073Z" fill="#999491"/>
</svg>
