<svg width="519" height="530" viewBox="0 0 519 530" fill="none" xmlns="http://www.w3.org/2000/svg">
<g style="mix-blend-mode:hue">
<path d="M71.9251 87.9424L80.0737 80.388C118.032 45.1971 165.165 21.4529 216.037 11.8938L263.426 2.98897L290.88 1.26494C416.979 -6.65377 522.526 95.6805 518.507 221.964C517.747 245.852 512.996 269.444 504.452 291.764L485.993 339.984C478.239 360.237 468.113 379.501 455.827 397.372L443.759 414.925L424.586 435.925C414.049 447.465 402.546 458.085 390.203 467.668L387.732 469.586C371.971 481.823 354.923 492.306 336.89 500.848L324.733 506.606C312.236 512.526 299.248 517.349 285.917 521.021L283.943 521.565C264.592 526.895 244.612 529.597 224.54 529.597C101 529.597 0.851761 429.448 0.851761 305.908V276.608V267.558C0.851761 240.897 4.85443 214.387 12.7259 188.914C20.4067 164.059 31.6872 140.463 46.2082 118.878L49.8424 113.476L71.9251 87.9424Z" fill="#D9D9D9"/>
</g>
</svg>
