<svg width="523" height="36" viewBox="0 0 523 36" fill="none" xmlns="http://www.w3.org/2000/svg">
<path d="M254.793 33.1647L254.781 33.1653L254.769 33.1657C212.765 34.3675 149.754 35.179 97.2353 33.7064C70.9813 32.9702 47.3213 31.6626 30.2126 29.5426C21.6667 28.4836 14.7051 27.2163 9.85995 25.6985C7.44412 24.9417 5.48782 24.1028 4.11554 23.1543C2.7626 22.2192 1.77716 21.0313 1.77716 19.5499C1.77716 16.4909 4.11655 14.0427 7.76407 12.0854C11.4587 10.1028 16.8125 8.44187 23.5454 7.06359C37.0293 4.30331 56.3257 2.62296 79.6609 1.92403C126.348 0.525676 189.38 3.05178 254.828 8.82128C300.423 12.8407 338.5 14.588 368.559 15.0718C380.918 15.2708 398.788 15.2203 417.982 15.1662L418.863 15.1637C438.385 15.1087 459.2 15.0537 476.901 15.2564C494.575 15.4587 509.222 15.918 516.363 16.9033C518.133 17.1475 519.542 17.436 520.429 17.8009C520.83 17.9657 521.357 18.2347 521.639 18.7183C521.807 19.007 521.878 19.3575 521.792 19.7208C521.714 20.0536 521.525 20.3046 521.351 20.4798C521.017 20.8164 520.523 21.0818 519.99 21.3085C519.432 21.5461 518.722 21.7847 517.866 22.0272C516.153 22.5129 513.773 23.0368 510.671 23.6046C499.909 25.5752 469.45 26.831 444.005 27.3984C406.768 28.2288 304.518 30.5223 254.793 33.1647Z" stroke="url(#paint0_linear_936_244)" stroke-width="2"/>
<defs>
<linearGradient id="paint0_linear_936_244" x1="514.428" y1="18.023" x2="2.77716" y2="18.023" gradientUnits="userSpaceOnUse">
<stop stop-color="#41393D"/>
<stop offset="0.657452" stop-color="#C3B2A1"/>
</linearGradient>
</defs>
</svg>
