<svg width="46" height="42" viewBox="0 0 46 42" fill="none" xmlns="http://www.w3.org/2000/svg">
<path d="M34.3387 5.68724L34.3387 5.68728L34.3425 5.68985C38.6857 8.60669 42.7453 12.4723 44.2088 17.5867L44.2086 17.5868L44.2114 17.5952C45.833 22.5074 44.2061 27.913 41.3507 32.0828C37.2964 37.73 30.6052 41.5963 23.5973 41.644L23.5973 41.644L23.5925 41.6441C16.3466 41.8508 9.495 37.9742 4.79194 32.616L4.7907 32.6146C1.35787 28.7692 -0.11086 23.384 0.641433 18.3034L0.641607 18.3034L0.642553 18.2946C1.57599 9.62323 8.69722 1.84268 17.4688 0.858066L17.4688 0.858269L17.4782 0.8568C23.4529 -0.0745945 29.4693 2.26857 34.3387 5.68724Z" fill="#8F8A8E" stroke="#F8F4F3" stroke-width="0.44454"/>
</svg>
