<svg width="459" height="296" viewBox="0 0 459 296" fill="none" xmlns="http://www.w3.org/2000/svg">
<g clip-path="url(#clip0_925_2324)">
<path d="M256.028 84.905C249.512 81.164 241.829 79.4886 234.357 80.136C221.867 81.0206 209.682 88.0234 203.599 99.1725C199.718 106.304 198.24 114.695 199.368 122.731C200.521 129.877 204.151 136.331 208.352 142.108C212.45 147.663 218.04 152.531 224.876 154.172C232.786 156.228 241.233 154.266 248.281 150.391C257.028 145.617 264.106 137.922 268.317 128.884C271.484 122.108 272.809 114.369 271.499 106.956C270.09 97.7146 264.007 89.5653 256.028 84.905Z" fill="#DACDC0"/>
<path d="M237.803 295.538C234.269 295.538 230.674 295.427 227.006 295.207C211.502 294.273 194.55 291.338 175.182 286.232C158.935 281.949 140.415 275.996 116.899 267.495C98.0868 260.696 80.3056 256.726 64.0499 255.697C51.0846 254.876 39.0589 255.914 28.3065 258.781C10.1094 263.633 1.8476 272.102 1.76564 272.186L-0.00195312 270.495C0.0873441 270.4 2.24516 268.168 6.75406 265.311C10.8727 262.7 17.8453 259.038 27.6753 256.416C38.6833 253.481 50.9733 252.416 64.2028 253.254C80.6897 254.298 98.6996 258.315 117.73 265.193C153.906 278.268 192.2 290.659 227.152 292.763C261.463 294.829 290.536 287.062 318.644 268.323C331.275 259.903 342.261 248.569 351.363 234.583C338.684 231.51 325.553 240.025 316.312 246.016C311.7 249.007 308.368 251.167 305.993 251.402C304.614 251.538 303.702 251.197 303.28 250.384C302.462 248.813 304.01 246.906 307.59 242.739C311.435 238.266 317.245 231.505 315.156 228.085C314.795 227.494 313.418 226.764 308.248 228.513C304.129 229.907 298.829 232.436 293.22 235.113C287.014 238.075 280.598 241.138 274.715 243.206C267.717 245.668 262.852 246.239 259.403 245.005C257.437 244.3 254.829 242.278 251.523 238.88C250.802 240.074 250.089 241.233 249.384 242.356C241.406 255.085 235.196 262.343 230.924 263.926C224.44 266.331 214.32 265.903 200.843 262.652C189.801 259.991 178.792 255.998 172.213 253.614C170.786 253.096 169.574 252.657 168.584 252.31C170.93 254.956 177.56 260.479 188.584 265.757C200.081 271.26 218.689 277.566 242.053 276.361C257.437 275.566 273.409 271.829 289.524 265.253C303.051 259.734 313.998 253.34 321.241 249.11C324.289 247.33 326.695 245.924 328.46 245.065C329.738 244.442 332.119 243.282 333.109 244.902C333.721 245.906 333.113 247.198 332.602 248.082C330.086 252.435 319.841 262.792 303.061 272.062C289.555 279.522 268.09 288.218 241.447 288.218C240.389 288.218 239.323 288.205 238.249 288.177C223.361 287.788 208.547 285.339 194.217 280.897C179.026 276.189 164.876 269.378 152.163 260.655C138.456 251.251 126.617 239.737 116.974 226.438C106.522 212.023 98.6519 195.489 93.5828 177.293C90.8623 167.529 89.2757 157.336 88.8647 146.998C88.4671 136.968 89.1742 126.764 90.9675 116.669C94.4819 96.8813 102.207 77.5356 113.308 60.7233C118.382 53.0376 124.159 45.8742 130.477 39.4302C136.925 32.854 143.976 26.9909 151.434 22.0001C167.213 11.4434 184.555 4.8501 202.979 2.40605C222.325 -0.16155 240.807 -0.192131 257.913 2.31431C274.241 4.70698 289.555 9.44341 303.428 16.3915C316.706 23.0423 328.81 31.7885 339.402 42.3867C349.594 52.585 358.458 64.5643 365.747 77.9907C372.761 90.9118 377.413 107.102 379.199 124.808C380.96 142.252 379.93 160.984 376.223 178.982C374.323 188.204 371.73 197.223 368.514 205.786C365.188 214.644 361.182 223.051 356.606 230.773C356.12 231.593 355.63 232.404 355.132 233.206C357.098 233.976 358.989 235 360.796 236.274C371.681 243.954 372.711 254.862 373.464 262.826C373.877 267.204 374.204 270.662 375.991 271.702C377.402 272.523 380.15 272.025 384.157 270.222C390.106 267.545 394.292 263.363 398.34 259.318C403.552 254.11 408.94 248.726 417.956 246.743C422.759 245.686 428.182 245.659 434.532 246.658C441.548 247.762 449.552 250.088 458.998 253.769L458.11 256.048C448.829 252.432 440.992 250.151 434.151 249.074C428.107 248.124 422.981 248.142 418.48 249.132C410.163 250.961 405.259 255.86 400.068 261.048C395.865 265.248 391.517 269.591 385.16 272.452C380.19 274.688 376.983 275.109 374.76 273.816C371.886 272.144 371.506 268.133 371.027 263.055C370.659 259.159 370.241 254.742 368.651 250.365C366.826 245.34 363.794 241.384 359.384 238.273C357.548 236.978 355.681 236.009 353.797 235.319C344.439 249.86 333.089 261.63 319.999 270.356C305.221 280.209 290.366 286.972 274.587 291.031C262.872 294.045 250.752 295.532 237.8 295.532L237.803 295.538ZM231.618 2.90758C222.445 2.90758 212.984 3.54979 203.302 4.83543C185.253 7.23055 168.26 13.6918 152.795 24.038C145.477 28.9347 138.556 34.6913 132.225 41.1476C126.016 47.4804 120.339 54.5214 115.35 62.0762C104.432 78.6121 96.8342 97.6397 93.3773 117.102C91.6146 127.025 90.9198 137.052 91.31 146.906C91.7124 157.054 93.2696 167.059 95.94 176.641C100.931 194.555 108.674 210.828 118.955 225.007C128.434 238.08 140.074 249.396 153.549 258.643C166.059 267.227 179.987 273.93 194.944 278.566C209.06 282.941 223.652 285.354 238.315 285.736C267.639 286.501 290.943 276.487 305.329 267.952C312.464 263.718 319.205 258.737 324.311 253.927C327.918 250.529 329.778 248.107 330.523 246.814C328.837 247.516 325.615 249.397 322.477 251.23C315.174 255.495 304.137 261.941 290.451 267.526C274.082 274.206 257.842 278.003 242.183 278.812C218.845 280.018 200.156 273.854 188.588 268.47C175.207 262.243 166.891 255.041 165.484 252.135C164.92 250.97 165.308 250.261 165.588 249.942C166.411 249.005 167.833 249.478 168.3 249.633C169.466 250.022 171.048 250.596 173.051 251.321C185.889 255.976 215.953 266.878 230.077 261.64C232.189 260.857 237.239 257.142 247.315 241.065C248.126 239.77 248.949 238.427 249.783 237.04C247.964 235.056 245.958 232.709 243.757 229.988C241.503 233.814 239.882 236.377 239.216 237.159C238.792 237.655 238.177 237.878 237.483 237.789C236.139 237.614 233.631 236.202 226.107 226.76C221.176 220.571 215.022 212.082 208.31 202.209C194.234 181.505 181.181 159.886 175.057 147.134C171.095 138.885 169.018 128.512 169.208 117.924C169.408 106.715 172.052 95.8256 176.852 86.4323C180.863 78.5839 186.244 72.0139 192.846 66.9043C200.127 61.2688 208.78 57.5183 218.565 55.7569C230.242 53.6553 241.395 53.8205 251.716 56.2474C261.367 58.5177 270.004 62.6805 277.386 68.6206C284.168 74.0775 289.569 80.7674 293.442 88.5057C297.3 96.2146 299.423 104.524 299.749 113.203C300.456 131.997 286.07 169.995 272.369 199.288C265.941 213.031 259.128 226.07 252.828 236.711C256.016 240.053 258.521 242.096 260.232 242.709C263.084 243.729 267.557 243.14 273.908 240.906C279.667 238.88 286.023 235.846 292.17 232.912C297.847 230.202 303.21 227.642 307.468 226.201C310.814 225.069 315.467 223.901 317.248 226.814C318.639 229.089 318.235 232.022 316.014 235.779C314.266 238.735 311.707 241.713 309.45 244.339C308.127 245.878 306.405 247.882 305.77 248.97C307.559 248.783 311.001 246.552 314.986 243.967C320.789 240.205 328.011 235.521 335.92 233.086C340.279 231.745 344.438 231.242 348.28 231.593C349.803 231.732 351.296 232.006 352.753 232.414C353.345 231.466 353.931 230.504 354.506 229.532C359.008 221.932 362.952 213.655 366.228 204.931C369.399 196.486 371.958 187.591 373.831 178.493C377.488 160.735 378.505 142.258 376.769 125.058C375.015 107.672 370.462 91.8012 363.6 79.1625C356.424 65.9417 347.701 54.152 337.675 44.1201C327.269 33.7078 315.379 25.1157 302.335 18.5823C288.696 11.7505 273.632 7.09354 257.562 4.73879C249.229 3.51799 240.562 2.90758 231.622 2.90758H231.618ZM234.439 56.7391C229.425 56.7391 224.266 57.2138 218.994 58.1618C196.283 62.2499 184.725 76.3955 179.027 87.543C174.394 96.6061 171.844 107.126 171.651 117.965C171.468 128.179 173.46 138.161 177.259 146.072C183.335 158.723 196.315 180.215 210.326 200.826C217.003 210.647 223.119 219.085 228.013 225.227C234.507 233.378 236.884 234.973 237.574 235.285C238.325 234.273 239.931 231.683 242.121 227.94C240.841 226.321 239.502 224.586 238.11 222.744C237.737 222.874 237.324 222.919 236.886 222.876C235.101 222.701 232.617 220.982 229.293 217.621C226.458 214.755 223.011 210.678 219.324 205.829C212.047 196.257 204.331 184.339 199.19 174.726C193.503 164.094 187.64 152.692 183.927 140.494C179.769 126.831 179.044 114.338 181.709 102.302C183.109 95.9798 185.87 90.0825 189.915 84.7711C193.864 79.587 198.83 75.2249 204.677 71.8059C211.229 67.9747 218.462 65.5673 226.174 64.6511C234.323 63.6823 242.581 64.4444 250.72 66.9154C258.555 69.2934 265.413 72.6316 271.1 76.8335C276.619 80.9118 281.074 85.8292 284.34 91.4489C287.525 96.9278 289.589 103.083 290.472 109.745C291.341 116.292 291.07 123.327 289.668 130.654C286.706 146.139 273.989 173.125 263.842 193.037C256.984 206.493 249.93 219.346 245.077 227.723C247.258 230.441 249.268 232.82 251.09 234.837C257.244 224.381 263.88 211.656 270.15 198.25C278.086 181.282 284.822 164.62 289.633 150.063C294.949 133.973 297.601 121.258 297.302 113.292C296.988 104.965 294.953 96.9914 291.251 89.5981C287.538 82.1766 282.355 75.7595 275.848 70.5239C268.753 64.815 260.444 60.8126 251.152 58.6266C245.803 57.3679 240.216 56.7391 234.439 56.7391ZM239.896 221.052C241.119 222.673 242.302 224.211 243.442 225.663C248.151 217.49 254.901 205.191 261.661 191.927C268.093 179.305 273.496 167.886 277.72 157.986C282.805 146.069 286.016 136.719 287.265 130.194C288.618 123.125 288.881 116.353 288.046 110.067C287.205 103.727 285.246 97.877 282.225 92.6782C279.126 87.3485 274.894 82.6794 269.645 78.8005C264.183 74.7637 257.577 71.5527 250.008 69.2554C242.194 66.8836 234.272 66.1508 226.462 67.0805C219.086 67.9576 212.172 70.2573 205.911 73.9185C200.342 77.1748 195.614 81.3252 191.86 86.2537C188.031 91.28 185.419 96.8581 184.097 102.831C181.525 114.446 182.235 126.533 186.267 139.783C189.915 151.77 195.717 163.048 201.346 173.574C206.431 183.081 214.067 194.875 221.272 204.35C228.815 214.27 233.735 218.866 236.128 220.098C231.843 214.323 227.126 207.647 222.17 200.333C208.33 179.912 195.079 158.131 193.941 154.624C193.247 152.488 192.779 150.291 194.037 148.697C195.848 146.403 200.216 146.083 214.357 147.207C215.806 147.322 217.261 147.386 218.71 147.4C213.536 144.573 209.171 140.078 206.176 134.417C202.613 127.686 201.261 119.962 202.366 112.665C203.415 105.747 206.602 99.7718 211.588 95.384C217.253 90.3981 224.901 87.6543 234.318 87.2286C244.095 86.787 252.385 89.4329 258.29 94.8825C263.459 99.6532 266.621 106.434 267.195 113.975C267.758 121.379 265.717 128.948 261.599 134.741C259.397 137.837 256.677 140.37 253.515 142.269C250.122 144.305 246.29 145.564 242.124 146.009C241.527 146.073 240.935 146.123 240.347 146.16C237.285 147.357 233.981 148.261 230.56 148.874C243.107 151.532 254.834 149.526 263.033 148.123C266.62 147.509 269.454 147.025 271.635 147.017C272.678 147.013 275.852 147.002 276.538 149.744C276.85 150.992 276.604 153.711 271.892 163.759C269.076 169.763 264.943 177.759 259.939 186.882C251.685 201.928 242.869 216.774 239.899 221.056L239.896 221.052ZM202.525 149.019C199.142 149.019 196.655 149.326 195.957 150.21C195.527 150.754 195.623 151.882 196.267 153.865C197.22 156.8 209.641 177.485 224.194 198.958C229.316 206.514 234.06 213.222 238.346 218.982C241.437 214.339 249.603 200.626 257.791 185.701C274.275 155.65 274.32 150.967 274.163 150.334C273.771 148.765 268.755 149.623 263.444 150.532C253.777 152.186 239.329 154.657 224.127 149.674C220.812 149.917 217.458 149.904 214.162 149.643C209.985 149.311 205.828 149.017 202.525 149.017V149.019ZM236.396 89.625C235.748 89.625 235.092 89.6397 234.428 89.6702C225.581 90.0703 218.441 92.6097 213.204 97.2177C208.658 101.22 205.746 106.687 204.785 113.028C203.757 119.81 205.02 126.999 208.338 133.269C211.771 139.756 217.126 144.577 223.418 146.844C223.754 146.965 224.089 147.081 224.424 147.195C227.385 146.955 230.28 146.507 233.027 145.863C228.501 145.184 224.401 143.564 220.908 141.046C215.889 137.427 212.283 132.041 210.753 125.88C209.391 120.4 209.777 114.708 211.838 109.854C214.094 104.543 218.144 100.593 223.549 98.4299C232.949 94.6697 241.91 95.7828 248.784 101.564C252.467 104.661 255.303 108.883 256.983 113.772C258.607 118.492 258.987 123.519 258.056 127.927C256.784 133.946 253.075 138.692 247.936 142.205C251.909 140.795 256.164 138.155 259.602 133.319C263.396 127.985 265.273 121 264.753 114.156C264.227 107.234 261.342 101.026 256.629 96.6758C251.609 92.0434 244.643 89.6238 236.395 89.6238L236.396 89.625ZM234.212 98.6795C231.091 98.6795 227.823 99.3559 224.458 100.702C219.67 102.617 216.085 106.112 214.09 110.81C212.234 115.179 211.893 120.321 213.127 125.29C214.518 130.89 217.79 135.781 222.34 139.061C227.082 142.482 233.098 144.082 239.836 143.735C240.22 143.581 240.599 143.422 240.971 143.258C246.676 140.754 253.855 135.974 255.663 127.423C256.505 123.443 256.153 118.878 254.671 114.571C253.134 110.101 250.554 106.251 247.211 103.439C244.315 101.004 241.01 99.4844 237.386 98.9229C236.347 98.7627 235.289 98.6819 234.214 98.6819L234.212 98.6795Z" fill="#1E1E1E" stroke="#F8F4F3" stroke-width="0.3"/>
</g>
<defs>
<clipPath id="clip0_925_2324">
<rect width="459" height="295.077" fill="white" transform="translate(0 0.461411)"/>
</clipPath>
</defs>
</svg>
